<svg width="106" height="99" xmlns="http://www.w3.org/2000/svg" xmlns:xlink="http://www.w3.org/1999/xlink"><svg width="71.17" height="11.5" viewBox="-1 -1 140.34 21" y="69.83" xmlns="http://www.w3.org/2000/svg"><path data-name="ConocE mรกs" d="M7.146 18.977a6.332 6.332 0 004.57-1.6 6.489 6.489 0 001.836-4.292h-1.9a4.234 4.234 0 01-4.442 4.207c-3.182 0-5.253-2.52-5.253-6.257 0-3.587 1.879-6.3 5.232-6.3 2.413 0 3.929 1.3 4.292 3.2h1.879c-.406-2.819-2.562-4.869-6.129-4.869-4.548 0-7.238 3.481-7.238 7.965 0 4.636 2.818 7.946 7.153 7.946zm15.459.021c4.612 0 7.473-3.395 7.473-7.965s-2.861-7.965-7.473-7.965-7.474 3.4-7.474 7.965 2.861 7.965 7.474 7.965zm0-1.687c-3.588 0-5.51-2.691-5.51-6.278s1.922-6.3 5.51-6.3 5.509 2.712 5.509 6.3-1.922 6.278-5.509 6.278zm9.757 1.367h1.793V6.143h.043s.641 1.153 1.132 1.9l7 10.634h1.964V3.406h-1.793v12.577h-.043s-.6-1.174-1.111-1.964L34.39 3.406h-2.028v15.268zm21.693.32c4.613 0 7.474-3.395 7.474-7.965s-2.861-7.965-7.474-7.965-7.473 3.4-7.473 7.965 2.861 7.965 7.473 7.965zm0-1.687c-3.587 0-5.509-2.691-5.509-6.278s1.922-6.3 5.509-6.3 5.51 2.712 5.51 6.3-1.922 6.278-5.51 6.278zm16.334 1.666a6.332 6.332 0 004.57-1.6 6.489 6.489 0 001.836-4.292h-1.9a4.233 4.233 0 01-4.442 4.207c-3.181 0-5.253-2.52-5.253-6.257 0-3.587 1.879-6.3 5.232-6.3 2.413 0 3.929 1.3 4.292 3.2h1.879c-.406-2.819-2.562-4.869-6.128-4.869-4.549 0-7.239 3.481-7.239 7.965.002 4.636 2.819 7.946 7.153 7.946zm8.562-.3H89.99v-1.771h-9.118v-5.36h8.051V9.923h-8.051V5.097h8.866V3.406H78.951v15.268zm16.675 0h1.73V6.122h.042s.385 1.153.684 1.922l4.185 10.634h1.471l4.186-10.634c.277-.726.683-1.922.683-1.922h.043v12.556h1.836V3.406h-2.5l-4.912 12.684h-.036L98.082 3.406h-2.456v15.268zm16.5 0h1.965l1.644-4.655h6.086l1.623 4.655h2.094l-5.635-15.271h-2.157zm5.979-11.339c.3-.876.7-2.157.7-2.157h.043s.384 1.3.683 2.157l1.751 5.125h-5zm-.021-4.741h1.473l1.751-2.583h-2.135zm14.654 16.38c3.289 0 5.616-1.6 5.616-4.463 0-3.438-2.712-4.164-5.68-4.762-2.285-.449-3.993-.961-3.993-2.691 0-1.58 1.367-2.455 3.438-2.455 2.242 0 3.651 1.089 3.929 3.267h1.815c-.384-2.819-1.964-4.762-5.787-4.762-3.1 0-5.189 1.516-5.189 4.036 0 2.882 2.307 3.651 5 4.249 2.733.6 4.57 1.089 4.57 3.182 0 1.9-1.516 2.861-3.63 2.861-2.883 0-4.463-1.345-4.719-3.929h-1.88c.165 3.075 2.215 5.467 6.51 5.467z" fill="#fff" fill-rule="evenodd"/></svg><svg width="44.31" height="17.27" viewBox="-1 -1 44.31 17.27" y="81.33" xmlns="http://www.w3.org/2000/svg"><g data-name="Layer 2"><path d="M11.34 13.59C8 15 2.77 16.71.59 13.1-.63 11.1.14 8 1.94 5.15A40.26 40.26 0 016 0c-.8 1.36-3.1 5.91-.09 8.18 1.18.88 3.24 1 5.8.28L42.31.14z" fill="#f47735" data-name="Layer 1"/></g></svg><svg width="94.24" height="28.72" viewBox="-1 -1 186.47 55.44" y="28.7" xmlns="http://www.w3.org/2000/svg"><path data-name="Ya ENTRENASTE EN TU CASA." d="M11.731 23.039v-9.571L16.982.417h-6.331l-1.11 3.36q-.33.96-.57 1.875t-.45 1.755q-.21-.84-.465-1.755t-.585-1.875L6.361.417H0l5.611 13.051v9.571h6.12zm21.87 0L28.411.417H21.15l-5.22 22.622h6.3l.51-2.88h4.051l.51 2.88h6.3zm-7.53-7.711h-2.61l.93-6.091q.09-.57.165-1.35t.225-2.07l.24 2.07q.09.78.18 1.35zm15.9 7.711h11.341v-5.43H48.06v-3.45h4.711v-5.13H48.06v-3.3h5.251V.417H41.97v22.622zm12.75 0h5.82v-5.76q0-1.35-.09-3.135t-.27-4.155q.6 2.16 1.56 4.74l3.061 8.311h5.85V.417H64.8v5.761q0 1.35.195 3.435t.375 4.455q-.15-.54-.33-1.2t-.404-1.368q-.225-.705-.45-1.425t-.465-1.35L60.54.414h-5.82v22.625zm25.89 0V5.848h3.451V.417H71.039v5.431h3.451v17.191h6.12zm19.921 0l-4.561-9.391a5.687 5.687 0 003.451-5.67 9.142 9.142 0 00-.5-3.075 5.834 5.834 0 00-1.576-2.385A7.47 7.47 0 0094.541.973a13.772 13.772 0 00-4.185-.555h-5.911v22.621h6.091v-9.271l3.39 9.271h6.6zM90.54 10.8V5.43h.42a2.353 2.353 0 011.83.69 2.836 2.836 0 01.63 1.98 2.894 2.894 0 01-.63 2 2.327 2.327 0 01-1.83.705h-.42zm10.829 12.241h11.341v-5.43h-5.251v-3.45h4.711v-5.13h-4.711v-3.3h5.251V.417h-11.341v22.622zm12.75 0h5.82v-5.76q0-1.35-.09-3.135t-.27-4.155q.6 2.16 1.56 4.74l3.061 8.311h5.85V.417h-5.85v5.761q0 1.35.195 3.435t.375 4.455q-.15-.54-.33-1.2t-.405-1.368q-.225-.705-.45-1.425t-.465-1.35L119.939.414h-5.82v22.625zm34.141 0L143.07.419h-7.261l-5.221 22.622h6.3l.51-2.88h4.05l.51 2.88h6.3zm-7.531-7.711h-2.61l.93-6.091q.09-.57.165-1.35t.225-2.07l.24 2.07q.09.78.18 1.35zm7.589.06v7.081a12.522 12.522 0 004.591.96 7.3 7.3 0 002.895-.57 6.5 6.5 0 002.28-1.605 7.689 7.689 0 001.486-2.43 8.453 8.453 0 00.54-3.075 6.691 6.691 0 00-.84-3.405 9.823 9.823 0 00-2.761-2.865l-.99-.72a2.414 2.414 0 01-1.23-1.8 1.25 1.25 0 01.465-.975 1.7 1.7 0 011.155-.405 3.219 3.219 0 011.875.675 6.771 6.771 0 011.7 1.815v-6.9A9.349 9.349 0 00155.1 0a6.333 6.333 0 00-2.7.585 6.928 6.928 0 00-2.19 1.59 7.35 7.35 0 00-1.455 2.355 7.94 7.94 0 00-.526 2.91 6.633 6.633 0 00.856 3.375 10.856 10.856 0 002.835 3.015l.99.78a2.376 2.376 0 011.08 1.77 1.321 1.321 0 01-.495 1.05 1.9 1.9 0 01-1.275.42q-2.071-.001-3.902-2.461zm20.971 7.651V5.848h3.45V.417h-13.021v5.431h3.45v17.191h6.121zm3.839 0h11.341v-5.43h-5.251v-3.45h4.711v-5.13h-4.711v-3.3h5.251V.417h-11.341v22.622zm-171.538 30h11.341v-5.43h-5.25v-3.45h4.71v-5.13h-4.71v-3.3h5.25v-5.31H1.59v22.618zm12.75 0h5.821v-5.76q0-1.35-.09-3.135t-.27-4.155q.6 2.16 1.56 4.74l3.06 8.311h5.851V30.417h-5.851v5.76q0 1.35.195 3.435t.375 4.455q-.15-.54-.33-1.2t-.405-1.367q-.225-.7-.45-1.425t-.465-1.35l-3.18-8.311H14.34v22.625zm33.72 0V35.848h3.451v-5.43H38.49v5.43h3.45v17.191h6.12zm19.2-22.622h-6.12V45a4.834 4.834 0 01-.33 2.115 1.239 1.239 0 01-1.2.615 1.308 1.308 0 01-1.23-.615A4.476 4.476 0 0158.02 45V30.417H51.9v15.122a9.429 9.429 0 00.57 3.42 6.9 6.9 0 001.576 2.46 6.558 6.558 0 002.43 1.5 9.245 9.245 0 003.135.51 9.116 9.116 0 003.12-.51 6.575 6.575 0 002.416-1.5 6.735 6.735 0 001.56-2.46 9.658 9.658 0 00.555-3.42V30.417zm22.169 22.2l.36-6.541a4.732 4.732 0 01-3.18 1.47 3.212 3.212 0 01-2.88-1.545 7.887 7.887 0 01-.99-4.275 8.293 8.293 0 011.02-4.44 3.3 3.3 0 012.97-1.62 4.109 4.109 0 012.79 1.35v-6.451a11.933 11.933 0 00-1.515-.42 7.558 7.558 0 00-1.515-.15 9.7 9.7 0 00-4.125.855 9.064 9.064 0 00-3.151 2.4 10.919 10.919 0 00-2.01 3.705 15.311 15.311 0 00-.7 4.77 16.156 16.156 0 00.69 4.92 11.141 11.141 0 001.92 3.675 8.241 8.241 0 002.926 2.31 8.686 8.686 0 003.735.8 10.063 10.063 0 003.656-.813zm17.76.42L102 30.417h-7.261l-5.22 22.622h6.3l.51-2.88h4.051l.51 2.88h6.3zm-7.53-7.711h-2.611l.931-6.091q.09-.57.165-1.35t.225-2.07l.24 2.07q.09.78.18 1.35zm7.589.06v7.081a12.513 12.513 0 004.59.96 7.3 7.3 0 002.895-.57 6.5 6.5 0 002.281-1.605 7.668 7.668 0 001.485-2.43 8.453 8.453 0 00.54-3.075 6.691 6.691 0 00-.84-3.405 9.8 9.8 0 00-2.76-2.865l-.991-.72a2.414 2.414 0 01-1.23-1.8 1.25 1.25 0 01.465-.975 1.7 1.7 0 011.155-.405 3.22 3.22 0 011.876.675 6.752 6.752 0 011.7 1.815v-6.9a9.343 9.343 0 00-4.381-1.17 6.333 6.333 0 00-2.7.585 6.928 6.928 0 00-2.19 1.59 7.35 7.35 0 00-1.455 2.355 7.96 7.96 0 00-.525 2.91 6.642 6.642 0 00.855 3.375 10.856 10.856 0 002.835 3.015l.99.78a2.376 2.376 0 011.08 1.77 1.321 1.321 0 01-.5 1.05 1.9 1.9 0 01-1.275.42q-2.069 0-3.899-2.46zm29.221 7.651l-5.191-22.622h-7.26L118.8 53.039h6.3l.51-2.88h4.05l.51 2.88h6.3zm-7.531-7.711h-2.61l.93-6.091q.09-.57.165-1.35t.225-2.07l.24 2.07q.09.78.18 1.35zm7.559 4.62a3.285 3.285 0 00.27 1.335 3.495 3.495 0 001.816 1.815 3.435 3.435 0 002.67 0 3.5 3.5 0 001.815-1.815 3.436 3.436 0 000-2.67 3.5 3.5 0 00-1.815-1.815 3.435 3.435 0 00-2.67 0 3.5 3.5 0 00-1.816 1.815 3.285 3.285 0 00-.267 1.336z" fill-rule="evenodd"/></svg><svg width="105.58" height="28.7" viewBox="-1 -1 209.16 55.41" xmlns="http://www.w3.org/2000/svg"><path data-name="AHORA EQUIPATE EN LA NUESTRA." d="M17.656 23.031L12.462.409h-7.26L-.019 23.031h6.3l.51-2.88h4.05l.51 2.88h6.3zm-7.531-7.711h-2.61l.93-6.09q.09-.57.165-1.35t.225-2.07l.24 2.07q.09.78.18 1.35zm23.191 7.711V.409h-6.091V8.42h-2.94V.409h-6.091v22.622h6.091V13.94h2.94v9.091h6.091zM51.945 11.72a17.385 17.385 0 00-.615-4.77 11.47 11.47 0 00-1.755-3.706 8.2 8.2 0 00-2.73-2.4 7.665 7.665 0 00-7.036 0 8.253 8.253 0 00-2.715 2.4 11.47 11.47 0 00-1.755 3.706 18.81 18.81 0 000 9.541 11.465 11.465 0 001.755 3.7 8.094 8.094 0 002.715 2.385 7.787 7.787 0 007.036 0 8.046 8.046 0 002.73-2.385 11.465 11.465 0 001.755-3.7 17.4 17.4 0 00.615-4.771zm-6.33 0a12.857 12.857 0 01-.6 4.456 1.686 1.686 0 01-3.361 0 16.9 16.9 0 010-8.926q.6-1.56 1.681-1.56t1.68 1.56a12.981 12.981 0 01.6 4.47zm23.82 11.311l-4.56-9.391a5.685 5.685 0 003.45-5.67 9.14 9.14 0 00-.5-3.075 5.828 5.828 0 00-1.575-2.386A7.472 7.472 0 0063.445.964a13.783 13.783 0 00-4.186-.555h-5.91v22.622h6.09v-9.269l3.391 9.271h6.6zM59.444 10.79V5.42h.42a2.353 2.353 0 011.83.69 2.831 2.831 0 01.631 1.98 2.889 2.889 0 01-.631 2 2.326 2.326 0 01-1.83.705h-.42zm27.061 12.241L81.314.409h-7.26l-5.221 22.622h6.3l.51-2.88h4.05l.51 2.88h6.3zm-7.531-7.711h-2.612l.93-6.09q.09-.57.165-1.35t.225-2.07l.24 2.07q.09.78.18 1.35zm15.9 7.711h11.341v-5.43h-5.253V14.15h4.71V9.02h-4.71v-3.3h5.25V.409H94.873v22.622zm29.4-11.311a17.385 17.385 0 00-.615-4.77 11.451 11.451 0 00-1.756-3.706 8.2 8.2 0 00-2.73-2.4 7.663 7.663 0 00-7.035 0 8.247 8.247 0 00-2.716 2.4 11.47 11.47 0 00-1.755 3.706 18.81 18.81 0 000 9.541 11.465 11.465 0 001.755 3.7 8.088 8.088 0 002.716 2.385 7.372 7.372 0 003.525.84 7.773 7.773 0 001.89-.24l2.04 2.971 4.891-2.671-2.761-3.03a11.179 11.179 0 001.891-3.78 17.352 17.352 0 00.661-4.946zm-6.331 0a12.857 12.857 0 01-.6 4.456 1.686 1.686 0 01-3.36 0 16.9 16.9 0 010-8.926q.6-1.56 1.68-1.56t1.68 1.56a12.981 12.981 0 01.601 4.47zM141.253.409h-6.12V14.99a4.835 4.835 0 01-.33 2.116 1.241 1.241 0 01-1.2.615 1.308 1.308 0 01-1.23-.615 4.478 4.478 0 01-.36-2.116V.409h-6.12v15.122a9.427 9.427 0 00.57 3.42 6.9 6.9 0 001.575 2.46 6.558 6.558 0 002.43 1.5 9.245 9.245 0 003.135.51 9.118 9.118 0 003.121-.51 6.579 6.579 0 002.415-1.5 6.734 6.734 0 001.56-2.46 9.657 9.657 0 00.555-3.42V.409zm8.069 22.622V.409h-6.09v22.622h6.09zm8.07 0v-7.41h.96a10.634 10.634 0 003.6-.541 6.511 6.511 0 002.476-1.53 5.955 5.955 0 001.425-2.37 9.832 9.832 0 00.45-3.06 9.245 9.245 0 00-.51-3.135 5.905 5.905 0 00-1.621-2.431 7.825 7.825 0 00-2.82-1.575 13.181 13.181 0 00-4.14-.57h-5.91v22.622h6.091zm0-12.421V5.42h.57a2.006 2.006 0 011.725.795 3.03 3.03 0 01.585 1.845 2.6 2.6 0 01-.645 1.875 2.2 2.2 0 01-1.665.675h-.57zm26.07 12.421L178.271.409h-7.26l-5.221 22.622h6.3l.51-2.88h4.05l.51 2.88h6.3zm-7.531-7.711h-2.61l.93-6.09q.09-.57.165-1.35t.225-2.07l.24 2.07q.09.78.18 1.35zm16.05 7.711V5.84h3.45V.409h-13.019V5.84h3.45v17.191h6.121zm3.839 0h11.342v-5.43h-5.25V14.15h4.71V9.02h-4.71v-3.3h5.25V.409h-11.34v22.622zm-194.4 30h11.342v-5.43h-5.25V44.15h4.71v-5.13h-4.71v-3.3h5.25v-5.311H1.424v22.622zm12.75 0h5.821v-5.76q0-1.35-.09-3.136t-.27-4.155q.6 2.16 1.56 4.74l3.06 8.311h5.851V30.409h-5.851v5.761q0 1.35.195 3.435t.375 4.455q-.15-.54-.33-1.2t-.4-1.365q-.225-.7-.45-1.425t-.465-1.35l-3.18-8.311h-5.821v22.622zm36.421 0v-5.43H46V30.409h-6.09v22.622h10.681zm16.86 0l-5.19-22.622H55l-5.221 22.622h6.3l.51-2.88h4.05l.51 2.88h6.3zM59.92 45.32h-2.61l.93-6.09q.09-.57.165-1.35t.225-2.07l.24 2.07q.09.78.18 1.35zm15.9 7.711h5.821v-5.76q0-1.35-.09-3.136t-.27-4.155q.6 2.16 1.56 4.74l3.06 8.311h5.851V30.409h-5.851v5.761q0 1.35.195 3.435t.375 4.455q-.15-.54-.33-1.2t-.4-1.365q-.225-.7-.45-1.425t-.465-1.35l-3.18-8.311h-5.821v22.622zm33.272-22.622h-6.121V44.99a4.835 4.835 0 01-.33 2.116 1.239 1.239 0 01-1.2.615 1.308 1.308 0 01-1.23-.615 4.478 4.478 0 01-.36-2.116V30.409H93.73v15.122a9.427 9.427 0 00.57 3.42 6.9 6.9 0 001.575 2.46 6.554 6.554 0 002.431 1.5 9.245 9.245 0 003.135.51 9.116 9.116 0 003.12-.51 6.579 6.579 0 002.415-1.5 6.749 6.749 0 001.561-2.46 9.657 9.657 0 00.555-3.42V30.409zm1.978 22.622h11.341v-5.43h-5.249V44.15h4.71v-5.13h-4.71v-3.3h5.25v-5.311h-11.339v22.622zm12.27-7.651v7.082a12.513 12.513 0 004.59.96 7.3 7.3 0 002.9-.57 6.5 6.5 0 002.28-1.6 7.668 7.668 0 001.485-2.43 8.451 8.451 0 00.54-3.075 6.691 6.691 0 00-.84-3.406 9.8 9.8 0 00-2.76-2.865l-.99-.72a2.413 2.413 0 01-1.231-1.8 1.25 1.25 0 01.465-.975 1.7 1.7 0 011.156-.405 3.219 3.219 0 011.875.675 6.751 6.751 0 011.695 1.815v-6.9a9.343 9.343 0 00-4.38-1.17 6.334 6.334 0 00-2.7.585 6.928 6.928 0 00-2.19 1.59 7.35 7.35 0 00-1.455 2.355 7.968 7.968 0 00-.525 2.911 6.641 6.641 0 00.855 3.375 10.855 10.855 0 002.835 3.015l.99.78a2.377 2.377 0 011.08 1.771 1.321 1.321 0 01-.5 1.05 1.9 1.9 0 01-1.275.42q-2.067-.007-3.897-2.468zm20.97 7.651V35.84h3.452v-5.431h-13.02v5.431h3.451v17.191h6.12zm19.921 0l-4.561-9.391a5.685 5.685 0 003.451-5.67 9.14 9.14 0 00-.5-3.075 5.83 5.83 0 00-1.576-2.386 7.472 7.472 0 00-2.805-1.545 13.776 13.776 0 00-4.185-.555h-5.903v22.622h6.091v-9.269l3.39 9.271h6.6zM154.24 40.79v-5.37h.42a2.353 2.353 0 011.83.69 2.836 2.836 0 01.63 1.98 2.894 2.894 0 01-.63 2 2.326 2.326 0 01-1.83.705h-.42zm27.06 12.241l-5.19-22.622h-7.258l-5.22 22.622h6.3l.51-2.88h4.051l.51 2.88h6.3zm-7.53-7.711h-2.608l.931-6.09q.09-.57.165-1.35t.225-2.07l.24 2.07q.09.78.18 1.35zm7.559 4.621a3.284 3.284 0 00.27 1.335 3.5 3.5 0 001.815 1.815 3.435 3.435 0 002.67 0 3.5 3.5 0 001.815-1.815 3.435 3.435 0 000-2.67 3.5 3.5 0 00-1.815-1.815 3.435 3.435 0 00-2.67 0 3.5 3.5 0 00-1.815 1.815 3.284 3.284 0 00-.267 1.335z" fill-rule="evenodd"/></svg><svg width="88" height="12.41" viewBox="-1 -1 88 12.41" y="57.42" xmlns="http://www.w3.org/2000/svg"><g data-name="Layer 2"><g data-name="Layer 1" fill="#231f20"><path d="M6.76 8.02H5.49L1.4 2.48v5.54H0V.13h1.27l4.09 5.56V.13h1.4v7.89zM9.52 8H8.15V2.4h1.37zm.05-6.28H8.1V.13h1.47zm7.09 6.3h-1.69l-2.02-2.39-.74.68v1.71h-1.37V.13h1.37v4.48l2.41-2.21h1.83L13.9 4.73l2.76 3.29z"/><path d="M20.87 4.6a1.18 1.18 0 00-.35-.8 1.62 1.62 0 00-1.17-.39 1.56 1.56 0 00-1.16.45 1.35 1.35 0 00-.38.74zm1.35.29v.8h-4.44a1.35 1.35 0 00.41.85 2.13 2.13 0 001.37.46A4.34 4.34 0 0022 6.22v1.29a5.32 5.32 0 01-.74.36 5.09 5.09 0 01-1.7.28 3.3 3.3 0 01-2.38-.81 2.82 2.82 0 01-.76-2.13 2.89 2.89 0 01.77-2.12 2.89 2.89 0 012.14-.82A3 3 0 0121.5 3a2.46 2.46 0 01.72 1.89zM29.05.76h-4.66v2.95h4.21v.65h-4.21v3.66h-.69V.13h5.35v.63zm4.48 5.89V5h-.68q-3.09 0-3.09 1.44c0 .73.42 1.1 1.27 1.1a4.77 4.77 0 002.5-.89zM34.21 8h-.68v-.66a4.24 4.24 0 01-2.47.81c-1.29 0-1.93-.57-1.93-1.7A1.67 1.67 0 0129.85 5a3.7 3.7 0 011.78-.57h1.9V4.1a1 1 0 00-.59-1 2.41 2.41 0 00-1.19-.26 3.7 3.7 0 00-2.18.8V3a3.57 3.57 0 012.23-.72 3 3 0 011.69.43 1.67 1.67 0 01.72 1.47zm5.69-.4a3.24 3.24 0 01-1.9.55 2.75 2.75 0 01-2.12-.82 3 3 0 01-.72-2.12 3 3 0 01.75-2.12A2.7 2.7 0 0138 2.27a3.5 3.5 0 011.87.49v.7A3.18 3.18 0 0038 2.88a2.5 2.5 0 00-.9.12 2.14 2.14 0 00-.69.48 2.23 2.23 0 00-.42.74 2.87 2.87 0 00-.14 1 2.47 2.47 0 00.54 1.67 2.05 2.05 0 001.61.65 3.14 3.14 0 001.87-.63zm4.21.47a2.35 2.35 0 01-.63.08h-.34A1.62 1.62 0 0142 7.52a2.06 2.06 0 01-.39-1.29V2.94h-1.1V2.4h1.14V.74h.66V2.4h1.8v.54h-1.8v3.25c0 .77.3 1.2.91 1.31h.26a2.86 2.86 0 00.63-.08zm5.63-2.86a2.37 2.37 0 00-.55-1.67 2.41 2.41 0 00-3.31 0 2.45 2.45 0 00-.55 1.67 2.47 2.47 0 00.55 1.67 2.41 2.41 0 003.31 0 2.35 2.35 0 00.55-1.67zm.66 0a3 3 0 01-.74 2.12 2.79 2.79 0 01-2.13.82 2.76 2.76 0 01-2.13-.82 3 3 0 01-.73-2.12 3 3 0 01.76-2.12 2.72 2.72 0 012.1-.82 2.79 2.79 0 012.13.83 3 3 0 01.74 2.11zM53.93 3h-.25a1.49 1.49 0 00-1.11.36 1.84 1.84 0 00-.49 1.4V8h-.66V2.4h.66v.78a2.07 2.07 0 01.71-.67 1.84 1.84 0 01.9-.24h.24zm6.29-.6l-3 6.6a2.79 2.79 0 01-.65 1 1.77 1.77 0 01-1.31.38v-.6a1.12 1.12 0 00.91-.26 1.67 1.67 0 00.38-.52L57 8l-2.47-5.6h.79l2.07 4.78L59.5 2.4zm6.18 3.44a2.1 2.1 0 01-.81 1.73 3 3 0 01-1.9.58 4.42 4.42 0 01-2.48-.72v-.86a3.6 3.6 0 002.45.94 2.3 2.3 0 001.34-.4 1.39 1.39 0 00.64-1.2 1.31 1.31 0 00-.59-1.09 4.93 4.93 0 00-1.2-.55 9.92 9.92 0 01-1.74-.71 1.7 1.7 0 01-.88-1.51 1.78 1.78 0 01.82-1.54A2.8 2.8 0 0163.78 0 4 4 0 0166 .62v.79a3.54 3.54 0 00-2.3-.78 2.06 2.06 0 00-1.15.37A1.17 1.17 0 0062 2a1.21 1.21 0 00.64 1 6.27 6.27 0 001.25.52 7.69 7.69 0 011.7.74 1.79 1.79 0 01.81 1.58zm4.17 2.23a2.41 2.41 0 01-.63.08h-.35a1.64 1.64 0 01-1.1-.61 2.06 2.06 0 01-.39-1.29V2.94H67V2.4h1.1V.74h.66V2.4h1.81v.54h-1.81v3.25c0 .77.31 1.2.91 1.31h.27a2.86 2.86 0 00.63-.08zm5.62-2.86a2.41 2.41 0 00-.54-1.67A2.1 2.1 0 0074 2.88a2.06 2.06 0 00-1.65.66 2.4 2.4 0 00-.55 1.67 2.42 2.42 0 00.55 1.67 2.06 2.06 0 001.65.66 2.1 2.1 0 001.66-.66 2.4 2.4 0 00.53-1.67zm.66 0a3 3 0 01-.74 2.12 2.79 2.79 0 01-2.11.82 2.75 2.75 0 01-2.12-.82 3 3 0 01-.73-2.12 3 3 0 01.76-2.12A2.72 2.72 0 0174 2.27a2.76 2.76 0 012.12.83 2.92 2.92 0 01.73 2.11zM80.38 3h-.24a1.49 1.49 0 00-1.14.34 1.84 1.84 0 00-.5 1.4V8h-.66V2.4h.66v.78a2.2 2.2 0 01.72-.67 1.84 1.84 0 01.9-.24h.23zm4.99 1.84a1.94 1.94 0 00-.52-1.44 2 2 0 00-1.45-.54 1.93 1.93 0 00-1.4.58 2.23 2.23 0 00-.61 1.4zm.63 0v.58h-4.65A2.26 2.26 0 0082 7a2.12 2.12 0 001.57.57 3.39 3.39 0 002.17-.75v.7a3.69 3.69 0 01-2.17.66 2.79 2.79 0 01-2.13-.82 3 3 0 01-.72-2.12A2.93 2.93 0 0181.53 3a2.61 2.61 0 011.85-.73 2.55 2.55 0 011.91.73A2.49 2.49 0 0186 4.85z"/></g></g></svg></svg>