<svg width="258" height="69" xmlns="http://www.w3.org/2000/svg" xmlns:xlink="http://www.w3.org/1999/xlink"><svg width="79.77" height="12.67" viewBox="-1 -1 157.53 23.34" x="99" y="35.39" xmlns="http://www.w3.org/2000/svg"><path data-name="ConocE mรกs" d="M8.05 21.312a7.113 7.113 0 005.136-1.8 7.292 7.292 0 002.065-4.825h-2.137c-.216 2.521-1.752 4.729-4.992 4.729-3.576 0-5.9-2.832-5.9-7.033 0-4.032 2.112-7.08 5.88-7.08 2.712 0 4.416 1.464 4.824 3.6h2.113C14.583 5.735 12.158 3.43 8.15 3.43 3.038 3.43.013 7.343.013 12.383c-.005 5.205 3.164 8.929 8.037 8.929zm17.376.024c5.185 0 8.4-3.816 8.4-8.953s-3.216-8.953-8.4-8.953-8.4 3.817-8.4 8.953 3.215 8.949 8.399 8.949zm0-1.9c-4.032 0-6.192-3.024-6.192-7.057s2.16-7.08 6.192-7.08 6.193 3.048 6.193 7.08-2.162 7.057-6.194 7.057zm10.967 1.536h2.017V6.883h.048s.72 1.3 1.272 2.136l7.872 11.953h2.209V3.812h-2.017V17.95h-.044s-.672-1.32-1.248-2.209L38.673 3.812h-2.281v17.16zm24.385.36c5.184 0 8.4-3.816 8.4-8.953s-3.217-8.953-8.4-8.953-8.4 3.817-8.4 8.953 3.214 8.953 8.399 8.953zm0-1.9c-4.032 0-6.193-3.024-6.193-7.057s2.161-7.08 6.193-7.08 6.192 3.048 6.192 7.08-2.161 7.061-6.193 7.061zm18.36 1.872a7.113 7.113 0 005.136-1.8 7.3 7.3 0 002.064-4.825h-2.136c-.216 2.521-1.752 4.729-4.992 4.729-3.576 0-5.905-2.832-5.905-7.033 0-4.032 2.112-7.08 5.881-7.08 2.712 0 4.416 1.464 4.824 3.6h2.112c-.456-3.168-2.88-5.473-6.888-5.473-5.113 0-8.137 3.913-8.137 8.953-.001 5.213 3.167 8.937 8.04 8.937zm9.623-.336h12.409v-1.992H90.92v-6.025h9.049v-1.824H90.92V5.712h9.961v-1.9H88.76v17.16zm18.744 0h1.945V6.859h.048s.432 1.3.768 2.16l4.7 11.953h1.656l4.7-11.953c.312-.816.768-2.16.768-2.16h.06v14.113h2.064V3.812h-2.808l-5.52 14.258h-.048l-5.574-14.258h-2.76v17.16zm18.551 0h2.209l1.848-5.233h6.84l1.825 5.233h2.352l-6.338-17.156h-2.424zm6.721-12.745c.336-.984.792-2.424.792-2.424h.048s.432 1.464.768 2.424l1.968 5.76h-5.616zm-.027-5.325h1.656l1.968-2.9h-2.4zm16.464 18.41c3.7 0 6.313-1.8 6.313-5.016 0-3.865-3.049-4.681-6.385-5.353-2.568-.5-4.488-1.08-4.488-3.024 0-1.776 1.536-2.76 3.864-2.76 2.52 0 4.1 1.224 4.416 3.672h2.041c-.433-3.168-2.209-5.353-6.5-5.353-3.48 0-5.833 1.7-5.833 4.537 0 3.24 2.593 4.1 5.617 4.776 3.072.672 5.136 1.224 5.136 3.577 0 2.136-1.7 3.216-4.08 3.216-3.24 0-5.016-1.512-5.3-4.417h-2.113c.185 3.457 2.49 6.149 7.314 6.149z" fill="#fff" fill-rule="evenodd"/></svg><svg width="49.73" height="19.3" viewBox="-1 -1 49.73 19.3" y="49.19" xmlns="http://www.w3.org/2000/svg"><g data-name="Layer 2"><path d="M12.79 15.4C9 17.05 3.13 18.94.67 14.85c-1.38-2.27-.51-5.8 1.52-9A46.52 46.52 0 016.79 0c-.92 1.54-3.51 6.7-.12 9.28 1.32 1 3.65 1.09 6.54.31L47.73.16z" fill="#f47735" data-name="Layer 1"/></g></svg><svg width="214.45" height="16.83" viewBox="-1 -1 426.91 31.66" y="18.56" xmlns="http://www.w3.org/2000/svg"><path data-name="Ya ENTRENASTE EN TU CASA." d="M14.864 29.172V17.05L21.514.521h-8.018L12.09 4.776q-.417 1.216-.722 2.375t-.57 2.223q-.265-1.063-.589-2.223t-.741-2.375L8.062.521H.007L7.112 17.05v12.121h7.752zm27.7 0L35.99.522h-9.2l-6.612 28.65h7.98l.646-3.647h5.13l.646 3.647h7.98zm-9.538-9.765H29.72l1.178-7.714q.114-.721.209-1.71t.285-2.622q.19 1.635.3 2.622t.228 1.71zm20.14 9.765H67.53v-6.877h-6.65v-4.37h5.964v-6.5h-5.966V7.25h6.65V.525h-14.36v28.65zm16.15 0h7.372v-7.3q0-1.71-.114-3.971t-.342-5.263q.759 2.736 1.976 6l3.876 10.525h7.409V.513h-7.409v7.295q0 1.71.247 4.351t.474 5.643q-.189-.684-.417-1.52t-.513-1.729q-.285-.893-.57-1.805t-.589-1.71L76.688.513h-7.372v28.65zm32.793 0V7.399h4.37V.522H89.99v6.877h4.37v21.773h7.751zm25.232 0l-5.776-11.893q4.369-1.976 4.37-7.182a11.58 11.58 0 00-.627-3.895 7.386 7.386 0 00-2-3.021 9.466 9.466 0 00-3.553-1.957 17.476 17.476 0 00-5.3-.7h-7.486v28.65h7.714V17.431l4.294 11.741h8.367zm-12.654-15.5v-6.8h.532a2.984 2.984 0 012.318.874 3.593 3.593 0 01.8 2.508 3.665 3.665 0 01-.8 2.527 2.948 2.948 0 01-2.318.893h-.532zm13.718 15.5h14.363v-6.877h-6.649v-4.37h5.965v-6.5h-5.965V7.25h6.649V.525h-14.361v28.65zm16.15 0h7.372v-7.3q0-1.71-.114-3.971t-.342-5.263q.759 2.736 1.975 6l3.876 10.525h7.41V.513h-7.41v7.295q0 1.71.247 4.351t.475 5.643l-.418-1.52q-.229-.836-.513-1.729-.285-.893-.57-1.805t-.589-1.71L151.927.513h-7.372v28.65zm43.243 0L181.224.522h-9.2l-6.611 28.65h7.979l.646-3.647h5.13l.646 3.647h7.98zm-9.538-9.765h-3.306l1.178-7.714q.114-.721.209-1.71t.285-2.622q.191 1.635.3 2.622t.228 1.71zm9.615.076v8.967a15.834 15.834 0 005.813 1.216 9.225 9.225 0 003.667-.722 8.227 8.227 0 002.888-2.033 9.7 9.7 0 001.881-3.077 10.708 10.708 0 00.684-3.895 8.478 8.478 0 00-1.064-4.313 12.419 12.419 0 00-3.5-3.629l-1.254-.912a3.06 3.06 0 01-1.558-2.28 1.585 1.585 0 01.589-1.235 2.15 2.15 0 011.463-.513 4.079 4.079 0 012.375.855 8.556 8.556 0 012.147 2.3v-8.74a11.846 11.846 0 00-5.548-1.481 8.022 8.022 0 00-3.42.741 8.775 8.775 0 00-2.774 2.013 9.311 9.311 0 00-1.842 2.983 10.068 10.068 0 00-.665 3.686 8.412 8.412 0 001.083 4.275 13.745 13.745 0 003.59 3.819l1.254.988a3.008 3.008 0 011.368 2.242 1.674 1.674 0 01-.627 1.33 2.413 2.413 0 01-1.615.532q-2.616-.001-4.933-3.117zm26.561 9.689V7.399h4.369V.522h-16.489v6.877h4.37v21.773h7.752zm4.864 0h14.363v-6.877h-6.65v-4.37h5.966v-6.5h-5.966V7.25h6.65V.525h-14.361v28.65zm26.067 0h14.364v-6.877h-6.65v-4.37h5.966v-6.5h-5.966V7.25h6.65V.525h-14.362v28.65zm16.15 0h7.372v-7.3q0-1.71-.114-3.971t-.342-5.263q.76 2.736 1.976 6l3.876 10.525h7.409V.513h-7.409v7.295q0 1.71.247 4.351t.475 5.643q-.19-.684-.418-1.52t-.513-1.729q-.285-.893-.57-1.805t-.589-1.71L268.889.513h-7.372v28.65zm42.711 0V7.399h4.37V.522h-16.489v6.877h4.37v21.773h7.751zm24.32-28.65h-7.752v18.467a6.12 6.12 0 01-.418 2.679 1.571 1.571 0 01-1.52.779 1.657 1.657 0 01-1.558-.779 5.673 5.673 0 01-.456-2.679V.522h-7.75v19.151a11.953 11.953 0 00.722 4.332 8.752 8.752 0 002 3.115 8.3 8.3 0 003.078 1.9 11.7 11.7 0 003.971.646 11.541 11.541 0 003.952-.646 8.333 8.333 0 003.059-1.9 8.541 8.541 0 001.976-3.115 12.252 12.252 0 00.7-4.332V.522zm28.081 28.118l.456-8.283a5.994 5.994 0 01-4.028 1.862 4.069 4.069 0 01-3.647-1.957 9.99 9.99 0 01-1.254-5.415 10.5 10.5 0 011.292-5.624 4.176 4.176 0 013.761-2.052 5.2 5.2 0 013.534 1.71V.712a14.96 14.96 0 00-1.919-.532 9.542 9.542 0 00-1.919-.19 12.291 12.291 0 00-5.224 1.082 11.483 11.483 0 00-3.99 3.04 13.827 13.827 0 00-2.546 4.693 19.4 19.4 0 00-.893 6.042 20.449 20.449 0 00.874 6.232 14.117 14.117 0 002.432 4.655 10.431 10.431 0 003.7 2.925 10.989 10.989 0 004.73 1.007 12.743 12.743 0 004.643-1.026zm22.5.532L372.555.522h-9.2l-6.611 28.65h7.979l.646-3.647h5.13l.646 3.647h7.98zm-9.538-9.765h-3.306l1.178-7.714q.114-.721.209-1.71t.285-2.622q.191 1.635.3 2.622t.228 1.71zm9.615.076v8.967a15.834 15.834 0 005.813 1.216 9.225 9.225 0 003.667-.722 8.236 8.236 0 002.888-2.033 9.7 9.7 0 001.881-3.077 10.708 10.708 0 00.684-3.895 8.478 8.478 0 00-1.064-4.313 12.419 12.419 0 00-3.5-3.629l-1.254-.912a3.06 3.06 0 01-1.558-2.28 1.585 1.585 0 01.589-1.235 2.15 2.15 0 011.463-.513 4.079 4.079 0 012.375.855 8.556 8.556 0 012.147 2.3v-8.74a11.846 11.846 0 00-5.548-1.481 8.022 8.022 0 00-3.42.741 8.775 8.775 0 00-2.774 2.013 9.311 9.311 0 00-1.842 2.983 10.068 10.068 0 00-.665 3.686 8.412 8.412 0 001.083 4.275 13.73 13.73 0 003.59 3.819l1.254.988a3.008 3.008 0 011.368 2.242 1.674 1.674 0 01-.627 1.33 2.413 2.413 0 01-1.615.532q-2.62-.001-4.937-3.117zm37.01 9.689L409.642.522h-9.2l-6.612 28.65h7.98l.646-3.647h5.13l.646 3.647h7.979zm-9.537-9.765h-3.306l1.178-7.714q.114-.721.209-1.71t.285-2.622q.189 1.635.3 2.622t.228 1.71zm9.576 5.852a4.154 4.154 0 00.342 1.69 4.431 4.431 0 002.3 2.3 4.352 4.352 0 003.382 0 4.431 4.431 0 002.3-2.3 4.349 4.349 0 000-3.381 4.431 4.431 0 00-2.3-2.3 4.352 4.352 0 00-3.382 0 4.431 4.431 0 00-2.3 2.3 4.159 4.159 0 00-.344 1.691z" fill-rule="evenodd"/></svg><svg width="257.34" height="18.56" viewBox="-1 -1 512.69 35.13" xmlns="http://www.w3.org/2000/svg"><path data-name="AHORA EQUIPATE EN LA NUESTRA." d="M22.381 29.172L15.807.522h-9.2l-6.612 28.65h7.98l.646-3.647h5.13l.646 3.647h7.98zm-9.538-9.765H9.538l1.178-7.714q.114-.721.209-1.71t.285-2.622q.19 1.635.3 2.622t.228 1.71zm29.373 9.765V.522h-7.712v10.145H30.78V.522h-7.714v28.65h7.714V17.659h3.724v11.513h7.713zm23.6-14.325a22.034 22.034 0 00-.779-6.042 14.553 14.553 0 00-2.223-4.693 10.4 10.4 0 00-3.458-3.04 9.714 9.714 0 00-8.911 0 10.465 10.465 0 00-3.439 3.04 14.531 14.531 0 00-2.222 4.693 23.821 23.821 0 000 12.084 14.531 14.531 0 002.222 4.693 10.256 10.256 0 003.439 3.02 9.861 9.861 0 008.911 0 10.192 10.192 0 003.458-3.02 14.553 14.553 0 002.223-4.693 22.034 22.034 0 00.778-6.039zm-8.018 0a16.267 16.267 0 01-.76 5.643q-.761 1.956-2.128 1.957t-2.128-1.957a16.291 16.291 0 01-.76-5.643 16.458 16.458 0 01.76-5.662q.76-1.975 2.128-1.976t2.128 1.976a16.434 16.434 0 01.759 5.665zM87.97 29.172l-5.776-11.893q4.369-1.976 4.37-7.182a11.58 11.58 0 00-.627-3.895 7.386 7.386 0 00-2-3.021 9.466 9.466 0 00-3.553-1.957 17.476 17.476 0 00-5.3-.7h-7.485v28.65h7.713V17.431l4.294 11.741h8.36zm-12.654-15.5v-6.8h.532a2.984 2.984 0 012.318.874 3.593 3.593 0 01.8 2.508 3.665 3.665 0 01-.8 2.527 2.948 2.948 0 01-2.318.893h-.533zm34.275 15.5L103.018.522h-9.2l-6.612 28.65h7.98l.646-3.647h5.13l.646 3.647h7.979zm-9.537-9.765h-3.306l1.178-7.714q.114-.721.209-1.71t.285-2.622q.189 1.635.3 2.622t.228 1.71zm20.14 9.765h14.363v-6.877h-6.649v-4.37h5.965v-6.5h-5.965V7.25h6.649V.525h-14.364v28.65zm37.238-14.322a22.034 22.034 0 00-.779-6.042 14.512 14.512 0 00-2.223-4.693 10.4 10.4 0 00-3.458-3.04 9.714 9.714 0 00-8.911 0 10.462 10.462 0 00-3.438 3.04 14.512 14.512 0 00-2.223 4.693 23.821 23.821 0 000 12.084 14.512 14.512 0 002.223 4.693 10.253 10.253 0 003.438 3.02 9.332 9.332 0 004.465 1.064 9.821 9.821 0 002.394-.3l2.584 3.762 6.194-3.382-3.5-3.837a14.158 14.158 0 002.394-4.788 21.979 21.979 0 00.84-6.274zm-8.018 0a16.267 16.267 0 01-.76 5.643q-.759 1.957-2.129 1.957t-2.128-1.957a16.291 16.291 0 01-.76-5.643 16.458 16.458 0 01.76-5.662q.761-1.975 2.128-1.976t2.128 1.976a16.434 16.434 0 01.761 5.662zM178.939.525h-7.751v18.467a6.135 6.135 0 01-.418 2.679 1.572 1.572 0 01-1.52.779 1.657 1.657 0 01-1.558-.779 5.673 5.673 0 01-.456-2.679V.522h-7.752v19.151a11.953 11.953 0 00.722 4.332 8.725 8.725 0 002 3.115 8.3 8.3 0 003.078 1.9 11.7 11.7 0 003.971.646 11.541 11.541 0 003.952-.646 8.333 8.333 0 003.059-1.9 8.526 8.526 0 001.975-3.115 12.23 12.23 0 00.7-4.332V.522zm10.223 28.65V.525h-7.714v28.65h7.714zm10.221 0V19.79h1.216a13.5 13.5 0 004.56-.684 8.228 8.228 0 003.135-1.938 7.549 7.549 0 001.805-3 12.45 12.45 0 00.57-3.876 11.705 11.705 0 00-.646-3.971 7.5 7.5 0 00-2.052-3.078 9.929 9.929 0 00-3.572-2 16.708 16.708 0 00-5.244-.721h-7.485v28.65h7.713zm0-15.731V6.87h.722a2.541 2.541 0 012.185 1.007 3.838 3.838 0 01.741 2.337 3.3 3.3 0 01-.817 2.375 2.785 2.785 0 01-2.109.855h-.722zm33.022 15.731L225.831.525h-9.2l-6.611 28.65h7.979l.646-3.647h5.13l.646 3.647h7.98zm-9.538-9.765h-3.306l1.178-7.714q.114-.721.209-1.71t.285-2.622q.19 1.635.3 2.622t.228 1.71zm20.33 9.765V7.399h4.37V.522h-16.491v6.877h4.369v21.773h7.752zm4.864 0h14.364v-6.877h-6.65v-4.37h5.966v-6.5h-5.966V7.25h6.65V.525h-14.364v28.65zm26.068 0h14.363v-6.877h-6.649v-4.37h5.965v-6.5h-5.965V7.25h6.649V.525h-14.367v28.65zm16.15 0h7.371v-7.3q0-1.71-.114-3.971t-.342-5.263q.761 2.736 1.976 6l3.876 10.525h7.41V.516h-7.41v7.295q0 1.71.247 4.351t.475 5.643l-.418-1.52q-.229-.836-.513-1.729-.285-.893-.57-1.805t-.589-1.71L297.65.516h-7.371v28.65zm46.131 0v-6.877h-5.814V.522h-7.714v28.65h13.528zm21.355 0L351.191.525h-9.195l-6.612 28.65h7.98l.646-3.647h5.129l.646 3.647h7.98zm-9.537-9.765h-3.303l1.178-7.714q.114-.721.209-1.71t.285-2.622q.189 1.635.3 2.622t.228 1.71zm20.14 9.765h7.371v-7.3q0-1.71-.114-3.971t-.342-5.263q.76 2.736 1.976 6l3.876 10.525h7.41V.516h-7.41v7.295q0 1.71.247 4.351t.475 5.643l-.418-1.52q-.229-.836-.513-1.729-.285-.893-.57-1.805t-.589-1.71L375.739.516h-7.371v28.65zM410.509.525h-7.752v18.467a6.12 6.12 0 01-.418 2.679 1.571 1.571 0 01-1.52.779 1.657 1.657 0 01-1.558-.779 5.673 5.673 0 01-.456-2.679V.522h-7.752v19.151a11.953 11.953 0 00.722 4.332 8.752 8.752 0 002 3.115 8.3 8.3 0 003.078 1.9 11.705 11.705 0 003.971.646 11.541 11.541 0 003.952-.646 8.325 8.325 0 003.059-1.9 8.541 8.541 0 001.976-3.115 12.252 12.252 0 00.7-4.332V.522zm2.508 28.65h14.364v-6.877h-6.65v-4.37h5.966v-6.5h-5.966V7.25h6.65V.525h-14.364v28.65zm15.542-9.689v8.964a15.843 15.843 0 005.814 1.216 9.229 9.229 0 003.667-.722 8.236 8.236 0 002.888-2.033 9.7 9.7 0 001.881-3.077 10.708 10.708 0 00.684-3.895 8.478 8.478 0 00-1.064-4.313 12.432 12.432 0 00-3.5-3.629l-1.254-.912a3.057 3.057 0 01-1.558-2.28 1.582 1.582 0 01.589-1.235 2.148 2.148 0 011.463-.513 4.079 4.079 0 012.375.855 8.572 8.572 0 012.147 2.3v-8.74a11.846 11.846 0 00-5.548-1.481 8.022 8.022 0 00-3.42.741 8.763 8.763 0 00-2.774 2.013 9.331 9.331 0 00-1.843 2.983 10.089 10.089 0 00-.665 3.686 8.412 8.412 0 001.083 4.275 13.75 13.75 0 003.591 3.819l1.254.988a3.008 3.008 0 011.368 2.242 1.674 1.674 0 01-.627 1.33 2.413 2.413 0 01-1.615.532q-2.618-.001-4.936-3.117zm26.566 9.686V7.399h4.37V.522h-16.496v6.877h4.37v21.773h7.756zm25.231 0l-5.775-11.893q4.37-1.976 4.37-7.182a11.58 11.58 0 00-.627-3.895 7.386 7.386 0 00-2-3.021 9.474 9.474 0 00-3.553-1.957 17.476 17.476 0 00-5.3-.7h-7.486v28.65h7.714V17.431l4.294 11.741h8.359zm-12.653-15.5v-6.8h.532a2.984 2.984 0 012.318.874 3.593 3.593 0 01.8 2.508 3.665 3.665 0 01-.8 2.527 2.948 2.948 0 01-2.318.893h-.532zm34.275 15.5L495.404.522h-9.2l-6.612 28.65h7.98l.646-3.647h5.129l.646 3.647h7.98zm-9.538-9.765h-3.3l1.178-7.714q.114-.721.209-1.71t.285-2.622q.189 1.635.3 2.622t.227 1.71zm9.577 5.852a4.154 4.154 0 00.342 1.69 4.431 4.431 0 002.3 2.3 4.352 4.352 0 003.382 0 4.431 4.431 0 002.3-2.3 4.349 4.349 0 000-3.381 4.431 4.431 0 00-2.3-2.3 4.352 4.352 0 00-3.382 0 4.431 4.431 0 00-2.3 2.3 4.159 4.159 0 00-.347 1.691z" fill-rule="evenodd"/></svg><svg width="99" height="13.8" viewBox="-1 -1 99 13.8" y="35.39" xmlns="http://www.w3.org/2000/svg"><g data-name="Layer 2"><g data-name="Layer 1" fill="#231f20"><path d="M7.63 9.09H6.2L1.58 2.81v6.28H0V.15h1.44l4.61 6.3V.15h1.58v8.94zm3.11 0H9.2V2.72h1.54zM10.8 2H9.14V.15h1.66zm7.99 7.09h-1.9l-2.28-2.71-.84.77v1.94h-1.54V.15h1.54v5.07l2.72-2.51h2.06l-2.87 2.65 3.11 3.73z"/><path d="M23.54 5.21a1.35 1.35 0 00-.4-.91 1.82 1.82 0 00-1.31-.44 1.72 1.72 0 00-1.31.52 1.52 1.52 0 00-.43.83zm1.53.33v.91h-5a1.57 1.57 0 00.47 1 2.44 2.44 0 001.55.51 4.82 4.82 0 002.75-.87v1.42a6.85 6.85 0 01-.84.41 5.55 5.55 0 01-1.91.32 3.72 3.72 0 01-2.69-.92 3.19 3.19 0 01-.86-2.41 3.28 3.28 0 01.87-2.41 3.26 3.26 0 012.41-.93 3.39 3.39 0 012.46.87 2.78 2.78 0 01.79 2.1zM32.76.86h-5.25v3.35h4.75v.73h-4.75v4.15h-.78V.15h6.03v.71zm5.06 6.68V5.68h-.77c-2.33 0-3.49.54-3.49 1.63 0 .83.48 1.25 1.44 1.25a5.35 5.35 0 002.82-1.02zm.77 1.55h-.77v-.77a4.78 4.78 0 01-2.82.92c-1.45 0-2.17-.65-2.17-1.93a1.89 1.89 0 01.81-1.62 4.14 4.14 0 012-.64 7.29 7.29 0 01.75 0h1.4v-.4a1.17 1.17 0 00-.67-1.09 2.74 2.74 0 00-1.34-.3 4.19 4.19 0 00-2.46.91v-.8a4 4 0 012.52-.82 3.33 3.33 0 011.9.49 1.91 1.91 0 01.82 1.67zM45 8.62a3.74 3.74 0 01-2.12.62 3.08 3.08 0 01-2.38-.93 3.44 3.44 0 01-.82-2.4 3.49 3.49 0 01.84-2.41 3.07 3.07 0 012.36-.93 4 4 0 012.12.56v.79a3.63 3.63 0 00-2.1-.66 2.76 2.76 0 00-1.07.19 2.23 2.23 0 00-.77.54 2.31 2.31 0 00-.48.84 3.59 3.59 0 00-.16 1.07A2.87 2.87 0 0041 7.8a2.35 2.35 0 001.85.74A3.53 3.53 0 0045 7.83zm4.76.52a2.61 2.61 0 01-.72.1h-.38a1.83 1.83 0 01-1.24-.7A2.29 2.29 0 0147 7.06V3.33h-1.31v-.61H47V.84h.75v1.88h2v.61h-2V7c0 .86.34 1.36 1 1.48H49a3.12 3.12 0 00.72-.1zM56.1 5.9a2.72 2.72 0 00-.62-1.9 2.69 2.69 0 00-3.73 0 2.78 2.78 0 00-.62 1.89 2.82 2.82 0 00.62 1.9 2.72 2.72 0 003.73 0 2.72 2.72 0 00.62-1.89zm.74 0A3.37 3.37 0 0156 8.31a3.16 3.16 0 01-2.4.93 3.11 3.11 0 01-2.4-.93 3.44 3.44 0 01-.82-2.4 3.41 3.41 0 01.85-2.41 3.09 3.09 0 012.37-.93 3.16 3.16 0 012.4.94 3.37 3.37 0 01.84 2.4zm3.99-2.5h-.28a1.65 1.65 0 00-1.25.4 2.08 2.08 0 00-.56 1.6v3.69H58V2.72h.75v.89a2.33 2.33 0 01.8-.76 2 2 0 011-.28h.27zm7.09-.68l-3.38 7.5a3.21 3.21 0 01-.73 1.15 2 2 0 01-1.48.43v-.71a1.32 1.32 0 001-.3 2 2 0 00.42-.65L64.27 9l-2.76-6.28h.89l2.33 5.42 2.38-5.42zm6.97 3.89a2.35 2.35 0 01-.91 2 3.34 3.34 0 01-2.14.67A5.08 5.08 0 0169 8.42v-1a4.07 4.07 0 002.8 1.09 2.51 2.51 0 001.56-.46 1.57 1.57 0 00.72-1.36 1.45 1.45 0 00-.67-1.22 4.81 4.81 0 00-1.34-.63 11.46 11.46 0 01-2-.81 1.93 1.93 0 01-1-1.71A2 2 0 0170 .58 3.17 3.17 0 0172 0a4.4 4.4 0 012.51.7v.89a4 4 0 00-2.65-.88 2.33 2.33 0 00-1.31.4 1.32 1.32 0 00-.66 1.13 1.37 1.37 0 00.76 1.2 7.15 7.15 0 001.41.56 8.3 8.3 0 011.94.88 2 2 0 01.89 1.73zm4.71 2.53a2.61 2.61 0 01-.72.1h-.38a1.87 1.87 0 01-1.25-.7 2.35 2.35 0 01-.44-1.46V3.33h-1.28v-.61h1.28V.84h.75v1.88h2v.61h-2V7c0 .86.34 1.36 1 1.48h.29a3.12 3.12 0 00.72-.1zm6.34-3.24a2.72 2.72 0 00-.62-1.9 2.69 2.69 0 00-3.73 0A2.78 2.78 0 0081 5.9a2.82 2.82 0 00.62 1.9 2.72 2.72 0 003.73 0 2.72 2.72 0 00.59-1.9zm.74 0a3.42 3.42 0 01-.83 2.4 3.16 3.16 0 01-2.4.93 3.1 3.1 0 01-2.4-.93 3.44 3.44 0 01-.82-2.4 3.41 3.41 0 01.85-2.41 3.09 3.09 0 012.37-.93 3.14 3.14 0 012.4.94 3.42 3.42 0 01.83 2.41zm3.99-2.5h-.28a1.66 1.66 0 00-1.25.4 2.12 2.12 0 00-.56 1.6v3.69h-.75V2.72h.75v.89a2.33 2.33 0 01.8-.76 2 2 0 011-.28h.27zm5.62 2.08a2.21 2.21 0 00-.59-1.63 2.38 2.38 0 00-3.24 0 2.58 2.58 0 00-.69 1.58zm.71 0v.66h-5.25a2.57 2.57 0 00.71 1.74 2.37 2.37 0 001.77.64 3.85 3.85 0 002.45-.84v.79a4.16 4.16 0 01-2.45.75 3.11 3.11 0 01-2.4-.93A3.44 3.44 0 0191 5.91a3.34 3.34 0 011-2.51 3 3 0 012-.83 2.89 2.89 0 012.16.81A2.84 2.84 0 0197 5.5z"/></g></g></svg></svg>