<svg width="117" height="34" xmlns="http://www.w3.org/2000/svg" xmlns:xlink="http://www.w3.org/1999/xlink"><svg width="31.77" height="6.09" viewBox="-1 -1 61.53 10.19" x="38" y="18.05" xmlns="http://www.w3.org/2000/svg"><path data-name="ConocE mรกs" d="M3.073 8.167a2.722 2.722 0 001.966-.689 2.8 2.8 0 00.791-1.847h-.818A1.822 1.822 0 013.1 7.441C1.731 7.441.839 6.357.839 4.748c0-1.544.809-2.711 2.252-2.711a1.713 1.713 0 011.847 1.379h.809a2.436 2.436 0 00-2.638-2.1 3.44 3.44 0 00-.036 6.851zm6.652.009a3.435 3.435 0 10-3.216-3.428 3.161 3.161 0 003.216 3.428zm0-.726c-1.543 0-2.371-1.158-2.371-2.7s.828-2.711 2.371-2.711 2.371 1.167 2.371 2.711-.827 2.7-2.371 2.7zm4.2.588h.772V2.644h.019s.275.5.487.818l3.014 4.577h.846V1.468h-.772V6.88h-.019s-.257-.505-.478-.846l-2.995-4.567h-.874v6.571zm9.337.138a3.435 3.435 0 10-3.217-3.428 3.16 3.16 0 003.216 3.428zm0-.726c-1.544 0-2.371-1.158-2.371-2.7s.827-2.711 2.371-2.711 2.371 1.167 2.371 2.711-.828 2.7-2.372 2.7zm7.029.717a2.726 2.726 0 001.967-.689 2.8 2.8 0 00.79-1.847h-.818a1.821 1.821 0 01-1.911 1.81c-1.37 0-2.261-1.084-2.261-2.693 0-1.544.809-2.711 2.252-2.711a1.714 1.714 0 011.846 1.379h.808a2.434 2.434 0 00-2.637-2.1 3.44 3.44 0 00-.037 6.851zm3.685-.129h4.751v-.762h-3.924V4.969h3.464v-.7h-3.464V2.194h3.814v-.726h-4.641v6.571zm7.176 0h.745v-5.4h.018s.165.5.294.827l1.8 4.577h.634l1.8-4.577c.12-.312.295-.827.295-.827h.018v5.4h.79v-6.57h-1.075l-2.115 5.458h-.018l-2.132-5.459h-1.05v6.571zm7.1 0h.846l.707-2h2.619l.7 2h.9l-2.426-6.571h-.928zm2.573-4.88c.129-.377.3-.928.3-.928h.019s.165.561.294.928l.753 2.206h-2.15zm-.009-2.04h.64L52.21.006h-.919zm6.3 7.049c1.415 0 2.417-.689 2.417-1.921 0-1.48-1.168-1.792-2.445-2.049-.983-.193-1.718-.413-1.718-1.158 0-.68.588-1.057 1.479-1.057a1.514 1.514 0 011.691 1.406h.781a2.189 2.189 0 00-2.49-2.049c-1.333 0-2.233.652-2.233 1.737 0 1.241.992 1.572 2.15 1.829 1.176.257 1.967.469 1.967 1.369a1.316 1.316 0 01-1.559 1.231 1.77 1.77 0 01-2.031-1.691h-.808c.075 1.324.957 2.353 2.805 2.353z" fill="#fff" fill-rule="evenodd"/></svg><svg width="19.71" height="8.62" viewBox="-1 -1 19.71 8.62" y="24.56" xmlns="http://www.w3.org/2000/svg"><g data-name="Layer 2"><path d="M4.75 5.89c-1.4.63-3.59 1.35-4.5-.21-.51-.87-.19-2.22.56-3.45A17.16 17.16 0 012.52 0c-.34.59-1.3 2.56 0 3.55a2.9 2.9 0 002.42.12L17.71.06z" fill="#f47735" data-name="Layer 1"/></g></svg><svg width="97.05" height="8.64" viewBox="-1 -1 192.09 15.28" y="9.41" xmlns="http://www.w3.org/2000/svg"><path data-name="Ya ENTRENASTE EN TU CASA." d="M6.644 13.07V7.65L9.619.25H6.032l-.629 1.9q-.187.544-.323 1.063t-.255.994q-.12-.476-.264-.994T4.23 2.151l-.629-1.9h-3.6l3.179 7.4v5.419h3.468zm12.393 0L16.096.25h-4.114L9.025 13.07h3.57l.289-1.632h2.3l.289 1.632h3.57zM14.77 8.701h-1.479l.527-3.451q.051-.323.093-.765t.128-1.173l.136 1.173q.052.442.1.765zm9.009 4.369h6.426V9.993H27.23V8.038h2.669V5.131H27.23v-1.87h2.975V.25h-6.426v12.82zm7.225 0h3.3V9.806q0-.765-.051-1.776T34.1 5.675q.34 1.224.884 2.686l1.734 4.709h3.315V.25h-3.315v3.264q0 .765.111 1.947t.212 2.525l-.187-.68a19.393 19.393 0 00-.229-.774l-.255-.807a13.016 13.016 0 00-.264-.765l-1.8-4.709h-3.3V13.07zm14.671 0V3.329h1.955V.25h-7.378v3.077h1.955v9.743h3.468zm11.288 0l-2.584-5.32a3.222 3.222 0 001.955-3.213 5.18 5.18 0 00-.28-1.742 3.305 3.305 0 00-.893-1.352 4.237 4.237 0 00-1.589-.875A7.812 7.812 0 0051.2.253h-3.349V13.07h3.451V7.817l1.923 5.253h3.74zm-5.661-6.936V3.091h.238a1.334 1.334 0 011.037.391 1.607 1.607 0 01.357 1.122 1.64 1.64 0 01-.357 1.131 1.319 1.319 0 01-1.037.4h-.238zm6.137 6.936h6.426V9.993H60.89V8.038h2.669V5.131H60.89v-1.87h2.975V.25h-6.426v12.82zm7.225 0h3.3V9.806q0-.765-.051-1.776t-.153-2.355q.341 1.224.884 2.686l1.734 4.709h3.315V.25h-3.315v3.264q0 .765.11 1.947t.213 2.525q-.086-.306-.187-.68t-.23-.774l-.255-.807a13.033 13.033 0 00-.263-.765l-1.8-4.709h-3.3V13.07zm19.346 0L81.069.25h-4.114l-2.958 12.82h3.57l.289-1.632h2.3l.289 1.632h3.57zm-4.267-4.369h-1.479l.527-3.451q.051-.323.093-.765t.128-1.173l.136 1.173q.052.442.1.765zm4.3.034v4.015a7.09 7.09 0 002.6.544 4.13 4.13 0 001.64-.323 3.679 3.679 0 001.292-.909 4.347 4.347 0 00.842-1.377 4.789 4.789 0 00.306-1.742 3.794 3.794 0 00-.476-1.929 5.568 5.568 0 00-1.564-1.623l-.561-.408a1.367 1.367 0 01-.7-1.02.71.71 0 01.263-.553.962.962 0 01.655-.23 1.824 1.824 0 011.062.383 3.839 3.839 0 01.961 1.029V.682a5.3 5.3 0 00-2.482-.663 3.589 3.589 0 00-1.53.331 3.923 3.923 0 00-1.241.9 4.167 4.167 0 00-.825 1.334 4.517 4.517 0 00-.3 1.649 3.763 3.763 0 00.484 1.913 6.154 6.154 0 001.607 1.709l.561.442a1.346 1.346 0 01.612 1 .749.749 0 01-.281.595 1.078 1.078 0 01-.722.238 2.848 2.848 0 01-2.202-1.395zm11.882 4.335V3.329h1.955V.25h-7.378v3.077h1.955v9.743h3.468zm2.176 0h6.424V9.993h-2.975V8.038h2.675V5.131h-2.669v-1.87h2.969V.25h-6.426v12.82zm11.662 0h6.426V9.993h-2.974V8.038h2.669V5.131h-2.669v-1.87h2.975V.25h-6.426v12.82zm7.225 0h3.3V9.806q0-.765-.051-1.776t-.153-2.355q.34 1.224.884 2.686l1.734 4.709h3.315V.25h-3.315v3.264q0 .765.111 1.947t.212 2.525q-.086-.306-.187-.68t-.229-.774l-.255-.807q-.128-.407-.264-.765l-1.8-4.709h-3.3V13.07zm19.108 0V3.329h1.955V.25h-7.378v3.077h1.952v9.743h3.468zM146.977.25h-3.468v8.262a2.748 2.748 0 01-.187 1.2.7.7 0 01-.68.349.741.741 0 01-.7-.349 2.536 2.536 0 01-.2-1.2V.25h-3.468v8.57a5.328 5.328 0 00.323 1.938 3.912 3.912 0 00.892 1.394 3.721 3.721 0 001.377.85 5.244 5.244 0 001.777.289 5.167 5.167 0 001.768-.289 3.725 3.725 0 001.368-.85 3.8 3.8 0 00.884-1.394 5.464 5.464 0 00.315-1.938V.25zm12.563 12.58l.2-3.706a2.684 2.684 0 01-1.8.833 1.82 1.82 0 01-1.632-.875 4.469 4.469 0 01-.561-2.422 4.693 4.693 0 01.578-2.516 1.868 1.868 0 011.683-.918 2.33 2.33 0 011.581.765V.337a6.774 6.774 0 00-.859-.238 4.283 4.283 0 00-.858-.085 5.494 5.494 0 00-2.338.484 5.135 5.135 0 00-1.785 1.36 6.181 6.181 0 00-1.139 2.1 8.686 8.686 0 00-.4 2.7 9.144 9.144 0 00.391 2.788 6.294 6.294 0 001.088 2.083 4.668 4.668 0 001.657 1.309 4.921 4.921 0 002.117.45 5.7 5.7 0 002.077-.456zm10.063.238L166.662.25h-4.114l-2.958 12.82h3.57l.289-1.632h2.3l.289 1.632h3.57zm-4.267-4.369h-1.479l.527-3.451c.034-.215.066-.47.094-.765s.071-.686.127-1.173l.136 1.173q.051.442.1.765zm4.3.034v4.017a7.09 7.09 0 002.6.544 4.132 4.132 0 001.641-.323 3.688 3.688 0 001.292-.909 4.344 4.344 0 00.841-1.377 4.789 4.789 0 00.306-1.742 3.784 3.784 0 00-.476-1.929 5.542 5.542 0 00-1.564-1.623l-.561-.408a1.37 1.37 0 01-.7-1.02.708.708 0 01.264-.553.961.961 0 01.654-.23 1.824 1.824 0 011.063.383 3.82 3.82 0 01.96 1.029V.682a5.292 5.292 0 00-2.482-.663 3.589 3.589 0 00-1.53.331 3.934 3.934 0 00-1.241.9 4.164 4.164 0 00-.824 1.334 4.517 4.517 0 00-.3 1.649 3.764 3.764 0 00.485 1.913 6.149 6.149 0 001.606 1.709l.561.442a1.346 1.346 0 01.612 1 .748.748 0 01-.28.595 1.079 1.079 0 01-.723.238 2.85 2.85 0 01-2.203-1.395zm16.559 4.337L183.254.25h-4.114l-2.958 12.82h3.57l.289-1.632h2.3l.284 1.632h3.57zm-4.27-4.369h-1.479l.527-3.451q.051-.323.094-.765t.127-1.173q.086.731.136 1.173t.1.765zm4.284 2.618a1.861 1.861 0 00.153.756 1.985 1.985 0 001.029 1.029 1.947 1.947 0 001.513 0 1.979 1.979 0 001.028-1.029 1.947 1.947 0 000-1.513 1.979 1.979 0 00-1.028-1.029 1.947 1.947 0 00-1.513 0 1.985 1.985 0 00-1.029 1.029 1.861 1.861 0 00-.15.757z" fill-rule="evenodd"/></svg><svg width="116.23" height="9.41" viewBox="-1 -1 230.47 16.81" xmlns="http://www.w3.org/2000/svg"><path data-name="AHORA EQUIPATE EN LA NUESTRA." d="M10.02 13.042L7.079.224H2.965L.007 13.042h3.57l.289-1.632h2.3l.289 1.632h3.57zM5.753 8.673H4.274l.527-3.451q.051-.323.094-.765t.127-1.173q.086.731.136 1.173t.1.765zm13.141 4.369V.224h-3.451v4.539h-1.666V.224h-3.451v12.818h3.451V7.891h1.666v5.151h3.451zm10.557-6.411a9.865 9.865 0 00-.348-2.7 6.5 6.5 0 00-1-2.1 4.649 4.649 0 00-1.547-1.36 4.341 4.341 0 00-3.986 0 4.683 4.683 0 00-1.539 1.36 6.482 6.482 0 00-.994 2.1 10.642 10.642 0 000 5.406 6.483 6.483 0 00.994 2.1 4.591 4.591 0 001.539 1.352 4.41 4.41 0 003.986 0 4.559 4.559 0 001.547-1.352 6.5 6.5 0 001-2.1 9.865 9.865 0 00.348-2.706zm-3.587 0a7.272 7.272 0 01-.34 2.525.955.955 0 01-1.9 0 7.272 7.272 0 01-.34-2.525 7.347 7.347 0 01.34-2.533.955.955 0 011.9 0 7.347 7.347 0 01.34 2.533zm13.5 6.409L36.78 7.719a3.222 3.222 0 001.955-3.213 5.18 5.18 0 00-.28-1.743 3.305 3.305 0 00-.893-1.352 4.237 4.237 0 00-1.589-.876 7.815 7.815 0 00-2.372-.314h-3.349v12.821h3.451V7.789l1.921 5.253h3.74zm-5.661-6.936V3.063h.238a1.334 1.334 0 011.037.391 1.607 1.607 0 01.357 1.122 1.64 1.64 0 01-.357 1.13 1.319 1.319 0 01-1.037.4h-.238zm15.334 6.936L46.094.224H41.98l-2.958 12.818h3.57l.289-1.632h2.3l.289 1.632h3.57zM44.77 8.671h-1.476l.527-3.451q.051-.323.093-.765t.128-1.173l.136 1.173q.052.442.1.765zm9.01 4.369h6.426V9.965h-2.975V8.01h2.663V5.103h-2.669V3.231H60.2V.224h-6.426v12.818zm16.66-6.409a9.826 9.826 0 00-.346-2.7 6.5 6.5 0 00-1-2.1 4.659 4.659 0 00-1.547-1.36 4.343 4.343 0 00-3.987 0 4.669 4.669 0 00-1.538 1.36 6.484 6.484 0 00-.995 2.1 10.671 10.671 0 000 5.406 6.484 6.484 0 00.995 2.1 4.578 4.578 0 001.538 1.352 4.178 4.178 0 002 .476 4.407 4.407 0 001.071-.136l1.156 1.683 2.771-1.513-1.564-1.719a6.357 6.357 0 001.071-2.142 9.838 9.838 0 00.373-2.807zm-3.587 0a7.3 7.3 0 01-.34 2.525.955.955 0 01-1.9 0 7.272 7.272 0 01-.34-2.525 7.347 7.347 0 01.34-2.533.955.955 0 011.9 0 7.372 7.372 0 01.338 2.533zM80.061.222h-3.467v8.262a2.733 2.733 0 01-.187 1.2.7.7 0 01-.68.349.742.742 0 01-.7-.349 2.536 2.536 0 01-.2-1.2V.224h-3.468v8.568a5.349 5.349 0 00.323 1.938 3.914 3.914 0 00.893 1.394 3.721 3.721 0 001.377.85 5.234 5.234 0 001.776.289 5.162 5.162 0 001.768-.289 3.729 3.729 0 001.369-.85 3.816 3.816 0 00.884-1.394 5.465 5.465 0 00.314-1.938V.224zm4.573 12.818V.224h-3.451v12.818h3.451zm4.573 0v-4.2h.544a6.036 6.036 0 002.04-.306 3.688 3.688 0 001.4-.867 3.378 3.378 0 00.807-1.343 5.572 5.572 0 00.255-1.734 5.232 5.232 0 00-.289-1.777 3.34 3.34 0 00-.918-1.377 4.433 4.433 0 00-1.6-.892A7.47 7.47 0 0089.1.221h-3.346v12.821h3.451zm0-7.038V3.063h.323a1.137 1.137 0 01.978.451 1.717 1.717 0 01.331 1.046 1.478 1.478 0 01-.365 1.063 1.247 1.247 0 01-.944.383h-.323zm14.773 7.038L101.039.222h-4.114L93.967 13.04h3.57l.289-1.632h2.295l.289 1.632h3.57zm-4.267-4.369h-1.479l.527-3.451q.051-.323.094-.765t.127-1.173l.136 1.173q.051.442.1.765zm9.095 4.369V3.301h1.955V.224h-7.378v3.077h1.955v9.741h3.468zm2.176 0h6.426V9.965h-2.975V8.01h2.669V5.103h-2.669V3.231h2.975V.224h-6.426v12.818zm11.662 0h6.426V9.965h-2.978V8.01h2.669V5.103h-2.669V3.231h2.975V.224h-6.425v12.818zm7.225 0h3.3V9.778q0-.765-.051-1.776t-.153-2.355q.339 1.224.884 2.686l1.734 4.709h3.309V.224h-3.315v3.264q0 .765.11 1.947t.213 2.525q-.086-.306-.187-.68t-.23-.773l-.255-.807q-.128-.407-.263-.765l-1.8-4.709h-3.3v12.816zm20.638 0V9.965h-2.6V.224h-3.451v12.818h6.052zm9.553 0L157.121.222h-4.114l-2.958 12.818h3.57l.289-1.632h2.3l.289 1.632h3.57zm-4.268-4.367h-1.48l.527-3.451c.034-.215.066-.47.094-.765s.071-.686.127-1.173l.136 1.173q.051.442.1.765zm9.01 4.369h3.3V9.778q0-.765-.051-1.776t-.159-2.355q.34 1.224.884 2.686l1.734 4.709h3.315V.224h-3.315v3.264q0 .765.111 1.947t.212 2.525l-.187-.68a18.882 18.882 0 00-.229-.773l-.255-.807a13.016 13.016 0 00-.264-.765L168.1.226h-3.3v12.816zM183.657.224h-3.468v8.262a2.733 2.733 0 01-.187 1.2.7.7 0 01-.68.349.742.742 0 01-.7-.349 2.536 2.536 0 01-.2-1.2V.224h-3.468v8.568a5.349 5.349 0 00.323 1.938 3.9 3.9 0 00.893 1.394 3.7 3.7 0 001.377.85 5.234 5.234 0 001.776.289 5.162 5.162 0 001.771-.289 3.729 3.729 0 001.369-.85 3.829 3.829 0 00.884-1.394 5.487 5.487 0 00.314-1.938V.224zm1.122 12.818h6.426V9.965h-2.975V8.01h2.664V5.103h-2.669V3.231h2.975V.224h-6.426v12.818zm6.953-4.335v4.012a7.09 7.09 0 002.6.544 4.139 4.139 0 001.641-.323 3.688 3.688 0 001.292-.909 4.344 4.344 0 00.841-1.377 4.789 4.789 0 00.306-1.743 3.794 3.794 0 00-.476-1.93 5.555 5.555 0 00-1.564-1.623l-.561-.408a1.367 1.367 0 01-.7-1.02.708.708 0 01.264-.553.958.958 0 01.654-.23 1.826 1.826 0 011.065.384 3.82 3.82 0 01.96 1.029V.65a5.3 5.3 0 00-2.482-.663 3.589 3.589 0 00-1.53.332 3.923 3.923 0 00-1.241.9 4.164 4.164 0 00-.824 1.335 4.5 4.5 0 00-.3 1.649 3.763 3.763 0 00.485 1.913 6.149 6.149 0 001.606 1.709l.561.442a1.346 1.346 0 01.612 1 .748.748 0 01-.28.595 1.079 1.079 0 01-.723.238 2.848 2.848 0 01-2.207-1.393zm11.883 4.335V3.301h1.955V.224h-7.376v3.077h1.955v9.741h3.468zm11.288 0l-2.584-5.321a3.222 3.222 0 001.955-3.213 5.18 5.18 0 00-.281-1.743 3.3 3.3 0 00-.892-1.352 4.234 4.234 0 00-1.59-.876 7.808 7.808 0 00-2.371-.314h-3.346v12.819h3.451V7.789l1.921 5.253h3.74zm-5.661-6.936V3.063h.238a1.334 1.334 0 011.037.391 1.607 1.607 0 01.357 1.122 1.64 1.64 0 01-.357 1.13 1.319 1.319 0 01-1.037.4h-.238zm15.333 6.936L221.634.224h-4.114l-2.958 12.818h3.57l.289-1.632h2.295l.289 1.632h3.57zm-4.267-4.369h-1.479l.527-3.451c.034-.215.066-.47.094-.765s.071-.686.127-1.173l.136 1.173q.051.442.1.765zm4.286 2.618a1.861 1.861 0 00.153.757 1.985 1.985 0 001.029 1.029 1.947 1.947 0 001.513 0 1.979 1.979 0 001.028-1.029 1.947 1.947 0 000-1.513 1.979 1.979 0 00-1.028-1.029 1.947 1.947 0 00-1.513 0 1.985 1.985 0 00-1.032 1.025 1.861 1.861 0 00-.15.76z" fill-rule="evenodd"/></svg><svg width="38" height="6.51" viewBox="-1 -1 38 6.51" y="18.05" xmlns="http://www.w3.org/2000/svg"><g data-name="Layer 2"><g data-name="Layer 1" fill="#231f20"><path d="M2.83 3.48H2.3L.59 1.08v2.4H0V.06h.53l1.71 2.4V.06h.59v3.42zm1.17 0h-.59V1H4zM4 .75h-.61V.06H4zm2.97 2.73h-.7l-.85-1.04-.31.29v.75h-.57V.06h.57V2l1.01-.96h.76L5.82 2.05l1.15 1.43z"/><path d="M8.74 2a.51.51 0 00-.15-.34.64.64 0 00-.49-.17.66.66 0 00-.49.19.63.63 0 00-.15.32zm.56.13v.35H7.44a.67.67 0 00.17.36.89.89 0 00.58.2 1.73 1.73 0 001-.34v.57l-.31.15a2 2 0 01-.71.12 1.38 1.38 0 01-1-.35 1.25 1.25 0 01-.32-.92 1.25 1.25 0 01.33-.92A1.17 1.17 0 018.09 1a1.22 1.22 0 01.91.31 1.09 1.09 0 01.3.81zm2.86-1.8h-1.95v1.28h1.76v.28h-1.76v1.59h-.29V.06h2.24v.27zM14 2.88v-.71h-.29c-.86 0-1.29.21-1.29.62s.17.48.53.48A2 2 0 0014 2.88zm.28.6H14v-.3a1.78 1.78 0 01-1 .35c-.54 0-.81-.24-.81-.74a.7.7 0 01.31-.61 1.44 1.44 0 01.74-.25H14v-.15a.46.46 0 00-.25-.42 1 1 0 00-.5-.11 1.52 1.52 0 00-.91.34v-.3a1.44 1.44 0 01.97-.29 1.27 1.27 0 01.71.19.75.75 0 01.3.64zm2.42-.19a1.33 1.33 0 01-.78.24 1.17 1.17 0 01-.92-.35 1.38 1.38 0 01-.3-.92 1.35 1.35 0 01.3-.92 1.13 1.13 0 01.92-.34 1.35 1.35 0 01.78.22v.3a1.27 1.27 0 00-.78-.25 1 1 0 00-.39.07.86.86 0 00-.29.21.75.75 0 00-.17.32 1.31 1.31 0 00-.06.41 1.09 1.09 0 00.22.72.85.85 0 00.69.29A1.27 1.27 0 0016.7 3zm1.77.21a1.12 1.12 0 01-.27 0h-.14a.69.69 0 01-.46-.26.93.93 0 01-.17-.56v-1.4H17V1h.47V.32h.28V1h.76v.24h-.76v1.4c0 .33.13.52.38.57h.11a.88.88 0 00.27 0zm2.35-1.24a1.1 1.1 0 00-.23-.73 1 1 0 00-1.38 0 1 1 0 00-.23.73 1 1 0 00.23.72 1 1 0 001.38 0 1.05 1.05 0 00.23-.72zm.28 0a1.36 1.36 0 01-.31.92 1.32 1.32 0 01-1.79 0 1.38 1.38 0 01-.3-.92 1.32 1.32 0 01.3-.92 1.1 1.1 0 01.9-.34 1.15 1.15 0 01.89.36 1.36 1.36 0 01.31.9zm1.47-.96h-.1a.57.57 0 00-.46.16.79.79 0 00-.21.61v1.41h-.28V1h.28v.34a.92.92 0 01.3-.29.76.76 0 01.38-.05h.09zm2.64-.3L24 3.91a1.19 1.19 0 01-.27.44.75.75 0 01-.55.16v-.27a.47.47 0 00.38-.11.72.72 0 00.16-.25l.18-.43L22.83 1h.33L24 3.11 24.91 1zm2.59 1.53a1 1 0 01-.34.75 1.22 1.22 0 01-.8.25 1.82 1.82 0 01-1-.31v-.37a1.48 1.48 0 001 .4 1 1 0 00.58-.17.62.62 0 00.26-.52.57.57 0 00-.24-.47 2.61 2.61 0 00-.5-.24 4.58 4.58 0 01-.76-.31.75.75 0 01-.36-.65.79.79 0 01.36-.67 1.15 1.15 0 01.7-.22 1.59 1.59 0 01.93.27v.34a1.43 1.43 0 00-1-.34.8.8 0 00-.49.16.5.5 0 00-.24.43.52.52 0 00.28.46 2.93 2.93 0 00.52.22 3.22 3.22 0 01.72.32.81.81 0 01.38.67zm1.74.97a1 1 0 01-.26 0h-.15a.71.71 0 01-.46-.26.93.93 0 01-.16-.56v-1.4H28V1h.48V.32h.27V1h.76v.24h-.76v1.4q0 .49.39.57h.11a.82.82 0 00.26 0zm2.36-1.24a1.1 1.1 0 00-.23-.73.88.88 0 00-.7-.28.85.85 0 00-.69.28 1.1 1.1 0 00-.23.73 1.09 1.09 0 00.23.72.85.85 0 00.69.29.89.89 0 00.7-.29 1.05 1.05 0 00.23-.72zm.27 0a1.31 1.31 0 01-.31.92 1.17 1.17 0 01-.89.35 1.15 1.15 0 01-.89-.35 1.38 1.38 0 01-.3-.92 1.31 1.31 0 01.31-.92A1.13 1.13 0 0131 1a1.15 1.15 0 01.89.36 1.31 1.31 0 01.28.9zm1.48-.96h-.1a.59.59 0 00-.47.16.79.79 0 00-.21.61v1.41h-.27V1h.27v.34a.92.92 0 01.3-.29.79.79 0 01.38-.05h.1zm2.09.8a.91.91 0 00-.22-.63.82.82 0 00-.61-.23.75.75 0 00-.59.25 1 1 0 00-.26.61zm.26 0v.25h-1.95a1 1 0 00.26.67.86.86 0 00.66.25 1.38 1.38 0 00.91-.33v.31a1.51 1.51 0 01-.91.28 1.17 1.17 0 01-.89-.35 1.38 1.38 0 01-.3-.92 1.26 1.26 0 01.35-1 1.14 1.14 0 011.57 0 1.09 1.09 0 01.3.84z"/></g></g></svg></svg>