<svg width="92" height="88" xmlns="http://www.w3.org/2000/svg" xmlns:xlink="http://www.w3.org/1999/xlink"><svg width="63.52" height="10.45" viewBox="-1 -1 125.03 18.91" y="61.63" xmlns="http://www.w3.org/2000/svg"><path data-name="ConocE mรกs" d="M6.366 16.873a5.623 5.623 0 004.065-1.423 5.767 5.767 0 001.633-3.817h-1.69a3.764 3.764 0 01-3.949 3.741c-2.83 0-4.672-2.24-4.672-5.564 0-3.19 1.671-5.6 4.653-5.6a3.538 3.538 0 013.816 2.848h1.671c-.36-2.507-2.278-4.33-5.449-4.33-4.045 0-6.438 3.1-6.438 7.083-.002 4.119 2.505 7.062 6.36 7.062zm13.747.019c4.1 0 6.646-3.019 6.646-7.083s-2.545-7.083-6.646-7.083-6.647 3.02-6.647 7.083 2.545 7.083 6.647 7.083zm0-1.5c-3.191 0-4.9-2.392-4.9-5.583s1.709-5.6 4.9-5.6 4.9 2.411 4.9 5.6-1.71 5.583-4.9 5.583zm8.677 1.216h1.595V5.461h.038s.569 1.025 1.006 1.69l6.229 9.457h1.747V3.03h-1.6v11.185h-.034s-.531-1.044-.987-1.747l-6.19-9.438h-1.8v13.578zm19.291.284c4.1 0 6.647-3.019 6.647-7.083s-2.545-7.083-6.647-7.083-6.646 3.02-6.646 7.083 2.545 7.083 6.646 7.083zm0-1.5c-3.19 0-4.9-2.392-4.9-5.583s1.709-5.6 4.9-5.6 4.9 2.411 4.9 5.6-1.709 5.583-4.9 5.583zm14.526 1.481a5.627 5.627 0 004.064-1.424 5.772 5.772 0 001.633-3.817h-1.69a3.764 3.764 0 01-3.95 3.741c-2.829 0-4.671-2.24-4.671-5.564 0-3.19 1.671-5.6 4.652-5.6a3.539 3.539 0 013.817 2.848h1.669c-.361-2.507-2.279-4.33-5.45-4.33-4.045 0-6.437 3.1-6.437 7.083.002 4.12 2.508 7.063 6.363 7.063zm7.614-.265h9.817v-1.577h-8.107v-4.766h7.159V8.822h-7.159V4.53h7.88v-1.5h-9.59v13.578zm14.829 0h1.538V5.442h.043s.342 1.025.608 1.709l3.721 9.457h1.311l3.722-9.457c.246-.646.607-1.709.607-1.709h.031v11.166h1.633V3.03h-2.221l-4.368 11.28h-.038l-4.4-11.28h-2.184v13.578zm14.677 0h1.747l1.462-4.14h5.412l1.443 4.14h1.861L106.639 3.03h-1.918zm5.317-10.084c.266-.778.627-1.918.627-1.918h.038s.341 1.159.607 1.918l1.557 4.558h-4.442zm-.019-4.215h1.31l1.557-2.3h-1.9zm13.025 14.564c2.925 0 5-1.424 5-3.968 0-3.058-2.412-3.7-5.052-4.235-2.031-.4-3.551-.854-3.551-2.393 0-1.405 1.216-2.183 3.058-2.183a3.129 3.129 0 013.494 2.9h1.614c-.342-2.507-1.747-4.235-5.146-4.235-2.754 0-4.615 1.349-4.615 3.589 0 2.564 2.051 3.248 4.444 3.779 2.43.532 4.064.969 4.064 2.83 0 1.69-1.349 2.544-3.229 2.544-2.563 0-3.968-1.2-4.2-3.494h-1.671c.151 2.743 1.971 4.866 5.79 4.866z" fill="#fff" fill-rule="evenodd"/></svg><svg width="39.39" height="15.74" viewBox="-1 -1 39.39 15.74" y="72.08" xmlns="http://www.w3.org/2000/svg"><g data-name="Layer 2"><path d="M10 12.23C7.07 13.54 2.45 15 .52 11.79-.55 10 .13 7.19 1.71 4.63A37.28 37.28 0 015.32 0c-.72 1.22-2.75 5.32-.09 7.37 1 .78 2.85.86 5.12.25l27-7.5z" fill="#f47735" data-name="Layer 1"/></g></svg><svg width="81.84" height="25.13" viewBox="-1 -1 161.69 48.25" y="25.13" xmlns="http://www.w3.org/2000/svg"><path data-name="Ya ENTRENASTE EN TU CASA." d="M10.141 19.935v-8.286l4.545-11.3h-5.48l-.961 2.909q-.287.831-.494 1.624t-.389 1.519q-.183-.727-.4-1.519t-.506-1.624L5.495.349h-5.51l4.857 11.3v8.286h5.3zm18.935 0L24.582.35h-6.286l-4.521 19.585h5.454l.442-2.494h3.507l.441 2.494h5.456zm-6.52-6.676h-2.26l.806-5.273q.078-.494.143-1.168t.194-1.793l.208 1.793q.078.676.156 1.168zm13.766 6.676h9.818v-4.7h-4.545v-2.987h4.08V7.807h-4.08V4.949h4.545v-4.6h-9.818v19.585zm11.039 0H52.4v-4.987q0-1.17-.078-2.715t-.234-3.6q.519 1.87 1.351 4.1l2.649 7.2h5.065V.35h-5.065v4.987q0 1.168.169 2.974t.325 3.857q-.13-.466-.286-1.039t-.351-1.181q-.195-.611-.389-1.234t-.4-1.169L52.403.35h-5.039v19.585zm22.415 0V5.051h2.987v-4.7H61.49v4.7h2.985v14.884h5.3zm17.247 0l-3.948-8.13a4.924 4.924 0 002.987-4.909 7.908 7.908 0 00-.429-2.663 5.051 5.051 0 00-1.364-2.065A6.469 6.469 0 0081.841.831 11.911 11.911 0 0078.217.35H73.1v19.585h5.275v-8.026l2.935 8.026h5.715zm-8.65-10.6V4.686h.364a2.037 2.037 0 011.584.6A2.453 2.453 0 0180.867 7a2.505 2.505 0 01-.546 1.728 2.013 2.013 0 01-1.584.61h-.362zm9.376 10.6h9.819v-4.7h-4.546v-2.987H97.1V7.807h-4.078V4.949h4.546v-4.6h-9.819v19.585zm11.039 0h5.039v-4.987q0-1.17-.078-2.715t-.234-3.6q.52 1.87 1.351 4.1l2.649 7.2h5.065V.35h-5.065v4.987q0 1.168.169 2.974t.325 3.857q-.13-.466-.286-1.039t-.348-1.181q-.195-.611-.39-1.234t-.4-1.169L103.832.35h-5.039v19.585zm29.558 0L123.853.35h-6.286l-4.52 19.585h5.455l.442-2.494h3.506l.442 2.494h5.454zm-6.519-6.676h-2.26l.8-5.273q.078-.494.143-1.168t.2-1.793l.208 1.793q.079.676.156 1.168zm6.571.052v6.13a10.836 10.836 0 003.977.828 6.321 6.321 0 002.507-.493 5.634 5.634 0 001.974-1.39 6.62 6.62 0 001.285-2.1 7.307 7.307 0 00.468-2.662 5.8 5.8 0 00-.727-2.948 8.5 8.5 0 00-2.39-2.481l-.857-.623a2.091 2.091 0 01-1.065-1.559 1.083 1.083 0 01.4-.844 1.468 1.468 0 011-.35 2.786 2.786 0 011.624.584 5.841 5.841 0 011.466 1.566V.999a8.09 8.09 0 00-3.792-1.013 5.483 5.483 0 00-2.338.507 6 6 0 00-1.9 1.377 6.372 6.372 0 00-1.259 2.038 6.9 6.9 0 00-.455 2.52 5.754 5.754 0 00.74 2.922 9.422 9.422 0 002.455 2.611l.864.675a2.057 2.057 0 01.935 1.532 1.147 1.147 0 01-.428.91 1.65 1.65 0 01-1.1.363q-1.799 0-3.384-2.13zm18.155 6.624V5.051h2.988v-4.7h-11.273v4.7h2.987v14.884h5.3zm3.325 0h9.818v-4.7h-4.546v-2.987h4.078V7.807h-4.078V4.949h4.546v-4.6h-9.821v19.585zM1.362 45.909h9.818v-4.7H6.634v-2.987h4.078V33.78H6.634v-2.857h4.546v-4.6H1.362v19.586zm11.038 0h5.039v-4.988q0-1.168-.078-2.714t-.233-3.6q.519 1.869 1.35 4.1l2.65 7.195h5.065V26.324h-5.065v4.987q0 1.168.169 2.974t.324 3.857c-.086-.312-.182-.658-.285-1.039s-.221-.775-.351-1.182-.26-.818-.39-1.233-.264-.806-.4-1.169l-2.754-7.2h-5.039v19.59zm29.2 0V31.025h2.987v-4.7H33.309v4.7h2.987v14.884h5.3zm16.623-19.585h-5.3v12.623a4.179 4.179 0 01-.286 1.832 1.072 1.072 0 01-1.039.532 1.133 1.133 0 01-1.065-.532 3.89 3.89 0 01-.311-1.832V26.324h-5.3v13.091a8.163 8.163 0 00.493 2.961 5.983 5.983 0 001.364 2.13 5.7 5.7 0 002.1 1.3 8.014 8.014 0 002.714.441 7.907 7.907 0 002.7-.441 5.709 5.709 0 002.091-1.3 5.835 5.835 0 001.35-2.13 8.346 8.346 0 00.481-2.961V26.324zm19.194 19.221l.312-5.663a4.1 4.1 0 01-2.753 1.273 2.783 2.783 0 01-2.494-1.337 6.834 6.834 0 01-.857-3.7 7.175 7.175 0 01.883-3.844 2.856 2.856 0 012.572-1.4 3.559 3.559 0 012.415 1.169v-5.584a10.338 10.338 0 00-1.312-.364 6.506 6.506 0 00-1.311-.13 8.4 8.4 0 00-3.572.74 7.855 7.855 0 00-2.727 2.078 9.459 9.459 0 00-1.74 3.208 13.255 13.255 0 00-.611 4.13 13.966 13.966 0 00.6 4.26 9.642 9.642 0 001.662 3.182 7.143 7.143 0 002.533 2 7.515 7.515 0 003.233.688 8.721 8.721 0 003.162-.706zm15.377.364L88.3 26.324h-6.286l-4.519 19.585h5.454l.442-2.494h3.506l.442 2.494h5.455zm-6.52-6.676h-2.26l.805-5.273q.078-.494.143-1.169t.195-1.792l.208 1.792q.078.674.156 1.169zm6.571.052v6.13a10.836 10.836 0 003.974.831 6.318 6.318 0 002.507-.493 5.646 5.646 0 001.974-1.39 6.652 6.652 0 001.286-2.1 7.332 7.332 0 00.467-2.662 5.787 5.787 0 00-.727-2.948 8.5 8.5 0 00-2.39-2.481l-.857-.623a2.091 2.091 0 01-1.065-1.559 1.08 1.08 0 01.4-.844 1.465 1.465 0 011-.351 2.785 2.785 0 011.623.585 5.844 5.844 0 011.468 1.571v-5.982a8.1 8.1 0 00-3.793-1.013 5.475 5.475 0 00-2.337.513 5.985 5.985 0 00-1.9 1.376 6.377 6.377 0 00-1.259 2.039 6.9 6.9 0 00-.455 2.52 5.754 5.754 0 00.74 2.922 9.406 9.406 0 002.455 2.61l.857.676a2.054 2.054 0 01.935 1.532 1.144 1.144 0 01-.428.909 1.645 1.645 0 01-1.1.364q-1.795-.002-3.38-2.132zm25.3 6.624l-4.494-19.585h-6.286l-4.519 19.585h5.454l.442-2.494h3.506l.442 2.494h5.455zm-6.52-6.676h-2.26l.8-5.273q.078-.494.143-1.169t.195-1.792q.131 1.118.208 1.792t.156 1.169zm6.545 4a2.84 2.84 0 00.234 1.156 3.024 3.024 0 001.571 1.571 2.972 2.972 0 002.312 0 3.031 3.031 0 001.572-1.571 2.984 2.984 0 000-2.312 3.031 3.031 0 00-1.572-1.571 2.972 2.972 0 00-2.312 0 3.024 3.024 0 00-1.571 1.571 2.844 2.844 0 00-.24 1.156z" fill-rule="evenodd"/></svg><svg width="91.69" height="25.13" viewBox="-1 -1 181.38 48.25" xmlns="http://www.w3.org/2000/svg"><path data-name="AHORA EQUIPATE EN LA NUESTRA." d="M15.314 19.939L10.821.354H4.535L.015 19.939H5.47l.441-2.494h3.507l.442 2.494h5.454zm-6.519-6.675h-2.26l.8-5.273q.078-.493.143-1.169t.195-1.792l.208 1.792q.079.676.155 1.169zm20.078 6.675V.354H23.6v6.935h-2.546V.354h-5.273v19.585h5.273v-7.87H23.6v7.87h5.273zm16.129-9.792a15.045 15.045 0 00-.533-4.13 9.927 9.927 0 00-1.519-3.208A7.093 7.093 0 0040.586.731a6.637 6.637 0 00-6.091 0 7.137 7.137 0 00-2.35 2.078 9.929 9.929 0 00-1.52 3.208 16.3 16.3 0 000 8.26 9.923 9.923 0 001.52 3.207 7.006 7.006 0 002.35 2.065 6.734 6.734 0 006.091 0 6.965 6.965 0 002.364-2.065 9.922 9.922 0 001.519-3.203A15.056 15.056 0 0045 10.147zm-5.481 0a11.135 11.135 0 01-.519 3.857 1.46 1.46 0 01-2.909 0 11.107 11.107 0 01-.52-3.857 11.227 11.227 0 01.52-3.871 1.459 1.459 0 012.909 0 11.255 11.255 0 01.519 3.871zm20.624 9.792l-3.949-8.13A4.922 4.922 0 0059.183 6.9a7.913 7.913 0 00-.428-2.663 5.051 5.051 0 00-1.364-2.065A6.469 6.469 0 0054.963.835a11.911 11.911 0 00-3.624-.481h-5.117v19.585H51.5v-8.026l2.935 8.026h5.715zM51.5 9.341V4.692h.364a2.039 2.039 0 011.584.6 2.456 2.456 0 01.546 1.715 2.5 2.5 0 01-.546 1.727 2.014 2.014 0 01-1.584.61H51.5zm23.428 10.6L70.435.356h-6.286l-4.52 19.585h5.455l.442-2.494h3.506l.442 2.494h5.454zm-6.519-6.675h-2.26l.805-5.273q.078-.493.143-1.169t.195-1.792l.208 1.792q.079.676.155 1.169zm13.765 6.675h9.819v-4.7h-4.546v-2.988h4.078V7.812h-4.078V4.955h4.546v-4.6h-9.819V19.94zm25.455-9.792a15.046 15.046 0 00-.532-4.13 9.929 9.929 0 00-1.52-3.208 7.093 7.093 0 00-2.364-2.078 6.637 6.637 0 00-6.091 0 7.137 7.137 0 00-2.35 2.078 9.929 9.929 0 00-1.52 3.208 16.3 16.3 0 000 8.26 9.923 9.923 0 001.52 3.207 7.006 7.006 0 002.35 2.065 6.385 6.385 0 003.052.728 6.759 6.759 0 001.637-.208l1.766 2.571 4.234-2.311-2.39-2.624a9.67 9.67 0 001.637-3.273 15.008 15.008 0 00.566-4.287zm-5.481 0a11.135 11.135 0 01-.519 3.857 1.46 1.46 0 01-2.909 0 11.131 11.131 0 01-.52-3.857 11.251 11.251 0 01.52-3.871 1.459 1.459 0 012.909 0 11.255 11.255 0 01.514 3.869zM122.33.356h-5.3v12.625a4.174 4.174 0 01-.286 1.831 1.072 1.072 0 01-1.039.532 1.133 1.133 0 01-1.065-.532 3.885 3.885 0 01-.311-1.831V.354h-5.3v13.091a8.159 8.159 0 00.493 2.961 5.965 5.965 0 001.364 2.13 5.67 5.67 0 002.1 1.3 8.014 8.014 0 002.714.445 7.907 7.907 0 002.7-.442 5.683 5.683 0 002.091-1.3 5.818 5.818 0 001.35-2.13 8.342 8.342 0 00.481-2.961V.354zm6.987 19.585V.354h-5.273v19.585h5.273zm6.986 0v-6.416h.831a9.242 9.242 0 003.117-.467 5.638 5.638 0 002.143-1.325 5.151 5.151 0 001.234-2.052 8.507 8.507 0 00.39-2.649 8.02 8.02 0 00-.442-2.715 5.119 5.119 0 00-1.4-2.1 6.767 6.767 0 00-2.441-1.363A11.413 11.413 0 00136.15.36h-5.117v19.585h5.267zm0-10.753V4.694h.494a1.735 1.735 0 011.493.688 2.623 2.623 0 01.507 1.6 2.252 2.252 0 01-.559 1.623 1.9 1.9 0 01-1.441.585h-.497zm22.572 10.753L154.381.356h-6.291l-4.519 19.585h5.454l.442-2.494h3.506l.442 2.494h5.455zm-6.52-6.675h-2.26l.8-5.273q.078-.493.143-1.169t.195-1.792q.131 1.116.208 1.792t.156 1.169zm13.9 6.675V5.056h2.987v-4.7H157.96v4.7h2.987v14.883h5.3zm3.324 0h9.819v-4.7h-4.546v-2.988h4.078V7.812h-4.078V4.955h4.546v-4.6h-9.828V19.94zM1.262 45.913h9.818v-4.7H6.535v-2.987h4.078v-4.445H6.535v-2.858h4.545v-4.6H1.262v19.585zm11.039 0h5.039v-4.987q0-1.17-.078-2.715t-.234-3.6q.52 1.87 1.351 4.1l2.649 7.195h5.065V26.328h-5.065v4.987q0 1.168.169 2.974t.325 3.857q-.13-.467-.286-1.039t-.351-1.181q-.194-.611-.389-1.234t-.4-1.169l-2.753-7.195H12.3v19.585zm31.532 0v-4.7h-3.974V26.328h-5.273v19.585h9.247zm14.6 0L53.94 26.328h-6.286l-4.52 19.585h5.455l.441-2.494h3.507l.441 2.494h5.455zm-6.519-6.676h-2.26l.805-5.273q.078-.494.143-1.168t.195-1.793l.207 1.793q.078.675.156 1.168zm13.765 6.676h5.039v-4.987q0-1.17-.078-2.715t-.233-3.6q.519 1.87 1.35 4.1l2.65 7.195h5.065V26.328H74.4v4.987q0 1.168.169 2.974t.324 3.857c-.086-.311-.182-.658-.285-1.039s-.221-.775-.351-1.181-.26-.819-.39-1.234-.264-.805-.4-1.169l-2.754-7.195h-5.039v19.585zm28.805-19.585h-5.3v12.624a4.192 4.192 0 01-.286 1.831 1.074 1.074 0 01-1.039.532 1.133 1.133 0 01-1.065-.532 3.873 3.873 0 01-.312-1.831V26.328h-5.3v13.091a8.158 8.158 0 00.494 2.961 5.965 5.965 0 001.364 2.13 5.675 5.675 0 002.1 1.3 8.01 8.01 0 002.714.441 7.9 7.9 0 002.7-.441 5.7 5.7 0 002.091-1.3 5.833 5.833 0 001.351-2.13 8.365 8.365 0 00.48-2.961V26.328zm1.714 19.585h9.819v-4.7h-4.546v-2.987h4.078v-4.445h-4.078v-2.858h4.546v-4.6H96.2v19.585zm10.623-6.624v6.13a10.84 10.84 0 003.974.831 6.318 6.318 0 002.507-.493 5.615 5.615 0 001.974-1.39 6.623 6.623 0 001.286-2.1 7.307 7.307 0 00.467-2.662 5.79 5.79 0 00-.727-2.948 8.483 8.483 0 00-2.39-2.481l-.857-.623a2.091 2.091 0 01-1.065-1.559 1.084 1.084 0 01.4-.844 1.466 1.466 0 011-.35 2.781 2.781 0 011.623.584 5.843 5.843 0 011.468 1.571v-5.974a8.1 8.1 0 00-3.792-1.013 5.477 5.477 0 00-2.338.507 5.992 5.992 0 00-1.9 1.376 6.373 6.373 0 00-1.26 2.039 6.9 6.9 0 00-.455 2.52 5.744 5.744 0 00.741 2.922 9.4 9.4 0 002.454 2.611l.857.675a2.056 2.056 0 01.936 1.532 1.142 1.142 0 01-.429.909 1.645 1.645 0 01-1.1.364q-1.795-.004-3.377-2.134zm18.156 6.624V31.029h2.987v-4.7h-11.276v4.7h2.987v14.884h5.3zm17.246 0l-3.948-8.13a4.922 4.922 0 002.987-4.909 7.908 7.908 0 00-.428-2.663 5.051 5.051 0 00-1.364-2.065 6.484 6.484 0 00-2.428-1.338 11.945 11.945 0 00-3.624-.48H128.3v19.585h5.273v-8.026l2.935 8.026h5.714zm-8.649-10.6v-4.649h.364a2.039 2.039 0 011.584.6 2.453 2.453 0 01.545 1.714 2.5 2.5 0 01-.545 1.728 2.014 2.014 0 01-1.584.61h-.364zm23.428 10.6l-4.493-19.585h-6.289l-4.52 19.585h5.455l.441-2.494h3.504l.442 2.494H157zm-6.519-6.676h-2.26l.8-5.273q.078-.494.143-1.168t.2-1.793l.208 1.793q.079.675.155 1.168zm6.545 4a2.84 2.84 0 00.234 1.156 3.031 3.031 0 001.571 1.572 2.984 2.984 0 002.312 0 3.031 3.031 0 001.571-1.572 2.972 2.972 0 000-2.312 3.024 3.024 0 00-1.571-1.571 2.972 2.972 0 00-2.312 0 3.024 3.024 0 00-1.571 1.571 2.844 2.844 0 00-.237 1.156z" fill-rule="evenodd"/></svg><svg width="78" height="11.37" viewBox="-1 -1 78 11.37" y="50.26" xmlns="http://www.w3.org/2000/svg"><g data-name="Layer 2"><g data-name="Layer 1" fill="#231f20"><path d="M5.98 7.22H4.85L1.24 2.23v4.99H0V.12h1.13l3.61 5v-5h1.24v7.1zm2.43 0H7.2V2.16h1.21zm.05-5.66h-1.3V.12h1.3zm6.27 5.66h-1.5l-1.79-2.15-.65.61v1.54H9.58V.12h1.21v4.03l2.13-1.99h1.62l-2.25 2.1 2.44 2.96z"/><path d="M18.45 4.14a1.09 1.09 0 00-.32-.72 1.59 1.59 0 00-2.06.06 1.29 1.29 0 00-.33.66zm1.19.26v.72h-3.9a1.32 1.32 0 00.36.77 2 2 0 001.22.4 3.63 3.63 0 002.15-.7v1.17a4.21 4.21 0 01-.65.32 4.22 4.22 0 01-1.5.25 2.92 2.92 0 01-2.11-.72 2.56 2.56 0 01-.67-1.92 2.64 2.64 0 01.68-1.91A2.56 2.56 0 0117.08 2a2.63 2.63 0 011.92.73 2.2 2.2 0 01.64 1.67zM25.67.68h-4.12v2.66h3.73v.58h-3.73v3.3h-.61V.12h4.73v.56zM29.63 6V4.51H29q-2.73 0-2.73 1.29c0 .67.37 1 1.12 1a4.15 4.15 0 002.24-.8zm.6 1.23h-.6v-.62a3.72 3.72 0 01-2.18.72q-1.71 0-1.71-1.53a1.52 1.52 0 01.64-1.28A3.23 3.23 0 0128 4a5.18 5.18 0 01.59 0h1.09v-.31a1 1 0 00-.52-.87 2.2 2.2 0 00-1.05-.23 3.29 3.29 0 00-1.93.72v-.63a3.06 3.06 0 012-.66 2.68 2.68 0 011.49.39 1.51 1.51 0 01.64 1.33zm5.03-.39a2.84 2.84 0 01-1.65.49 2.4 2.4 0 01-1.87-.73 2.76 2.76 0 01-.64-1.91 2.79 2.79 0 01.66-1.91A2.38 2.38 0 0133.61 2a3.11 3.11 0 011.65.44v.63a2.76 2.76 0 00-1.64-.52 2.12 2.12 0 00-.83.15 1.5 1.5 0 00-.61.43 1.64 1.64 0 00-.37.66 2.63 2.63 0 00-.13.86 2.21 2.21 0 00.48 1.5 1.79 1.79 0 001.45.59 2.7 2.7 0 001.65-.56zm3.74.42a1.84 1.84 0 01-.55.07h-.31a1.44 1.44 0 01-1-.56 1.85 1.85 0 01-.34-1.15v-3h-1v-.46h1V.67h.58v1.49H39v.49h-1.61v2.92c0 .69.27 1.08.8 1.18h.24a2.22 2.22 0 00.57-.06zm5-2.57a2.21 2.21 0 00-.48-1.51A1.85 1.85 0 0042 2.59a1.82 1.82 0 00-1.45.59 2.21 2.21 0 00-.49 1.51 2.17 2.17 0 00.49 1.5 1.79 1.79 0 001.45.59 1.82 1.82 0 001.47-.59 2.16 2.16 0 00.53-1.5zm.59 0a2.7 2.7 0 01-.66 1.91 2.79 2.79 0 01-3.76 0 2.76 2.76 0 01-.64-1.91 2.72 2.72 0 01.67-1.91A2.4 2.4 0 0142 2a2.43 2.43 0 011.88.75 2.68 2.68 0 01.66 1.94zm3.07-1.99h-.22a1.31 1.31 0 00-1 .32A1.69 1.69 0 0046 4.27v3h-.58V2.16H46v.71a1.75 1.75 0 01.63-.61 1.58 1.58 0 01.8-.22h.21zm5.56-.54l-2.65 5.95A2.47 2.47 0 0150 9a1.57 1.57 0 01-1.15.34V8.8a1 1 0 00.8-.23 1.5 1.5 0 00.35-.51l.39-.89-2.17-5h.7l1.83 4.3 1.86-4.3zm5.46 3.09A1.9 1.9 0 0158 6.81a2.61 2.61 0 01-1.68.52 3.89 3.89 0 01-2.2-.64v-.78a3.15 3.15 0 002.17.84 1.94 1.94 0 001.22-.36A1.25 1.25 0 0058 5.32a1.15 1.15 0 00-.52-1 4.22 4.22 0 00-1.06-.5 8.44 8.44 0 01-1.54-.64 1.52 1.52 0 01-.77-1.36 1.62 1.62 0 01.72-1.36A2.46 2.46 0 0156.36 0a3.56 3.56 0 012 .55v.71a3.15 3.15 0 00-2-.69 1.67 1.67 0 00-1 .32 1 1 0 00-.52.89 1.07 1.07 0 00.6 1 5 5 0 001.1.47 6.87 6.87 0 011.46.62 1.62 1.62 0 01.68 1.38zm3.68 2.01a1.88 1.88 0 01-.55.07h-.31a1.46 1.46 0 01-1-.56 1.85 1.85 0 01-.35-1.15v-3h-1v-.46h1V.67h.59v1.49h1.59v.49h-1.56v2.92c0 .69.27 1.08.8 1.18h.24a2.22 2.22 0 00.55-.08zm4.97-2.57a2.21 2.21 0 00-.48-1.51 1.85 1.85 0 00-1.47-.59 1.82 1.82 0 00-1.45.59 2.21 2.21 0 00-.49 1.51 2.17 2.17 0 00.49 1.5 1.79 1.79 0 001.45.59 1.82 1.82 0 001.47-.59 2.16 2.16 0 00.48-1.5zm.59 0a2.7 2.7 0 01-.66 1.91 2.79 2.79 0 01-3.76 0 2.76 2.76 0 01-.64-1.91 2.72 2.72 0 01.67-1.91A2.4 2.4 0 0165.38 2a2.43 2.43 0 011.88.75 2.68 2.68 0 01.66 1.94zM71 2.7h-.22a1.31 1.31 0 00-1 .32 1.69 1.69 0 00-.44 1.27v3h-.58V2.16h.58v.71a1.75 1.75 0 01.66-.61 1.58 1.58 0 01.8-.22h.2zm4.45 1.65A1.78 1.78 0 0075 3.06a1.7 1.7 0 00-1.28-.48 1.65 1.65 0 00-1.25.52 2 2 0 00-.55 1.25zm.55 0v.53h-4.11a2.07 2.07 0 00.55 1.39 1.85 1.85 0 001.39.5 3 3 0 001.92-.67v.64a3.27 3.27 0 01-1.92.58A2.43 2.43 0 0172 6.6a2.76 2.76 0 01-.64-1.91 2.65 2.65 0 01.74-2A2.27 2.27 0 0173.68 2a2.25 2.25 0 011.69.64A2.27 2.27 0 0176 4.36z"/></g></g></svg></svg>