<svg width="99" height="97" xmlns="http://www.w3.org/2000/svg" xmlns:xlink="http://www.w3.org/1999/xlink"><svg width="71.52" height="11.91" viewBox="-1 -1 141.03 21.81" y="66.64" xmlns="http://www.w3.org/2000/svg"><path data-name="ConocE mรกs" d="M7.453 19.78a6.617 6.617 0 004.771-1.67 6.8 6.8 0 001.917-4.48h-1.984a4.418 4.418 0 01-4.637 4.39c-3.321 0-5.483-2.63-5.483-6.53 0-3.75 1.961-6.58 5.461-6.58 2.519 0 4.1 1.36 4.48 3.35h1.962c-.424-2.95-2.675-5.09-6.4-5.09-4.748 0-7.557 3.64-7.557 8.32.003 4.84 2.945 8.29 7.47 8.29zm15.245.02c4.815 0 7.8-3.54 7.8-8.31s-2.987-8.32-7.8-8.32-7.8 3.55-7.8 8.32 2.986 8.31 7.8 8.31zm0-1.76c-3.745 0-5.751-2.81-5.751-6.55s2.006-6.58 5.751-6.58 5.751 2.83 5.751 6.58-2.006 6.55-5.751 6.55zm9.293 1.43h1.878V6.38h.044s.669 1.21 1.182 1.99l7.311 11.1h2.051V3.53h-1.878v13.13h-.044s-.624-1.23-1.159-2.05L34.109 3.53h-2.118v15.94zm21.754.33c4.815 0 7.8-3.54 7.8-8.31s-2.987-8.32-7.8-8.32-7.8 3.55-7.8 8.32 2.985 8.31 7.8 8.31zm0-1.76c-3.745 0-5.751-2.81-5.751-6.55S50 4.91 53.745 4.91s5.751 2.83 5.751 6.58-2.006 6.55-5.751 6.55zm16.159 1.74a6.616 6.616 0 004.77-1.67 6.789 6.789 0 001.917-4.48h-1.984a4.417 4.417 0 01-4.636 4.39c-3.322 0-5.484-2.63-5.484-6.53 0-3.75 1.962-6.58 5.461-6.58 2.519 0 4.1 1.36 4.481 3.35h1.961c-.423-2.95-2.675-5.09-6.4-5.09-4.748 0-7.557 3.64-7.557 8.32.003 4.84 2.946 8.29 7.471 8.29zm8.045-.31h11.52v-1.85h-9.518v-5.6h8.4v-1.69h-8.4V5.29h9.251V3.53H77.949v15.94zm18.276 0h1.805V6.36h.045s.4 1.21.713 2.01l4.369 11.1h1.538l4.369-11.1c.29-.76.713-2.01.713-2.01h.045v13.11h1.917V3.53h-2.608l-5.127 13.24h-.045L98.788 3.53h-2.563v15.94zm16.336 0h2.051l1.716-4.86h6.353l1.694 4.86h2.185l-5.885-15.94h-2.251zm6.241-11.84c.313-.91.736-2.25.736-2.25h.045s.4 1.36.713 2.25l1.828 5.35h-5.216zm-.022-4.95h1.538l1.828-2.69h-2.229zm14.4 17.1c3.433 0 5.863-1.67 5.863-4.66 0-3.59-2.831-4.35-5.93-4.97-2.385-.47-4.168-1-4.168-2.81 0-1.65 1.427-2.56 3.589-2.56 2.34 0 3.811 1.14 4.1 3.41h1.9c-.4-2.94-2.051-4.97-6.041-4.97-3.232 0-5.416 1.58-5.416 4.21 0 3.01 2.407 3.81 5.216 4.44 2.853.62 4.77 1.13 4.77 3.32 0 1.98-1.583 2.99-3.79 2.99-3.009 0-4.658-1.41-4.926-4.11h-1.961c.172 3.21 2.312 5.71 6.792 5.71z" fill="#fff" fill-rule="evenodd"/></svg><svg width="44.81" height="17.78" viewBox="-1 -1 44.81 17.78" y="78.55" xmlns="http://www.w3.org/2000/svg"><g data-name="Layer 2"><path d="M11.48 14C8.1 15.54 2.8 17.27.6 13.54-.63 11.47.15 8.25 2 5.32A42.21 42.21 0 016.09 0C5.26 1.4 2.94 6.11 6 8.46c1.19.9 3.27 1 5.87.28l31-8.6z" fill="#f47735" data-name="Layer 1"/></g></svg><svg width="88.09" height="26.94" viewBox="-1 -1 174.19 51.87" y="39.7" xmlns="http://www.w3.org/2000/svg"><path data-name="Ya ENTRENASTE EN TU CASA." d="M10.952 21.512v-8.933l4.9-12.18H9.943L8.907 3.535q-.307.9-.532 1.75t-.42 1.638q-.195-.784-.434-1.638t-.546-1.75L5.939.399H.006l5.236 12.18v8.933h5.712zm20.413 0L26.52.399h-6.776l-4.872 21.113h5.88l.476-2.688h3.78l.476 2.688h5.881zm-7.029-7.2H21.9l.868-5.685q.084-.531.154-1.26t.21-1.932l.224 1.932q.085.732.168 1.26zm14.84 7.2H49.76v-5.068h-4.9v-3.221h4.4V8.435h-4.4v-3.08h4.9V.399H39.176v21.113zm11.9 0h5.43v-5.38q0-1.26-.084-2.927t-.252-3.878q.56 2.016 1.456 4.425l2.856 7.756h5.46V.395h-5.46v5.376q0 1.26.182 3.206t.35 4.158q-.139-.5-.308-1.12t-.378-1.274q-.21-.657-.42-1.33t-.434-1.26L56.506.395h-5.433v21.117zm24.165 0V5.463h3.22V.395H66.306v5.068h3.22v16.049h5.713zm18.592 0l-4.256-8.765a5.306 5.306 0 003.22-5.292 8.532 8.532 0 00-.462-2.87 5.442 5.442 0 00-1.47-2.226A6.972 6.972 0 0088.247.917 12.845 12.845 0 0084.34.399h-5.516v21.113h5.682v-8.653l3.165 8.653h6.16zm-9.327-11.429V5.071h.392a2.2 2.2 0 011.709.644 2.646 2.646 0 01.588 1.848 2.7 2.7 0 01-.588 1.862 2.173 2.173 0 01-1.709.658h-.392zm10.109 11.429h10.584v-5.068h-4.9v-3.221h4.4V8.435h-4.4v-3.08h4.9V.399H94.615v21.113zm11.9 0h5.432v-5.38q0-1.26-.084-2.927t-.252-3.878q.56 2.016 1.456 4.425l2.856 7.756h5.46V.395h-5.46v5.376q0 1.26.182 3.206t.35 4.158q-.139-.5-.308-1.12t-.378-1.274q-.21-.657-.42-1.33t-.434-1.26L111.947.395h-5.432v21.117zm31.864 0L133.535.399h-6.776l-4.873 21.113h5.881l.476-2.688h3.78l.476 2.688h5.88zm-7.028-7.2h-2.436l.868-5.685q.084-.531.154-1.26t.21-1.932l.224 1.932q.085.732.168 1.26zm7.083.056v6.608a11.691 11.691 0 004.285.9 6.806 6.806 0 002.7-.532 6.071 6.071 0 002.128-1.5 7.157 7.157 0 001.386-2.268 7.889 7.889 0 00.5-2.87 6.245 6.245 0 00-.784-3.179 9.163 9.163 0 00-2.576-2.674l-.924-.672a2.251 2.251 0 01-1.148-1.68 1.164 1.164 0 01.434-.91 1.581 1.581 0 011.078-.378 3.006 3.006 0 011.75.63 6.311 6.311 0 011.582 1.694v-6.44a8.719 8.719 0 00-4.088-1.092 5.911 5.911 0 00-2.52.546 6.463 6.463 0 00-2.045 1.484 6.874 6.874 0 00-1.358 2.2 7.441 7.441 0 00-.49 2.716 6.2 6.2 0 00.8 3.15 10.137 10.137 0 002.647 2.814l.924.729a2.216 2.216 0 011.008 1.652 1.234 1.234 0 01-.462.98 1.778 1.778 0 01-1.19.392q-1.928-.004-3.637-2.3zm19.572 7.144V5.463h3.221V.395h-12.153v5.068h3.22v16.049h5.712zm3.584 0h10.584v-5.068h-4.9v-3.221h4.4V8.435h-4.4v-3.08h4.9V.399H161.59v21.113zm-140.95 28h10.584v-5.068h-4.9v-3.221h4.4v-4.788h-4.4v-3.08h4.9v-4.956H20.64v21.113zm11.9 0h5.432v-5.38q0-1.26-.084-2.927t-.252-3.878q.559 2.016 1.456 4.425l2.856 7.756h5.458V28.395h-5.461v5.376q0 1.26.182 3.206t.35 4.158q-.14-.5-.308-1.12t-.378-1.274q-.21-.657-.42-1.33t-.434-1.26l-2.968-7.756h-5.432v21.117zm31.472 0V33.463h3.22v-5.068H55.079v5.068h3.22v16.049h5.713zm17.92-21.113H76.22v13.609a4.517 4.517 0 01-.308 1.974 1.16 1.16 0 01-1.121.574 1.222 1.222 0 01-1.148-.574 4.179 4.179 0 01-.336-1.974V28.395h-5.712v14.117a8.794 8.794 0 00.532 3.192 6.452 6.452 0 001.47 2.3 6.128 6.128 0 002.268 1.4 8.638 8.638 0 002.926.476 8.521 8.521 0 002.913-.476 6.144 6.144 0 002.254-1.4 6.3 6.3 0 001.456-2.3 9.023 9.023 0 00.518-3.192V28.395zm20.692 20.713l.336-6.1a4.422 4.422 0 01-2.969 1.372 3 3 0 01-2.688-1.442 7.364 7.364 0 01-.924-3.991 7.737 7.737 0 01.952-4.144 3.079 3.079 0 012.772-1.512 3.838 3.838 0 012.605 1.26v-6.02a11.1 11.1 0 00-1.415-.392 7 7 0 00-1.414-.14 9.051 9.051 0 00-3.85.8 8.448 8.448 0 00-2.94 2.24 10.193 10.193 0 00-1.876 3.458 14.278 14.278 0 00-.658 4.452 15.06 15.06 0 00.644 4.593 10.4 10.4 0 001.792 3.43 7.691 7.691 0 002.73 2.156 8.1 8.1 0 003.486.742 9.4 9.4 0 003.417-.762zm16.575.392l-4.844-21.113h-6.776l-4.873 21.121h5.881l.476-2.688h3.78l.476 2.688h5.88zm-7.028-7.2h-2.436l.868-5.685q.084-.531.154-1.26t.21-1.932l.224 1.932q.084.732.168 1.26zm7.084.056v6.608a11.686 11.686 0 004.284.9 6.806 6.806 0 002.7-.532 6.071 6.071 0 002.128-1.5 7.157 7.157 0 001.386-2.268 7.889 7.889 0 00.5-2.87 6.245 6.245 0 00-.784-3.179 9.163 9.163 0 00-2.576-2.674l-.924-.672a2.254 2.254 0 01-1.148-1.68 1.167 1.167 0 01.434-.91 1.583 1.583 0 011.078-.378 3 3 0 011.75.63 6.311 6.311 0 011.582 1.694v-6.44a8.719 8.719 0 00-4.088-1.092 5.911 5.911 0 00-2.52.546 6.448 6.448 0 00-2.044 1.484 6.839 6.839 0 00-1.358 2.2 7.42 7.42 0 00-.491 2.716 6.2 6.2 0 00.8 3.15 10.132 10.132 0 002.646 2.814l.924.729a2.216 2.216 0 011.008 1.652 1.234 1.234 0 01-.462.98 1.778 1.778 0 01-1.19.392q-1.927.004-3.635-2.292zm27.272 7.14l-4.844-21.113h-6.777l-4.872 21.125h5.88l.476-2.688h3.781l.476 2.688h5.88zm-7.028-7.2h-2.437l.869-5.685q.084-.531.154-1.26t.21-1.932l.224 1.932q.085.732.168 1.26zm7.055 4.312a3.066 3.066 0 00.252 1.246 3.265 3.265 0 001.694 1.694 3.206 3.206 0 002.492 0 3.265 3.265 0 001.694-1.694 3.206 3.206 0 000-2.492 3.265 3.265 0 00-1.694-1.694 3.206 3.206 0 00-2.492 0 3.265 3.265 0 00-1.694 1.694 3.063 3.063 0 00-.252 1.258z" fill-rule="evenodd"/></svg><svg width="98.69" height="26.94" viewBox="-1 -1 195.38 51.87" xmlns="http://www.w3.org/2000/svg"><path data-name="AHORA EQUIPATE EN LA NUESTRA." d="M16.501 21.512L11.656.399H4.88L.008 21.512h5.88l.476-2.688h3.78l.476 2.688h5.881zm-7.029-7.2H7.038l.868-5.685q.084-.531.154-1.26t.21-1.932q.141 1.2.224 1.932t.168 1.26zm21.645 7.2V.395h-5.685v7.476h-2.744V.395h-5.684v21.117h5.684v-8.485h2.744v8.485h5.685zm17.387-10.557a16.213 16.213 0 00-.574-4.452 10.67 10.67 0 00-1.638-3.458 7.648 7.648 0 00-2.548-2.24 7.152 7.152 0 00-6.566 0 7.692 7.692 0 00-2.534 2.24 10.692 10.692 0 00-1.639 3.458 17.556 17.556 0 000 8.9 10.7 10.7 0 001.639 3.458 7.559 7.559 0 002.534 2.226 7.266 7.266 0 006.566 0 7.517 7.517 0 002.548-2.226 10.68 10.68 0 001.638-3.458 16.221 16.221 0 00.574-4.452zm-5.908 0a12.006 12.006 0 01-.56 4.159 1.574 1.574 0 01-3.136 0 11.982 11.982 0 01-.56-4.159 12.1 12.1 0 01.56-4.172 1.572 1.572 0 013.136 0 12.127 12.127 0 01.56 4.168zm22.232 10.557l-4.256-8.765a5.3 5.3 0 003.22-5.292 8.532 8.532 0 00-.462-2.87 5.442 5.442 0 00-1.47-2.226A6.972 6.972 0 0059.238.912a12.838 12.838 0 00-3.906-.518h-5.517v21.118H55.5v-8.653l3.164 8.653h6.16zm-9.324-11.425V5.075h.392a2.2 2.2 0 011.708.644 2.646 2.646 0 01.588 1.848 2.7 2.7 0 01-.588 1.862 2.171 2.171 0 01-1.708.658h-.392zM80.76 21.512L75.916.399h-6.778l-4.871 21.113h5.88l.476-2.688h3.781l.476 2.688h5.88zm-7.028-7.2h-2.437l.868-5.685q.084-.531.154-1.26t.21-1.932q.141 1.2.224 1.932t.168 1.26zm14.839 7.2h10.585v-5.068h-4.9v-3.221h4.4V8.435h-4.4v-3.08h4.9V.399H88.571v21.113zm27.441-10.557a16.252 16.252 0 00-.574-4.452 10.711 10.711 0 00-1.638-3.458 7.652 7.652 0 00-2.549-2.24 7.152 7.152 0 00-6.566 0 7.692 7.692 0 00-2.534 2.24 10.69 10.69 0 00-1.638 3.458 17.556 17.556 0 000 8.9 10.7 10.7 0 001.638 3.458 7.559 7.559 0 002.534 2.226 6.877 6.877 0 003.29.784 7.267 7.267 0 001.764-.224l1.9 2.772 4.565-2.492-2.576-2.828a10.45 10.45 0 001.764-3.528 16.216 16.216 0 00.62-4.62zm-5.909 0a11.982 11.982 0 01-.56 4.159 1.574 1.574 0 01-3.136 0 12.006 12.006 0 01-.56-4.159 12.127 12.127 0 01.56-4.172 1.572 1.572 0 013.136 0 12.1 12.1 0 01.56 4.168zM131.859.399h-5.712v13.609a4.517 4.517 0 01-.308 1.974 1.158 1.158 0 01-1.12.574 1.221 1.221 0 01-1.148-.574 4.179 4.179 0 01-.336-1.974V.395h-5.713v14.117a8.816 8.816 0 00.532 3.192 6.44 6.44 0 001.471 2.3 6.111 6.111 0 002.268 1.4 8.634 8.634 0 002.926.476 8.515 8.515 0 002.912-.476 6.136 6.136 0 002.254-1.4 6.29 6.29 0 001.456-2.3 9 9 0 00.518-3.192V.395zm7.532 21.113V.395h-5.685v21.117h5.685zm7.531 0v-6.92h.9a9.957 9.957 0 003.361-.5 6.073 6.073 0 002.31-1.429 5.564 5.564 0 001.33-2.212 9.17 9.17 0 00.42-2.856 8.638 8.638 0 00-.476-2.926 5.53 5.53 0 00-1.512-2.268 7.286 7.286 0 00-2.632-1.47 12.3 12.3 0 00-3.865-.532h-5.52v21.113h5.684zm0-11.593V5.075h.532a1.874 1.874 0 011.611.742 2.829 2.829 0 01.546 1.722 2.431 2.431 0 01-.6 1.75 2.056 2.056 0 01-1.555.63h-.532zm24.333 11.593L166.411.399h-6.773l-4.876 21.113h5.88l.476-2.688h3.781l.476 2.688h5.88zm-7.028-7.2h-2.437l.868-5.685q.084-.531.154-1.26t.21-1.932q.141 1.2.224 1.932t.168 1.26zm14.979 7.2V5.463h3.221V.395h-12.153v5.068h3.22v16.049h5.712zm3.584 0h10.584v-5.068h-4.9v-3.221h4.4V8.435h-4.4v-3.08h4.9V.399H182.79v21.113zm-172.618 28h10.585v-5.068h-4.9v-3.221h4.4v-4.788h-4.4v-3.08h4.9v-4.956H10.172v21.113zm11.9 0h5.432v-5.38q0-1.26-.084-2.927t-.252-3.878q.561 2.016 1.456 4.425l2.856 7.756h5.458V28.395h-5.461v5.376q0 1.26.182 3.206t.35 4.158q-.14-.5-.308-1.12t-.378-1.274q-.21-.657-.42-1.33t-.434-1.26l-2.968-7.756h-5.432v21.117zm33.992 0v-5.068H51.78V28.395h-5.684v21.117h9.968zm15.736 0l-4.844-21.113H60.18l-4.873 21.113h5.881l.476-2.688h3.78l.476 2.688h5.88zm-7.028-7.2h-2.434l.868-5.685q.084-.531.154-1.26t.21-1.932l.224 1.932q.085.732.168 1.26zm14.839 7.2h5.433v-5.38q0-1.26-.084-2.927t-.253-3.878q.561 2.016 1.457 4.425l2.856 7.756h5.46V28.395h-5.46v5.376q0 1.26.182 3.206t.35 4.158q-.141-.5-.308-1.12t-.378-1.274q-.21-.657-.42-1.33t-.434-1.26l-2.968-7.756h-5.433v21.117zm31.053-21.113h-5.712v13.609a4.517 4.517 0 01-.308 1.974 1.16 1.16 0 01-1.121.574 1.222 1.222 0 01-1.148-.574 4.179 4.179 0 01-.336-1.974V28.395h-5.712v14.117a8.794 8.794 0 00.532 3.192 6.452 6.452 0 001.47 2.3 6.119 6.119 0 002.268 1.4 8.638 8.638 0 002.926.476 8.521 8.521 0 002.913-.476 6.144 6.144 0 002.254-1.4 6.3 6.3 0 001.456-2.3 9.023 9.023 0 00.518-3.192V28.395zm1.847 21.113h10.585v-5.068h-4.9v-3.221h4.4v-4.788h-4.4v-3.08h4.9v-4.956h-10.585v21.113zm11.452-7.14v6.608a11.686 11.686 0 004.284.9 6.8 6.8 0 002.7-.532 6.071 6.071 0 002.128-1.5 7.157 7.157 0 001.386-2.268 7.889 7.889 0 00.5-2.87 6.245 6.245 0 00-.784-3.179 9.15 9.15 0 00-2.576-2.674l-.924-.672a2.254 2.254 0 01-1.148-1.68 1.167 1.167 0 01.434-.91 1.583 1.583 0 011.078-.378 3 3 0 011.75.63 6.3 6.3 0 011.582 1.694v-6.44a8.719 8.719 0 00-4.088-1.092 5.911 5.911 0 00-2.52.546 6.459 6.459 0 00-2.044 1.484 6.857 6.857 0 00-1.358 2.2 7.42 7.42 0 00-.49 2.716 6.2 6.2 0 00.8 3.15 10.132 10.132 0 002.646 2.814l.924.729a2.216 2.216 0 011.008 1.652 1.234 1.234 0 01-.462.98 1.778 1.778 0 01-1.19.392q-1.928-.008-3.636-2.304zm19.575 7.14V33.463h3.22v-5.068h-12.156v5.068h3.221v16.049h5.715zm18.592 0l-4.256-8.765a5.3 5.3 0 003.22-5.292 8.532 8.532 0 00-.462-2.87 5.442 5.442 0 00-1.47-2.226 6.972 6.972 0 00-2.624-1.447 12.845 12.845 0 00-3.907-.518h-5.513v21.118h5.684v-8.653l3.165 8.653h6.16zm-9.325-11.425v-5.012h.393a2.2 2.2 0 011.708.644 2.646 2.646 0 01.588 1.848 2.7 2.7 0 01-.588 1.862 2.171 2.171 0 01-1.708.658h-.393zm25.254 11.425l-4.845-21.113h-6.776l-4.872 21.113h5.88l.476-2.688h3.78l.476 2.688h5.881zm-7.029-7.2h-2.436l.868-5.685q.084-.531.154-1.26t.21-1.932q.141 1.2.224 1.932t.168 1.26zm7.056 4.312a3.066 3.066 0 00.252 1.246 3.265 3.265 0 001.694 1.694 3.206 3.206 0 002.492 0 3.265 3.265 0 001.694-1.694 3.206 3.206 0 000-2.492 3.265 3.265 0 00-1.694-1.694 3.206 3.206 0 00-2.492 0 3.265 3.265 0 00-1.694 1.694 3.063 3.063 0 00-.252 1.246z" fill-rule="evenodd"/></svg><svg width="89" height="12.76" viewBox="-1 -1 89 12.76" y="26.94" xmlns="http://www.w3.org/2000/svg"><g data-name="Layer 2"><g data-name="Layer 1" fill="#231f20"><path d="M6.84 8.29H5.56L1.42 2.57v5.72H0V.13h1.29l4.13 5.75V.13h1.42v8.16zm2.79 0H8.25V2.48h1.38zm0-6.5H8.2V.13h1.48zm7.23 6.5h-1.71L13.1 5.82l-.75.7v1.77h-1.38V.13h1.38v4.63l2.44-2.28h1.85l-2.58 2.41 2.8 3.4z"/><path d="M21.12 4.75a1.34 1.34 0 00-.36-.83 1.61 1.61 0 00-1.18-.4A1.57 1.57 0 0018.4 4a1.41 1.41 0 00-.38.76zm1.36.3v.83H18a1.37 1.37 0 00.41.88 2.17 2.17 0 001.39.46 4.19 4.19 0 002.47-.8v1.34a6.26 6.26 0 01-.75.37 5 5 0 01-1.72.29 3.29 3.29 0 01-2.41-.84 2.93 2.93 0 01-.77-2.19 3 3 0 01.78-2.2 2.9 2.9 0 012.17-.85 3 3 0 012.19.79 2.56 2.56 0 01.72 1.92zm6.9-4.27h-4.71v3.06h4.26v.66h-4.26v3.79h-.7V.13h5.41v.65zm4.54 6.09V5.18h-.69c-2.09 0-3.13.49-3.13 1.48 0 .76.43 1.15 1.29 1.15a4.79 4.79 0 002.53-.94zm.69 1.42h-.69v-.71a4.22 4.22 0 01-2.5.84c-1.3 0-2-.59-2-1.76a1.72 1.72 0 01.73-1.47A3.63 3.63 0 0132 4.6h1.93v-.36a1.09 1.09 0 00-.6-1A2.42 2.42 0 0032.12 3a3.78 3.78 0 00-2.21.83v-.76a3.56 3.56 0 012.26-.75 2.92 2.92 0 011.7.45 1.74 1.74 0 01.74 1.52zm5.76-.43a3.37 3.37 0 01-1.9.56 2.74 2.74 0 01-2.14-.85 3.16 3.16 0 01-.73-2.18 3.23 3.23 0 01.75-2.2 2.73 2.73 0 012.12-.85 3.53 3.53 0 011.9.51v.73A3.16 3.16 0 0038.48 3a2.37 2.37 0 00-.95.18 1.74 1.74 0 00-.69.49 2.09 2.09 0 00-.43.76 3.05 3.05 0 00-.15 1 2.62 2.62 0 00.55 1.73 2.08 2.08 0 001.66.68 3.19 3.19 0 001.9-.65zm4.26.48a2.49 2.49 0 01-.64.08h-.35a1.61 1.61 0 01-1.11-.63 2.12 2.12 0 01-.4-1.33V3H41v-.52h1.15V.76h.67v1.72h1.83V3H42.8v3.4c0 .79.31 1.24.92 1.35H44a2.53 2.53 0 00.64-.09zm5.69-2.96a2.53 2.53 0 00-.56-1.73 2.4 2.4 0 00-3.35 0 2.62 2.62 0 00-.55 1.73 2.62 2.62 0 00.55 1.73 2.4 2.4 0 003.35 0 2.5 2.5 0 00.56-1.73zm.66 0a3.09 3.09 0 01-.75 2.18 3.14 3.14 0 01-4.3 0 3.16 3.16 0 01-.74-2.18A3.15 3.15 0 0146 3.19a2.73 2.73 0 012.12-.85 2.8 2.8 0 012.15.86A3.1 3.1 0 0151 5.39zm3.57-2.28h-.24a1.47 1.47 0 00-1.12.37 1.9 1.9 0 00-.51 1.45v3.37H52V2.48h.67v.81a2.16 2.16 0 01.72-.69 1.83 1.83 0 01.92-.26h.23zm6.37-.62l-3 6.84a2.91 2.91 0 01-.66 1 1.74 1.74 0 01-1.32.4v-.65a1.17 1.17 0 00.92-.27 1.94 1.94 0 00.38-.59l.43-1-2.5-5.73H56l2.1 4.94 2.13-4.94zM67.17 6a2.19 2.19 0 01-.81 1.79 3 3 0 01-1.93.6 4.46 4.46 0 01-2.51-.74v-.9a3.57 3.57 0 002.48 1 2.26 2.26 0 001.4-.42 1.43 1.43 0 00.64-1.24A1.36 1.36 0 0065.85 5a5.55 5.55 0 00-1.21-.57 10.2 10.2 0 01-1.77-.73A1.78 1.78 0 0162 2.11a1.86 1.86 0 01.77-1.58A2.8 2.8 0 0164.52 0a3.92 3.92 0 012.26.64v.81a3.58 3.58 0 00-2.33-.8 2 2 0 00-1.17.35 1.18 1.18 0 00-.59 1 1.24 1.24 0 00.68 1.1 6.29 6.29 0 001.26.53 7.72 7.72 0 011.73.78A1.83 1.83 0 0167.17 6zm4.22 2.34a2.49 2.49 0 01-.64.08h-.35a1.63 1.63 0 01-1.11-.63 2.18 2.18 0 01-.39-1.33V3h-1.16v-.52h1.16V.76h.66v1.72h1.83V3h-1.83v3.4c0 .79.31 1.24.92 1.35h.27a2.47 2.47 0 00.64-.09zm5.69-2.96a2.53 2.53 0 00-.55-1.73 2.4 2.4 0 00-3.35 0 2.57 2.57 0 00-.56 1.73 2.57 2.57 0 00.56 1.73 2.4 2.4 0 003.35 0 2.5 2.5 0 00.55-1.73zm.67 0A3.09 3.09 0 0177 7.57a2.8 2.8 0 01-2.16.85 2.77 2.77 0 01-2.15-.85A3.16 3.16 0 0172 5.39a3.15 3.15 0 01.76-2.2 2.74 2.74 0 012.13-.85A2.82 2.82 0 0177 3.2a3.1 3.1 0 01.75 2.19zm3.57-2.28h-.25a1.48 1.48 0 00-1.07.35 1.89 1.89 0 00-.5 1.45v3.39h-.67V2.48h.67v.81a2 2 0 01.72-.69 1.8 1.8 0 01.91-.26h.24zM86.37 5a2.05 2.05 0 00-.54-1.49 2.12 2.12 0 00-2.9.05A2.32 2.32 0 0082.31 5zM87 5v.6h-4.7a2.31 2.31 0 00.63 1.6 2.11 2.11 0 001.58.58 3.43 3.43 0 002.2-.78v.72a3.66 3.66 0 01-2.2.68 2.77 2.77 0 01-2.15-.85 3.16 3.16 0 01-.73-2.18 3.06 3.06 0 01.85-2.29 2.64 2.64 0 011.87-.76 2.58 2.58 0 011.93.74A2.6 2.6 0 0187 5z"/></g></g></svg></svg>