<svg width="72" height="71" xmlns="http://www.w3.org/2000/svg" xmlns:xlink="http://www.w3.org/1999/xlink"><svg width="49.36" height="8.5" viewBox="-1 -1 96.72 15" y="48.91" xmlns="http://www.w3.org/2000/svg"><path data-name="ConocE mรกs" d="M4.883 12.997a4.335 4.335 0 003.129-1.1A4.446 4.446 0 009.27 8.958h-1.3a2.9 2.9 0 01-3.041 2.88c-2.179 0-3.6-1.725-3.6-4.284 0-2.456 1.287-4.313 3.582-4.313A2.725 2.725 0 017.85 5.434h1.287a3.875 3.875 0 00-4.2-3.334C1.822 2.1-.02 4.484-.02 7.554c.005 3.176 1.935 5.443 4.903 5.443zm10.586.014c3.158 0 5.117-2.325 5.117-5.454s-1.959-5.454-5.117-5.454-5.118 2.325-5.118 5.454 1.959 5.454 5.118 5.454zm0-1.155c-2.457 0-3.773-1.842-3.773-4.3s1.316-4.313 3.773-4.313 3.772 1.857 3.772 4.313-1.316 4.3-3.772 4.3zm6.681.936h1.228V4.209h.029s.439.789.775 1.3l4.8 7.282h1.343V2.337h-1.23v8.613h-.029s-.409-.805-.76-1.346l-4.767-7.267H22.15v10.455zm14.855.219c3.158 0 5.117-2.325 5.117-5.454s-1.959-5.454-5.117-5.454-5.118 2.325-5.118 5.454 1.959 5.454 5.118 5.454zm0-1.155c-2.457 0-3.773-1.842-3.773-4.3s1.316-4.313 3.773-4.313 3.772 1.857 3.772 4.313-1.316 4.3-3.772 4.3zm11.184 1.141a4.339 4.339 0 003.13-1.1 4.449 4.449 0 001.257-2.939h-1.3a2.9 2.9 0 01-3.042 2.88c-2.178 0-3.6-1.725-3.6-4.284 0-2.456 1.287-4.313 3.583-4.313a2.726 2.726 0 012.939 2.193h1.286a3.874 3.874 0 00-4.2-3.334c-3.115 0-4.957 2.384-4.957 5.454.006 3.176 1.94 5.443 4.904 5.443zm5.863-.205h7.559v-1.214h-6.243v-3.67h5.512V6.797h-5.512v-3.3h6.068V2.342h-7.384v10.455zm11.419 0h1.184v-8.6h.029s.263.79.468 1.316l2.866 7.282h1.007l2.866-7.282c.19-.5.468-1.316.468-1.316h.029v8.6h1.257V2.337h-1.71l-3.363 8.686h-.03L67.15 2.337h-1.681v10.455zm11.3 0h1.345l1.126-3.188h4.167l1.112 3.188h1.433L82.093 2.337h-1.476zm4.094-7.764c.205-.6.483-1.477.483-1.477h.029s.263.892.468 1.477l1.2 3.509h-3.42zm-.014-3.246h1.008l1.2-1.77h-1.462zM90.88 12.997c2.252 0 3.846-1.1 3.846-3.056 0-2.355-1.857-2.852-3.89-3.261-1.564-.307-2.734-.658-2.734-1.842 0-1.082.936-1.682 2.354-1.682a2.41 2.41 0 012.691 2.237h1.243c-.264-1.93-1.346-3.26-3.963-3.26-2.12 0-3.553 1.038-3.553 2.763 0 1.974 1.579 2.5 3.421 2.91 1.872.409 3.129.746 3.129 2.178 0 1.3-1.038 1.96-2.485 1.96-1.974 0-3.056-.921-3.232-2.691h-1.282c.114 2.106 1.517 3.744 4.456 3.744z" fill="#fff" fill-rule="evenodd"/></svg><svg width="31.03" height="12.69" viewBox="-1 -1 31.03 12.69" y="57.41" xmlns="http://www.w3.org/2000/svg"><g data-name="Layer 2"><path d="M7.78 9.51C5.49 10.53 1.9 11.7.4 9.17c-.83-1.4-.3-3.58.93-5.57A27.88 27.88 0 014.13 0C3.57 1 2 4.14 4.06 5.73c.8.61 2.22.67 4 .19L29 .1z" fill="#f47735" data-name="Layer 1"/></g></svg><svg width="63.48" height="19.81" viewBox="-1 -1 124.97 37.63" y="19.81" xmlns="http://www.w3.org/2000/svg"><path data-name="Ya ENTRENASTE EN TU CASA." d="M7.819 15.359v-6.38l3.5-8.7h-4.22l-.74 2.24q-.219.64-.38 1.25c-.106.407-.207.8-.3 1.17q-.14-.56-.31-1.17t-.39-1.25l-.74-2.24h-4.24l3.74 8.7v6.38h4.08zm14.58 0L18.939.279h-4.84l-3.48 15.08h4.2l.34-1.92h2.7l.34 1.92h4.2zm-5.02-5.14h-1.74l.62-4.06q.06-.38.11-.9t.15-1.38l.16 1.38q.06.52.12.9zm10.6 5.14h7.56v-3.62h-3.5v-2.3h3.14v-3.42h-3.14v-2.2h3.5V.279h-7.56v15.08zm8.5 0h3.88v-3.84q0-.9-.06-2.09t-.18-2.77q.4 1.44 1.04 3.16l2.04 5.54h3.9V.278h-3.9v3.84q0 .9.13 2.29t.25 2.97l-.22-.8q-.12-.44-.27-.91-.15-.47-.3-.95t-.31-.9l-2.12-5.54h-3.88v15.08zm17.26 0V3.898h2.3V.278h-8.68v3.62h2.3v11.46h4.08zm13.28 0l-3.04-6.26a3.791 3.791 0 002.3-3.78 6.094 6.094 0 00-.33-2.05 3.888 3.888 0 00-1.05-1.59 4.987 4.987 0 00-1.87-1.03 9.186 9.186 0 00-2.79-.37h-3.941v15.08h4.061v-6.18l2.26 6.18h4.4zm-6.66-8.16v-3.58h.28a1.569 1.569 0 011.22.46 1.891 1.891 0 01.42 1.32 1.929 1.929 0 01-.42 1.33 1.552 1.552 0 01-1.22.47h-.28zm7.219 8.16h7.56v-3.62h-3.5v-2.3h3.14v-3.42h-3.14v-2.2h3.5V.279h-7.56v15.08zm8.5 0h3.88v-3.84q0-.9-.06-2.09t-.18-2.77q.4 1.44 1.04 3.16l2.04 5.54h3.9V.278h-3.9v3.84q0 .9.13 2.29t.25 2.97l-.22-.8c-.08-.293-.17-.6-.27-.91s-.2-.63-.3-.95-.2-.62-.31-.9l-2.12-5.54h-3.88v15.08zm22.76 0L95.378.279h-4.84l-3.48 15.08h4.2l.34-1.92h2.7l.34 1.92h4.2zm-5.02-5.14h-1.74l.62-4.06q.06-.38.11-.9t.15-1.38l.16 1.38q.06.52.12.9zm5.06.04v4.72a8.341 8.341 0 003.06.64 4.864 4.864 0 001.93-.38 4.338 4.338 0 001.52-1.07 5.112 5.112 0 00.99-1.62 5.634 5.634 0 00.36-2.05 4.464 4.464 0 00-.56-2.27 6.536 6.536 0 00-1.84-1.91l-.66-.48a1.609 1.609 0 01-.82-1.2.832.832 0 01.31-.65 1.131 1.131 0 01.77-.27 2.147 2.147 0 011.25.45 4.5 4.5 0 011.13 1.21v-4.6a6.23 6.23 0 00-2.92-.78 4.222 4.222 0 00-1.8.39 4.616 4.616 0 00-1.46 1.06 4.9 4.9 0 00-.97 1.57 5.313 5.313 0 00-.35 1.94 4.427 4.427 0 00.57 2.25 7.237 7.237 0 001.89 2.01l.66.52a1.583 1.583 0 01.72 1.18.881.881 0 01-.33.7 1.267 1.267 0 01-.85.28 3.351 3.351 0 01-2.6-1.64zm13.98 5.1V3.898h2.3V.278h-8.68v3.62h2.3v11.46h4.08zm2.559 0h7.561v-3.62h-3.5v-2.3h3.14v-3.42h-3.14v-2.2h3.5V.279h-7.561v15.08zm-114.358 20h7.56v-3.62h-3.5v-2.3h3.14v-3.42h-3.14v-2.2h3.5v-3.54h-7.56v15.08zm8.5 0h3.88v-3.84q0-.9-.06-2.09t-.18-2.77q.4 1.44 1.04 3.16l2.04 5.54h3.9V20.278h-3.9v3.84q0 .9.13 2.29t.25 2.97l-.22-.8q-.12-.44-.27-.91-.15-.47-.3-.95t-.31-.9l-2.12-5.54h-3.88v15.08zm22.48 0V23.898h2.3v-3.62h-8.68v3.62h2.3v11.46h4.08zm12.8-15.08h-4.08v9.72a3.232 3.232 0 01-.22 1.41.827.827 0 01-.8.41.872.872 0 01-.82-.41 2.984 2.984 0 01-.24-1.41v-9.72h-4.08v10.08a6.27 6.27 0 00.38 2.28 4.588 4.588 0 001.05 1.64 4.362 4.362 0 001.62 1 6.161 6.161 0 002.09.34 6.078 6.078 0 002.08-.34 4.395 4.395 0 001.61-1 4.5 4.5 0 001.04-1.64 6.453 6.453 0 00.37-2.28V20.278zm14.78 14.8l.24-4.36a3.157 3.157 0 01-2.12.98 2.143 2.143 0 01-1.921-1.03 5.257 5.257 0 01-.66-2.85 5.531 5.531 0 01.68-2.96 2.2 2.2 0 011.981-1.08 2.741 2.741 0 011.86.9v-4.3a8.007 8.007 0 00-1.01-.28 5.044 5.044 0 00-1.01-.1 6.466 6.466 0 00-2.751.57 6.04 6.04 0 00-2.1 1.6 7.289 7.289 0 00-1.34 2.47 10.216 10.216 0 00-.47 3.18 10.79 10.79 0 00.46 3.28 7.446 7.446 0 001.28 2.45 5.5 5.5 0 001.95 1.54 5.8 5.8 0 002.491.53 6.71 6.71 0 002.44-.54zm11.839.28l-3.46-15.08h-4.84l-3.48 15.08h4.2l.34-1.92h2.7l.34 1.92h4.2zm-5.02-5.14h-1.74l.62-4.06q.06-.38.11-.9t.15-1.38l.16 1.38q.06.52.12.9zm5.06.04v4.72a8.341 8.341 0 003.06.64 4.86 4.86 0 001.93-.38 4.329 4.329 0 001.52-1.07 5.113 5.113 0 00.99-1.62 5.634 5.634 0 00.36-2.05 4.454 4.454 0 00-.56-2.27 6.523 6.523 0 00-1.84-1.91l-.66-.48a1.611 1.611 0 01-.82-1.2.835.835 0 01.31-.65 1.132 1.132 0 01.77-.27 2.145 2.145 0 011.25.45 4.5 4.5 0 011.13 1.21v-4.6a6.227 6.227 0 00-2.92-.78 4.222 4.222 0 00-1.8.39 4.627 4.627 0 00-1.46 1.06 4.918 4.918 0 00-.97 1.57 5.313 5.313 0 00-.35 1.94 4.427 4.427 0 00.57 2.25 7.237 7.237 0 001.89 2.01l.66.52a1.583 1.583 0 01.72 1.18.881.881 0 01-.33.7 1.267 1.267 0 01-.85.28 3.351 3.351 0 01-2.6-1.64zm19.48 5.1l-3.46-15.08h-4.84l-3.48 15.08h4.2l.34-1.92h2.7l.34 1.92h4.2zm-5.02-5.14h-1.74l.62-4.06q.06-.38.11-.9t.15-1.38l.16 1.38q.06.52.12.9zm5.04 3.08a2.19 2.19 0 00.18.89 2.332 2.332 0 001.21 1.21 2.29 2.29 0 001.78 0 2.332 2.332 0 001.21-1.21 2.291 2.291 0 000-1.78 2.332 2.332 0 00-1.21-1.21 2.29 2.29 0 00-1.78 0 2.332 2.332 0 00-1.21 1.21 2.19 2.19 0 00-.18.89z" fill-rule="evenodd"/></svg><svg width="71.05" height="19.81" viewBox="-1 -1 140.09 37.63" xmlns="http://www.w3.org/2000/svg"><path data-name="AHORA EQUIPATE EN LA NUESTRA." d="M11.768 15.366L8.308.286h-4.84l-3.48 15.08h4.2l.34-1.92h2.7l.34 1.92h4.2zm-5.02-5.14h-1.74l.62-4.06q.06-.38.11-.9t.15-1.38l.16 1.38q.06.521.12.9zm15.46 5.14V.286h-4.06v5.34h-1.96V.286h-4.057v15.08h4.06v-6.06h1.96v6.06h4.06zm12.42-7.54a11.6 11.6 0 00-.41-3.18 7.623 7.623 0 00-1.17-2.47 5.465 5.465 0 00-1.82-1.6 5.109 5.109 0 00-4.69 0 5.5 5.5 0 00-1.81 1.6 7.623 7.623 0 00-1.17 2.47 12.537 12.537 0 000 6.36 7.633 7.633 0 001.17 2.47 5.392 5.392 0 001.81 1.59 5.19 5.19 0 004.69 0 5.357 5.357 0 001.82-1.59 7.633 7.633 0 001.17-2.47 11.6 11.6 0 00.413-3.18zm-4.22 0a8.559 8.559 0 01-.4 2.97 1.124 1.124 0 01-2.24 0 8.559 8.559 0 01-.4-2.97 8.646 8.646 0 01.4-2.98 1.123 1.123 0 012.24 0 8.646 8.646 0 01.4 2.98zm15.88 7.54l-3.04-6.26a3.79 3.79 0 002.3-3.78 6.092 6.092 0 00-.33-2.05 3.887 3.887 0 00-1.05-1.59 4.969 4.969 0 00-1.87-1.03 9.176 9.176 0 00-2.79-.37h-3.94v15.08h4.06v-6.18l2.26 6.18h4.4zm-6.66-8.16v-3.58h.28a1.568 1.568 0 011.22.46 1.888 1.888 0 01.42 1.32 1.929 1.929 0 01-.42 1.33 1.553 1.553 0 01-1.22.47h-.277zm18.04 8.16L54.208.286h-4.84l-3.48 15.08h4.2l.34-1.92h2.7l.34 1.92h4.2zm-5.02-5.14h-1.74l.62-4.06c.04-.253.076-.553.11-.9s.083-.807.15-1.38l.16 1.38q.06.521.12.9zm10.6 5.14h7.561v-3.62h-3.5v-2.3h3.14v-3.42h-3.14v-2.2h3.5V.286h-7.561v15.08zm19.6-7.54a11.6 11.6 0 00-.41-3.18 7.664 7.664 0 00-1.17-2.47 5.474 5.474 0 00-1.82-1.6 5.111 5.111 0 00-4.691 0 5.5 5.5 0 00-1.81 1.6 7.664 7.664 0 00-1.17 2.47 12.537 12.537 0 000 6.36 7.674 7.674 0 001.17 2.47 5.392 5.392 0 001.81 1.59 4.921 4.921 0 002.351.56 5.17 5.17 0 001.26-.16l1.36 1.98 3.26-1.78-1.84-2.02a7.47 7.47 0 001.26-2.52 11.575 11.575 0 00.44-3.3zm-4.22 0a8.583 8.583 0 01-.4 2.97 1.124 1.124 0 01-2.24 0 8.559 8.559 0 01-.4-2.97 8.646 8.646 0 01.4-2.98 1.123 1.123 0 012.24 0 8.67 8.67 0 01.403 2.98zM94.167.286h-4.08v9.72a3.215 3.215 0 01-.22 1.41.826.826 0 01-.8.41.873.873 0 01-.82-.41 2.982 2.982 0 01-.24-1.41V.286h-4.076v10.08a6.289 6.289 0 00.38 2.28 4.592 4.592 0 001.05 1.64 4.382 4.382 0 001.62 1 6.158 6.158 0 002.09.34 6.067 6.067 0 002.08-.34 4.382 4.382 0 001.61-1 4.479 4.479 0 001.04-1.64 6.428 6.428 0 00.37-2.28V.286zm5.38 15.08V.286h-4.06v15.08h4.06zm5.38 0v-4.94h.64a7.11 7.11 0 002.4-.36 4.328 4.328 0 001.65-1.02 3.976 3.976 0 00.95-1.58 6.551 6.551 0 00.3-2.04 6.154 6.154 0 00-.34-2.09 3.942 3.942 0 00-1.08-1.62 5.2 5.2 0 00-1.88-1.05 8.768 8.768 0 00-2.76-.38h-3.94v15.08h4.06zm0-8.28v-3.46h.38a1.335 1.335 0 011.15.53 2.018 2.018 0 01.39 1.23 1.735 1.735 0 01-.43 1.25 1.468 1.468 0 01-1.11.45h-.376zm17.38 8.28l-3.46-15.08h-4.84l-3.48 15.08h4.2l.34-1.92h2.7l.34 1.92h4.2zm-5.02-5.14h-1.74l.62-4.06q.06-.38.11-.9t.15-1.38l.16 1.38q.06.521.12.9zm10.7 5.14V3.906h2.3V.286h-8.68v3.62h2.3v11.46h4.08zm2.56 0h7.56v-3.62h-3.5v-2.3h3.14v-3.42h-3.14v-2.2h3.5V.286h-7.56v15.08zm-129.6 20h7.56v-3.62h-3.5v-2.3h3.14v-3.42h-3.14v-2.2h3.5v-3.54H.947v15.08zm8.5 0h3.88v-3.84q0-.9-.06-2.09t-.18-2.77q.4 1.44 1.04 3.16l2.04 5.54h3.9v-15.08h-3.9v3.84q0 .9.13 2.29t.25 2.97l-.22-.8c-.08-.293-.17-.6-.27-.91s-.2-.63-.3-.95-.2-.62-.31-.9l-2.12-5.54h-3.88v15.08zm24.28 0v-3.62h-3.06v-11.46h-4.06v15.08h7.12zm11.24 0l-3.46-15.08h-4.84l-3.48 15.08h4.2l.34-1.92h2.7l.34 1.92h4.2zm-5.02-5.14h-1.74l.62-4.06c.04-.253.076-.553.11-.9s.083-.807.15-1.38l.16 1.38q.06.521.12.9zm10.6 5.14h3.88v-3.84q0-.9-.06-2.09t-.18-2.77q.4 1.44 1.04 3.16l2.04 5.54h3.9v-15.08h-3.9v3.84q0 .9.13 2.29t.25 2.97l-.22-.8c-.08-.293-.17-.6-.27-.91s-.2-.63-.3-.95-.2-.62-.31-.9l-2.12-5.54h-3.88v15.08zm22.18-15.08h-4.08v9.72a3.23 3.23 0 01-.22 1.41.828.828 0 01-.8.41.872.872 0 01-.82-.41 2.982 2.982 0 01-.24-1.41v-9.72h-4.081v10.08a6.289 6.289 0 00.38 2.28 4.619 4.619 0 001.05 1.64 4.378 4.378 0 001.621 1 6.154 6.154 0 002.09.34 6.071 6.071 0 002.08-.34 4.4 4.4 0 001.61-1 4.505 4.505 0 001.04-1.64 6.45 6.45 0 00.37-2.28v-10.08zm1.319 15.08h7.561v-3.62h-3.5v-2.3h3.141v-3.42h-3.141v-2.2h3.5v-3.54h-7.561v15.08zm8.18-5.1v4.72a8.335 8.335 0 003.06.64 4.866 4.866 0 001.93-.38 4.325 4.325 0 001.52-1.07 5.112 5.112 0 00.99-1.62 5.633 5.633 0 00.36-2.05 4.454 4.454 0 00-.56-2.27 6.523 6.523 0 00-1.84-1.91l-.66-.48a1.611 1.611 0 01-.82-1.2.834.834 0 01.31-.65 1.132 1.132 0 01.77-.27 2.145 2.145 0 011.25.45 4.491 4.491 0 011.13 1.21v-4.6a6.227 6.227 0 00-2.92-.78 4.222 4.222 0 00-1.8.39 4.621 4.621 0 00-1.46 1.06 4.91 4.91 0 00-.97 1.57 5.31 5.31 0 00-.35 1.94 4.427 4.427 0 00.57 2.25 7.237 7.237 0 001.89 2.01l.66.52a1.584 1.584 0 01.72 1.18.881.881 0 01-.33.7 1.266 1.266 0 01-.85.28 3.353 3.353 0 01-2.595-1.64zm13.98 5.1v-11.46h2.3v-3.62h-8.675v3.62h2.3v11.46h4.08zm13.28 0l-3.04-6.26a3.79 3.79 0 002.3-3.78 6.092 6.092 0 00-.33-2.05 3.887 3.887 0 00-1.05-1.59 4.969 4.969 0 00-1.87-1.03 9.176 9.176 0 00-2.79-.37h-3.94v15.08h4.06v-6.18l2.26 6.18h4.4zm-6.66-8.16v-3.58h.28a1.568 1.568 0 011.22.46 1.888 1.888 0 01.42 1.32 1.929 1.929 0 01-.42 1.33 1.553 1.553 0 01-1.22.47h-.275zm18.04 8.16l-3.46-15.08h-4.84l-3.48 15.08h4.2l.34-1.92h2.7l.34 1.92h4.2zm-5.02-5.14h-1.74l.62-4.06c.04-.253.076-.553.11-.9s.083-.807.15-1.38l.16 1.38q.06.521.12.9zm5.04 3.08a2.188 2.188 0 00.18.89 2.339 2.339 0 00.49.72 2.315 2.315 0 00.72.49 2.29 2.29 0 001.78 0 2.332 2.332 0 001.21-1.21 2.29 2.29 0 000-1.78 2.332 2.332 0 00-1.21-1.21 2.29 2.29 0 00-1.78 0 2.315 2.315 0 00-.72.49 2.339 2.339 0 00-.49.72 2.188 2.188 0 00-.179.89z" fill-rule="evenodd"/></svg><svg width="61" height="9.29" viewBox="-1 -1 61 9.29" y="39.62" xmlns="http://www.w3.org/2000/svg"><g data-name="Layer 2"><g data-name="Layer 1" fill="#231f20"><path d="M4.64 5.61h-.87L.96 1.74v3.87H0V.09h.88l2.8 3.89V.09h.96v5.52zm1.89 0h-.94V1.68h.94zm0-4.39h-1V.09h1zm4.9 4.39h-1.16L8.88 3.94l-.5.48v1.19h-.94V.09h.94v3.14l1.65-1.55h1.25L9.54 3.31l1.89 2.3z"/><path d="M14.32 3.22a.87.87 0 00-.24-.56 1.11 1.11 0 00-.8-.27 1.05 1.05 0 00-.8.31 1 1 0 00-.26.52zm.93.2v.56h-3a.94.94 0 00.28.6 1.47 1.47 0 00.94.31 2.83 2.83 0 001.67-.54v.91a4.6 4.6 0 01-.5.25 3.34 3.34 0 01-1.17.19 2.25 2.25 0 01-1.63-.56 2 2 0 01-.53-1.49 2 2 0 01.54-1.49 2 2 0 011.46-.57 2.05 2.05 0 011.49.53 1.76 1.76 0 01.45 1.3zM19.93.53h-3.2V2.6h2.89v.45h-2.89v2.56h-.47V.09h3.67v.44zM23 4.66V3.51h-.48c-1.41 0-2.12.33-2.12 1s.3.78.88.78A3.28 3.28 0 0023 4.66zm.46 1H23v-.52a3 3 0 01-1.7.56c-.87 0-1.3-.39-1.3-1.19a1.16 1.16 0 01.5-1 2.44 2.44 0 011.22-.4H23v-.24a.72.72 0 00-.41-.67 1.58 1.58 0 00-.81-.2 2.62 2.62 0 00-1.5.56v-.48a2.43 2.43 0 011.53-.51 2 2 0 011.19.31 1.17 1.17 0 01.5 1zm3.92-.34a2.22 2.22 0 01-1.29.38 1.87 1.87 0 01-1.45-.57 2.16 2.16 0 01-.5-1.48 2.19 2.19 0 01.51-1.49 1.86 1.86 0 011.44-.57 2.39 2.39 0 011.29.34v.49A2.21 2.21 0 0026.1 2a1.64 1.64 0 00-.65.12 1.33 1.33 0 00-.47.33 1.55 1.55 0 00-.29.52 2.3 2.3 0 00-.1.67A1.82 1.82 0 0025 4.82a1.44 1.44 0 001.13.46 2.16 2.16 0 001.29-.44zm2.88.33a1.81 1.81 0 01-.43 0h-.23a1.11 1.11 0 01-.76-.43 1.46 1.46 0 01-.27-.9V2.06h-.78v-.38h.78V.52H29v1.16h1.24v.38H29v2.28c0 .53.21.83.63.91h.18a1.65 1.65 0 00.43-.06zm3.86-2a1.74 1.74 0 00-.37-1.18A1.46 1.46 0 0032.61 2a1.42 1.42 0 00-1.13.46 1.78 1.78 0 00-.38 1.18 1.77 1.77 0 00.38 1.17 1.42 1.42 0 001.13.46 1.46 1.46 0 001.14-.46 1.69 1.69 0 00.37-1.16zm.46 0a2.1 2.1 0 01-.51 1.48 1.92 1.92 0 01-1.46.57 1.88 1.88 0 01-1.46-.57 2.11 2.11 0 01-.5-1.48 2.12 2.12 0 01.52-1.49 1.86 1.86 0 011.44-.57 1.89 1.89 0 011.46.58 2.1 2.1 0 01.51 1.48zM37 2.1h-.17a1 1 0 00-.76.25 1.27 1.27 0 00-.34 1v2.26h-.46V1.68h.46v.55a1.38 1.38 0 01.49-.47 1.16 1.16 0 01.62-.17H37zm4.31-.42l-2.05 4.63a2 2 0 01-.45.71 1.19 1.19 0 01-.9.27v-.44a.84.84 0 00.63-.18 1.46 1.46 0 00.26-.4l.29-.69-1.68-3.9H38L39.37 5l1.45-3.35zm4.24 2.41A1.48 1.48 0 0145 5.3a2 2 0 01-1.3.4 3 3 0 01-1.7-.5v-.6a2.43 2.43 0 001.68.65 1.53 1.53 0 00.94-.25 1 1 0 00.44-.84.89.89 0 00-.41-.75 3.14 3.14 0 00-.82-.41 7.1 7.1 0 01-1.19-.5A1.2 1.2 0 0142 1.43a1.22 1.22 0 01.57-1.07A1.89 1.89 0 0143.76 0a2.67 2.67 0 011.53.43V1a2.42 2.42 0 00-1.58-.56 1.35 1.35 0 00-.8.25.8.8 0 00-.4.7.87.87 0 00.46.74 5.65 5.65 0 00.86.36A5.23 5.23 0 0145 3a1.24 1.24 0 01.55 1.09zm2.86 1.56a1.81 1.81 0 01-.43 0h-.24a1.11 1.11 0 01-.74-.39 1.46 1.46 0 01-.27-.9v-2.3h-.78v-.38h.78V.52h.45v1.16h1.24v.38h-1.25v2.28c0 .53.21.83.63.91h.2a1.65 1.65 0 00.43-.06zm3.86-2a1.74 1.74 0 00-.37-1.18A1.46 1.46 0 0050.76 2a1.42 1.42 0 00-1.13.46 1.78 1.78 0 00-.38 1.18 1.77 1.77 0 00.38 1.17 1.42 1.42 0 001.13.46 1.46 1.46 0 001.14-.46 1.69 1.69 0 00.37-1.16zm.46 0a2.1 2.1 0 01-.51 1.48 1.92 1.92 0 01-1.46.57 1.88 1.88 0 01-1.46-.57 2.11 2.11 0 01-.5-1.48 2.12 2.12 0 01.52-1.49 1.86 1.86 0 011.44-.57 1.91 1.91 0 011.46.58 2.1 2.1 0 01.51 1.48zm2.42-1.55H55a1 1 0 00-.76.25 1.27 1.27 0 00-.34 1v2.26h-.46V1.68h.46v.55a1.38 1.38 0 01.49-.47 1.16 1.16 0 01.61-.17h.16zm3.42 1.29a1.39 1.39 0 00-.36-1 1.43 1.43 0 00-2 0 1.63 1.63 0 00-.42 1zm.43 0v.41h-3.19a1.57 1.57 0 00.43 1.08 1.42 1.42 0 001.07.4 2.35 2.35 0 001.49-.52v.49a2.55 2.55 0 01-1.49.45 1.91 1.91 0 01-1.46-.57 2.15 2.15 0 01-.49-1.48 2.05 2.05 0 01.58-1.55 1.74 1.74 0 011.26-.51 1.7 1.7 0 011.8 1.8z"/></g></g></svg></svg>