<svg width="238" height="61" xmlns="http://www.w3.org/2000/svg" xmlns:xlink="http://www.w3.org/1999/xlink"><svg width="66.02" height="10.78" viewBox="-1 -1 130.04 19.56" x="80" y="32.94" xmlns="http://www.w3.org/2000/svg"><path data-name="ConocE mรกs" d="M6.62 17.537a5.857 5.857 0 004.23-1.482 6 6 0 001.7-3.972h-1.76a3.916 3.916 0 01-4.11 3.893c-2.94 0-4.86-2.332-4.86-5.79 0-3.32 1.74-5.83 4.84-5.83a3.68 3.68 0 013.97 2.965h1.74C12 4.712 10 2.815 6.7 2.815c-4.21 0-6.7 3.221-6.7 7.371 0 4.288 2.61 7.351 6.62 7.351zm14.31.02c4.27 0 6.91-3.142 6.91-7.371s-2.64-7.371-6.91-7.371-6.92 3.142-6.92 7.371 2.65 7.371 6.92 7.371zm0-1.561c-3.32 0-5.1-2.49-5.1-5.81s1.78-5.83 5.1-5.83 5.1 2.51 5.1 5.83-1.78 5.81-5.1 5.81zm9.03 1.265h1.66v-11.6h.04s.59 1.067 1.04 1.758l6.49 9.842H41V3.131h-1.66v11.64h-.04s-.55-1.087-1.02-1.818l-6.45-9.822h-1.87v14.13zm20.07.3c4.27 0 6.92-3.142 6.92-7.371s-2.65-7.371-6.92-7.371-6.91 3.142-6.91 7.371 2.64 7.367 6.91 7.367zm0-1.561c-3.32 0-5.1-2.49-5.1-5.81s1.78-5.83 5.1-5.83 5.1 2.51 5.1 5.83-1.78 5.806-5.1 5.806zm15.12 1.541a5.857 5.857 0 004.23-1.482 6 6 0 001.7-3.972h-1.76a3.916 3.916 0 01-4.11 3.893c-2.95 0-4.86-2.332-4.86-5.79 0-3.32 1.74-5.83 4.84-5.83a3.68 3.68 0 013.97 2.959h1.74c-.37-2.609-2.37-4.506-5.67-4.506-4.21 0-6.7 3.221-6.7 7.371 0 4.29 2.61 7.353 6.62 7.353zm7.92-.276h10.22v-1.646h-8.44v-4.96h7.45v-1.5h-7.45V4.693h8.2V3.132h-9.98v14.13zm15.44 0h1.6V5.645h.04s.35 1.067.63 1.778l3.87 9.842h1.37l3.87-9.842c.26-.672.63-1.778.63-1.778h.04v11.62h1.7V3.135h-2.31L95.4 14.874h-.04L90.78 3.135h-2.27v14.13zm15.27 0h1.82l1.52-4.308h5.63l1.5 4.308h1.94l-5.22-14.13h-1.99zm5.53-10.494c.28-.81.66-2 .66-2h.04s.35 1.206.63 2l1.62 4.743h-4.63zm-.02-4.387h1.37l1.62-2.391h-1.98zm13.56 15.157c3.04 0 5.2-1.482 5.2-4.13 0-3.182-2.51-3.853-5.26-4.407-2.11-.415-3.7-.889-3.7-2.49 0-1.462 1.27-2.272 3.19-2.272 2.07 0 3.38 1.008 3.63 3.023h1.68c-.35-2.608-1.82-4.407-5.35-4.407-2.87 0-4.81 1.4-4.81 3.735 0 2.668 2.14 3.38 4.63 3.933 2.53.553 4.23 1.008 4.23 2.944 0 1.759-1.41 2.649-3.36 2.649-2.67 0-4.13-1.245-4.37-3.637h-1.74c.16 2.842 2.06 5.055 6.03 5.055z" fill="#fff" fill-rule="evenodd"/></svg><svg width="40.38" height="16.25" viewBox="-1 -1 40.38 16.25" y="44.66" xmlns="http://www.w3.org/2000/svg"><g data-name="Layer 2"><path d="M10.29 12.69c-3 1.35-7.78 2.9-9.76-.46-1.1-1.87-.4-4.77 1.23-7.43A38.91 38.91 0 015.46 0c-.74 1.27-2.83 5.52-.1 7.64 1.07.81 2.94.9 5.26.26L38.38.13z" fill="#f47735" data-name="Layer 1"/></g></svg><svg width="197.67" height="15.67" viewBox="-1 -1 393.34 29.34" y="17.27" xmlns="http://www.w3.org/2000/svg"><path data-name="Ya ENTRENASTE EN TU CASA." d="M13.678 26.884V15.718L19.8.492h-7.386l-1.3 3.92q-.384 1.12-.665 2.188t-.525 2.048q-.245-.98-.542-2.048t-.683-2.188L7.404.492H-.017l6.546 15.227v11.166h7.141zm25.515 0L33.137.492h-8.47l-6.091 26.392h7.351l.6-3.36h4.725l.6 3.36h7.351zm-8.786-9h-3.045l1.085-7.106q.105-.665.192-1.575t.263-2.415l.28 2.415q.105.91.21 1.575zm18.549 9h13.231v-6.335h-6.125v-4.026h5.5v-5.986h-5.5v-3.85h6.125v-6.2H48.956v26.392zm14.875 0h6.79v-6.72q0-1.575-.105-3.658t-.316-4.848q.7 2.52 1.821 5.531l3.57 9.7h6.826V.492h-6.826v6.721q0 1.575.227 4.008t.438 5.2q-.175-.63-.385-1.4t-.471-1.595q-.262-.823-.525-1.663t-.542-1.575l-3.711-9.7h-6.79V26.88zm30.2 0V6.827h4.026V.492H82.87v6.335h4.03v20.057h7.14zm23.241 0l-5.32-10.956q4.024-1.82 4.025-6.616a10.666 10.666 0 00-.578-3.588 6.8 6.8 0 00-1.837-2.783 8.716 8.716 0 00-3.273-1.8 16.077 16.077 0 00-4.883-.648h-6.9v26.392h7.106V16.068l3.955 10.816h7.7zm-11.651-14.281V6.337h.49a2.746 2.746 0 012.135.805 3.309 3.309 0 01.735 2.31 3.377 3.377 0 01-.735 2.328 2.715 2.715 0 01-2.135.822h-.49zm12.634 14.281h13.231v-6.335h-6.126v-4.026h5.5v-5.986h-5.5v-3.85h6.126v-6.2h-13.231v26.392zm14.875 0h6.79v-6.72q0-1.575-.1-3.658t-.32-4.848q.7 2.52 1.82 5.531l3.571 9.7h6.826V.492h-6.826v6.721q0 1.575.227 4.008t.438 5.2q-.176-.63-.385-1.4t-.471-1.595q-.262-.823-.525-1.663t-.542-1.575l-3.711-9.7h-6.79V26.88zm39.831 0L166.906.492h-8.471l-6.091 26.392h7.356l.595-3.36h4.725l.6 3.36h7.35zm-8.786-9h-3.045l1.085-7.106q.1-.665.193-1.575t.262-2.415q.176 1.505.28 2.415t.21 1.575zm8.854.07v8.26a14.6 14.6 0 005.356 1.12 8.505 8.505 0 003.378-.665 7.584 7.584 0 002.66-1.872 8.954 8.954 0 001.733-2.836 9.862 9.862 0 00.63-3.588 7.81 7.81 0 00-.98-3.973 11.444 11.444 0 00-3.221-3.343l-1.155-.84a2.816 2.816 0 01-1.435-2.1 1.457 1.457 0 01.543-1.138 1.975 1.975 0 011.347-.473 3.756 3.756 0 012.188.788 7.89 7.89 0 011.978 2.118V1.367A10.9 10.9 0 00180.94.002a7.389 7.389 0 00-3.15.683 8.08 8.08 0 00-2.555 1.855 8.561 8.561 0 00-1.7 2.748 9.273 9.273 0 00-.613 3.4 7.749 7.749 0 001 3.938 12.667 12.667 0 003.308 3.511l1.155.91a2.771 2.771 0 011.26 2.065 1.542 1.542 0 01-.578 1.225 2.219 2.219 0 01-1.487.49q-2.415.002-4.551-2.868zm24.471 8.93V6.827h4.025V.492h-15.196v6.335h4.025v20.057h7.146zm4.479 0h13.231v-6.335h-6.126v-4.026h5.5v-5.986h-5.5v-3.85h6.126v-6.2h-13.236v26.392zm24.009 0h13.232v-6.335h-6.126v-4.026h5.495v-5.986h-5.495v-3.85h6.126v-6.2h-13.237v26.392zm14.875 0h6.791v-6.72q0-1.575-.105-3.658t-.315-4.848q.7 2.52 1.82 5.531l3.57 9.7h6.826V.492h-6.826v6.721q0 1.575.228 4.008t.437 5.2l-.385-1.4q-.211-.77-.472-1.593-.263-.823-.525-1.663t-.543-1.575l-3.71-9.7h-6.791v26.392zm39.341 0V6.827h4.025V.492h-15.197v6.335h4.026v20.057h7.142zm22.4-26.392h-7.141v17.011a5.634 5.634 0 01-.385 2.468 1.445 1.445 0 01-1.4.718 1.526 1.526 0 01-1.435-.718 5.223 5.223 0 01-.42-2.468V.492h-7.141v17.645a11.008 11.008 0 00.665 3.99 8.05 8.05 0 001.838 2.87 7.648 7.648 0 002.835 1.75 10.784 10.784 0 003.658.595 10.635 10.635 0 003.641-.595 7.665 7.665 0 002.817-1.75 7.856 7.856 0 001.821-2.87 11.284 11.284 0 00.647-3.99V.492zm25.861 25.9l.42-7.63a5.5 5.5 0 01-3.71 1.715 3.747 3.747 0 01-3.36-1.8 9.2 9.2 0 01-1.15-4.988 9.614 9.614 0 011.19-5.181 3.843 3.843 0 013.46-1.89 4.8 4.8 0 013.26 1.575V.667a14.193 14.193 0 00-1.77-.49 8.8 8.8 0 00-1.77-.175 11.325 11.325 0 00-4.81 1 10.523 10.523 0 00-3.675 2.8 12.751 12.751 0 00-2.346 4.323 17.873 17.873 0 00-.822 5.566 18.839 18.839 0 00.805 5.741 13 13 0 002.24 4.288 9.635 9.635 0 003.418 2.7 10.1 10.1 0 004.35.927 11.712 11.712 0 004.265-.953zm20.72.49L343.135.49h-8.47l-6.09 26.392h7.35l.59-3.36h4.73l.59 3.36h7.35zm-8.78-9h-3.05l1.09-7.106c.07-.443.13-.968.19-1.575s.15-1.412.26-2.415c.12 1 .21 1.808.28 2.415s.14 1.132.21 1.575zm8.85.07v8.26a14.616 14.616 0 005.36 1.12 8.445 8.445 0 003.37-.665 7.651 7.651 0 002.67-1.872 9.038 9.038 0 001.73-2.836 9.862 9.862 0 00.63-3.588 7.84 7.84 0 00-.98-3.973 11.571 11.571 0 00-3.22-3.343l-1.16-.84a2.826 2.826 0 01-1.43-2.1 1.461 1.461 0 01.54-1.138 1.976 1.976 0 011.35-.473 3.783 3.783 0 012.19.788 7.883 7.883 0 011.97 2.118V1.367a10.879 10.879 0 00-5.11-1.365 7.389 7.389 0 00-3.15.683 8.026 8.026 0 00-2.55 1.855 8.5 8.5 0 00-1.7 2.748 9.251 9.251 0 00-.61 3.4 7.8 7.8 0 00.99 3.938 12.753 12.753 0 003.31 3.518l1.16.91a2.771 2.771 0 011.26 2.065 1.559 1.559 0 01-.58 1.225 2.229 2.229 0 01-1.49.49c-1.615-.005-3.125-.962-4.555-2.875zm34.09 8.926L377.295.486h-8.47l-6.09 26.392h7.35l.59-3.36h4.73l.59 3.36h7.35zm-8.78-9h-3.05l1.09-7.106c.07-.443.13-.968.19-1.575s.15-1.412.26-2.415c.12 1 .21 1.808.28 2.415s.14 1.132.21 1.575zm8.82 5.391a3.832 3.832 0 00.31 1.558 4.134 4.134 0 00.86 1.26 4.043 4.043 0 001.26.857 3.849 3.849 0 001.56.315 3.768 3.768 0 001.55-.315 4.043 4.043 0 001.26-.857 3.964 3.964 0 00.86-1.26 3.952 3.952 0 000-3.116 3.957 3.957 0 00-.86-1.26 4.051 4.051 0 00-1.26-.858 3.768 3.768 0 00-1.55-.315 3.849 3.849 0 00-1.56.315 4.051 4.051 0 00-1.26.858 4.126 4.126 0 00-.86 1.26 3.829 3.829 0 00-.315 1.568z" fill-rule="evenodd"/></svg><svg width="237.17" height="17.27" viewBox="-1 -1 472.35 32.53" xmlns="http://www.w3.org/2000/svg"><path data-name="AHORA EQUIPATE EN LA NUESTRA." d="M20.606 26.885L14.551.493H6.08L-.011 26.885H7.34l.6-3.36h4.726l.595 3.36h7.35zm-8.785-9H8.775l1.085-7.1q.105-.666.193-1.575t.262-2.416l.28 2.416q.105.91.21 1.575zm27.055 9V.493h-7.1v9.345h-3.431V.492h-7.106v26.392h7.106V16.279h3.431v10.606h7.1zm21.735-13.2a20.269 20.269 0 00-.718-5.566 13.373 13.373 0 00-2.047-4.322 9.572 9.572 0 00-3.186-2.8 8.945 8.945 0 00-8.208 0 9.633 9.633 0 00-3.168 2.8 13.374 13.374 0 00-2.048 4.322 21.963 21.963 0 000 11.132 13.389 13.389 0 002.048 4.323 9.45 9.45 0 003.168 2.782 9.083 9.083 0 008.208 0 9.392 9.392 0 003.186-2.782 13.388 13.388 0 002.047-4.323 20.269 20.269 0 00.713-5.562zm-7.386 0a14.982 14.982 0 01-.7 5.2q-.7 1.8-1.96 1.8t-1.96-1.8a14.982 14.982 0 01-.7-5.2 15.136 15.136 0 01.7-5.215q.7-1.821 1.96-1.821t1.96 1.821a15.132 15.132 0 01.698 5.219zm27.791 13.2l-5.321-10.956q4.026-1.82 4.026-6.615a10.665 10.665 0 00-.578-3.588 6.805 6.805 0 00-1.838-2.783 8.725 8.725 0 00-3.272-1.8A16.1 16.1 0 0069.15.496h-6.9v26.392h7.106V16.069l3.955 10.816h7.7zM69.36 12.604V6.338h.49a2.748 2.748 0 012.135.8 3.31 3.31 0 01.735 2.311 3.375 3.375 0 01-.735 2.327 2.713 2.713 0 01-2.135.823h-.49zm31.57 14.281L94.875.493h-8.469l-6.091 26.392h7.351l.6-3.36h4.726l.6 3.36h7.35zm-8.785-9h-3.046l1.085-7.1q.105-.666.193-1.575t.262-2.416l.28 2.416q.105.91.21 1.575zm18.548 9h13.232V20.55h-6.126v-4.026h5.5v-5.986h-5.5v-3.85h6.126V.493h-13.234v26.392zm34.3-13.2a20.309 20.309 0 00-.717-5.566 13.374 13.374 0 00-2.048-4.322 9.572 9.572 0 00-3.186-2.8 8.945 8.945 0 00-8.208 0 9.633 9.633 0 00-3.168 2.8 13.373 13.373 0 00-2.047 4.322 21.933 21.933 0 000 11.132 13.388 13.388 0 002.047 4.323 9.45 9.45 0 003.168 2.782 8.594 8.594 0 004.113.98 9.05 9.05 0 002.2-.28l2.381 3.466 5.705-3.116-3.22-3.535a13.031 13.031 0 002.205-4.41 20.247 20.247 0 00.775-5.772zm-7.386 0a14.982 14.982 0 01-.7 5.2q-.7 1.8-1.96 1.8t-1.96-1.8a14.982 14.982 0 01-.7-5.2 15.136 15.136 0 01.7-5.215q.7-1.821 1.96-1.821t1.96 1.821a15.132 15.132 0 01.699 5.219zm27.195-13.2h-7.14v17.011a5.649 5.649 0 01-.385 2.468 1.446 1.446 0 01-1.4.718 1.526 1.526 0 01-1.436-.718 5.222 5.222 0 01-.42-2.468V.493h-7.14v17.645a10.991 10.991 0 00.665 3.991 8.052 8.052 0 001.837 2.87 7.644 7.644 0 002.836 1.75 10.775 10.775 0 003.658.595 10.629 10.629 0 003.64-.595 7.669 7.669 0 002.818-1.75 7.872 7.872 0 001.82-2.87 11.266 11.266 0 00.647-3.991V.493zm9.414 26.392V.493h-7.1v26.392h7.1zm9.415 0v-8.639h1.12a12.431 12.431 0 004.2-.631 7.58 7.58 0 002.888-1.785 6.943 6.943 0 001.663-2.765 11.472 11.472 0 00.525-3.57 10.775 10.775 0 00-.6-3.658 6.91 6.91 0 00-1.89-2.836 9.135 9.135 0 00-3.291-1.837 15.358 15.358 0 00-4.83-.665h-6.9v26.392h7.106zm0-14.491V6.338h.665a2.342 2.342 0 012.013.928 3.534 3.534 0 01.682 2.153 3.039 3.039 0 01-.752 2.187 2.569 2.569 0 01-1.943.788h-.665zm30.416 14.491L207.991.485h-8.47l-6.091 26.392h7.351l.6-3.36h4.725l.595 3.36h7.351zm-8.786-9h-3.045l1.085-7.1q.105-.666.192-1.575t.263-2.416l.28 2.416q.105.91.21 1.575zm18.725 9V6.828h4.025V.493H212.82v6.335h4.025v20.057h7.141zm4.479 0h13.231v-6.335h-6.125v-4.026h5.5v-5.978h-5.5v-3.85h6.125V.493h-13.231v26.392zm24.009 0h13.232v-6.335h-6.126v-4.026h5.5v-5.978h-5.5v-3.85h6.126V.493h-13.232v26.392zm14.875 0h6.791v-6.72q0-1.575-.105-3.658t-.315-4.848q.7 2.52 1.82 5.53l3.571 9.7h6.825V.493h-6.825v6.72q0 1.576.227 4.008t.438 5.2q-.175-.63-.385-1.4t-.473-1.592q-.262-.823-.525-1.663t-.543-1.575l-3.71-9.7h-6.791v26.392zm42.491 0v-6.335h-5.355V.493h-7.106v26.392h12.461zm19.666 0L323.456.485h-8.472l-6.091 26.392h7.351l.6-3.36h4.727l.59 3.36h7.35zm-8.78-9h-3.05l1.09-7.1c.07-.444.13-.969.19-1.575s.15-1.412.26-2.416c.12 1 .21 1.809.28 2.416s.14 1.131.21 1.575zm18.55 9h6.79v-6.72c0-1.05-.04-2.27-.11-3.658s-.17-3-.31-4.848q.69 2.52 1.82 5.53l3.57 9.7h6.82V.493h-6.82v6.72c0 1.051.07 2.386.23 4.008s.29 3.355.43 5.2c-.11-.42-.24-.886-.38-1.4s-.3-1.044-.47-1.592-.35-1.1-.53-1.663-.35-1.085-.54-1.575l-3.71-9.7h-6.79v26.392zM378.086.485h-7.14v17.011a5.757 5.757 0 01-.38 2.468 1.455 1.455 0 01-1.4.718 1.53 1.53 0 01-1.44-.718 5.222 5.222 0 01-.42-2.468V.493h-7.14v17.645a10.862 10.862 0 00.67 3.991 8.011 8.011 0 001.83 2.87 7.717 7.717 0 002.84 1.75 10.8 10.8 0 003.66.595 10.641 10.641 0 003.64-.595 7.718 7.718 0 002.82-1.75 7.991 7.991 0 001.82-2.87 11.317 11.317 0 00.64-3.991V.493zm2.31 26.392h13.23v-6.335h-6.12v-4.026h5.49v-5.978h-5.49v-3.85h6.12V.493h-13.23v26.392zm14.32-8.926v8.261a14.567 14.567 0 005.35 1.12 8.494 8.494 0 003.38-.665 7.521 7.521 0 002.66-1.872 8.856 8.856 0 001.73-2.836 9.86 9.86 0 00.63-3.587 7.738 7.738 0 00-.98-3.973 11.31 11.31 0 00-3.22-3.343l-1.15-.84a2.816 2.816 0 01-1.44-2.1 1.44 1.44 0 01.55-1.137 1.968 1.968 0 011.34-.473 3.736 3.736 0 012.19.788 7.907 7.907 0 011.98 2.118V1.368a10.91 10.91 0 00-5.11-1.365 7.388 7.388 0 00-3.15.682 8.189 8.189 0 00-2.56 1.855 8.676 8.676 0 00-1.7 2.748 9.464 9.464 0 00-.61 3.4 7.7 7.7 0 001 3.937 12.591 12.591 0 003.31 3.518l1.15.91a2.773 2.773 0 011.26 2.066 1.529 1.529 0 01-.58 1.225 2.206 2.206 0 01-1.48.49q-2.415-.004-4.55-2.875zm24.46 8.926V6.828h4.03V.493h-15.19v6.335h4.02v20.057h7.14zm23.24 0l-5.32-10.956q4.035-1.82 4.03-6.615a10.542 10.542 0 00-.58-3.588 6.76 6.76 0 00-1.84-2.783 8.724 8.724 0 00-3.27-1.8 16.084 16.084 0 00-4.88-.647h-6.9V26.88h7.11V16.069l3.95 10.816h7.7zm-11.65-14.281V6.338h.49a2.741 2.741 0 012.13.8 3.312 3.312 0 01.74 2.311 3.376 3.376 0 01-.74 2.327 2.706 2.706 0 01-2.13.823h-.49zm31.57 14.281L456.276.485h-8.47l-6.09 26.392h7.35l.6-3.36h4.72l.6 3.36h7.35zm-8.79-9h-3.04l1.08-7.1c.07-.444.14-.969.19-1.575s.15-1.412.27-2.416c.11 1 .21 1.809.28 2.416s.14 1.131.21 1.575zm8.82 5.391a3.839 3.839 0 00.32 1.558 4.1 4.1 0 00.85 1.26 4.043 4.043 0 001.26.857 4.02 4.02 0 003.12 0 4.043 4.043 0 001.26-.857 4.134 4.134 0 00.86-1.26 4.07 4.07 0 000-3.116 4.134 4.134 0 00-.86-1.26 4.06 4.06 0 00-1.26-.857 4.02 4.02 0 00-3.12 0 4.06 4.06 0 00-1.26.857 4.1 4.1 0 00-.85 1.26 3.839 3.839 0 00-.32 1.57z" fill-rule="evenodd"/></svg><svg width="80" height="11.72" viewBox="-1 -1 80 11.72" y="32.94" xmlns="http://www.w3.org/2000/svg"><g data-name="Layer 2"><g data-name="Layer 1" fill="#231f20"><path d="M6.13 7.49H4.98L1.27 2.32v5.17H0V.12h1.16l3.7 5.19V.12h1.27v7.37zm2.51 0H7.39V2.24h1.25zm0-5.87H7.35V.12h1.33zm6.47 5.87h-1.53l-1.84-2.24-.67.64v1.6H9.83V.12h1.24V4.3l2.19-2.06h1.66l-2.31 2.18 2.5 3.07z"/><path d="M18.93 4.29a1.17 1.17 0 00-.32-.75 1.43 1.43 0 00-1.06-.36 1.39 1.39 0 00-1.05.42 1.26 1.26 0 00-.34.69zm1.23.27v.75h-4a1.2 1.2 0 00.37.79 1.91 1.91 0 001.24.42A3.81 3.81 0 0020 5.8V7a4 4 0 01-.68.33 4.18 4.18 0 01-1.54.27 3 3 0 01-2.16-.76 2.68 2.68 0 01-.69-2 2.75 2.75 0 01.7-2 2.6 2.6 0 011.94-.76 2.66 2.66 0 012 .71 2.31 2.31 0 01.59 1.77zM26.34.71h-4.22v2.75h3.82v.61h-3.82v3.42h-.63V.12h4.85v.59zm4.07 5.5V4.68h-.62C27.92 4.68 27 5.13 27 6c0 .69.38 1 1.16 1a4.26 4.26 0 002.25-.79zM31 7.48h-.62v-.63a3.8 3.8 0 01-2.24.76c-1.14 0-1.72-.53-1.72-1.61a1.55 1.55 0 01.66-1.33 3.21 3.21 0 011.6-.53 5.65 5.65 0 01.61 0h1.12v-.31a1 1 0 00-.54-.9 2.17 2.17 0 00-1.07-.24 3.3 3.3 0 00-2 .74v-.65a3.16 3.16 0 012-.68 2.71 2.71 0 011.53.4A1.58 1.58 0 0131 3.88zm5.19-.38a2.92 2.92 0 01-1.7.51 2.49 2.49 0 01-1.92-.77 2.86 2.86 0 01-.66-2 2.93 2.93 0 01.68-2 2.44 2.44 0 011.9-.76 3.09 3.09 0 011.7.46v.65a2.86 2.86 0 00-1.69-.54 2.26 2.26 0 00-.85.15 1.69 1.69 0 00-.63.45 2.14 2.14 0 00-.38.68 3.13 3.13 0 00-.13.89 2.39 2.39 0 00.49 1.6 1.86 1.86 0 001.49.58 2.81 2.81 0 001.7-.59zm3.81.43a2 2 0 01-.57.08h-.31a1.47 1.47 0 01-1-.58 1.9 1.9 0 01-.36-1.2V2.75h-1v-.51h1V.69h.6v1.55H40v.51h-1.63v3c0 .71.28 1.12.83 1.22h.24a2.37 2.37 0 00.56-.03zm5.11-2.67a2.3 2.3 0 00-.49-1.56 1.9 1.9 0 00-1.51-.61 1.86 1.86 0 00-1.5.61 2.33 2.33 0 00-.49 1.56 2.33 2.33 0 00.49 1.56 1.87 1.87 0 001.5.62 1.9 1.9 0 001.51-.62 2.26 2.26 0 00.49-1.56zm.6 0a2.8 2.8 0 01-.67 2 2.51 2.51 0 01-1.93.77 2.48 2.48 0 01-1.93-.77 2.86 2.86 0 01-.66-2 2.89 2.89 0 01.68-2 2.46 2.46 0 011.91-.76 2.49 2.49 0 011.89.79 2.81 2.81 0 01.71 1.98zm3.2-2.06h-.22a1.33 1.33 0 00-1 .33 1.76 1.76 0 00-.45 1.32v3.04h-.6V2.24h.6V3a1.84 1.84 0 01.65-.62 1.55 1.55 0 01.82-.23h.21zm5.71-.56L51.9 8.41a2.68 2.68 0 01-.59.95 1.59 1.59 0 01-1.19.35v-.58a1 1 0 00.88-.24 1.61 1.61 0 00.34-.54l.39-.91-2.22-5.2h.71l1.83 4.46L54 2.24zm5.6 3.21a2 2 0 01-.73 1.61 2.67 2.67 0 01-1.72.55 4 4 0 01-2.26-.68v-.8a3.24 3.24 0 002.23.87A2 2 0 0059 6.63a1.29 1.29 0 00.58-1.12 1.2 1.2 0 00-.54-1A3.89 3.89 0 0058 4a9.11 9.11 0 01-1.58-.67 1.6 1.6 0 01-.8-1.41 1.69 1.69 0 01.7-1.43A2.52 2.52 0 0157.85 0a3.55 3.55 0 012 .57v.74a3.18 3.18 0 00-2.07-.72 1.81 1.81 0 00-1.05.33 1.09 1.09 0 00-.53.93 1.11 1.11 0 00.61 1 6 6 0 001.19.47 6.18 6.18 0 011.54.7 1.64 1.64 0 01.68 1.43zM64 7.53a2 2 0 01-.58.08h-.31a1.49 1.49 0 01-1-.58 2 2 0 01-.35-1.2V2.75h-1v-.51h1V.69h.6v1.55H64v.51h-1.63v3c0 .71.27 1.12.82 1.22h.24a2.52 2.52 0 00.57-.03zm5.11-2.67a2.3 2.3 0 00-.5-1.56 2.15 2.15 0 00-3 0 2.34 2.34 0 00-.5 1.56 2.34 2.34 0 00.5 1.56 2.12 2.12 0 003 0 2.27 2.27 0 00.5-1.56zm.59 0a2.8 2.8 0 01-.67 2 2.8 2.8 0 01-3.86 0 2.86 2.86 0 01-.66-2 2.85 2.85 0 01.69-2 2.44 2.44 0 011.9-.76 2.49 2.49 0 011.9.79 2.81 2.81 0 01.7 1.98zm3.21-2.06h-.23a1.32 1.32 0 00-1 .33 1.76 1.76 0 00-.45 1.32v3.04h-.6V2.24h.6V3a1.84 1.84 0 01.65-.62 1.52 1.52 0 01.82-.23h.21zm4.52 1.71A1.85 1.85 0 0077 3.17a1.73 1.73 0 00-1.31-.5 1.69 1.69 0 00-1.29.55 2.06 2.06 0 00-.55 1.29zm.57 0v.54h-4.22a2.1 2.1 0 00.57 1.44 1.9 1.9 0 001.42.51 3.06 3.06 0 002-.7V7a3.36 3.36 0 01-2 .61 2.49 2.49 0 01-1.93-.77 2.86 2.86 0 01-.66-2A2.77 2.77 0 0174 2.8a2.5 2.5 0 013.41 0A2.36 2.36 0 0178 4.53z"/></g></g></svg></svg>