<svg width="230" height="71" xmlns="http://www.w3.org/2000/svg" xmlns:xlink="http://www.w3.org/1999/xlink"><svg width="79.77" height="12.67" viewBox="-1 -1 157.53 23.34" x="142.69" y="17.91" xmlns="http://www.w3.org/2000/svg"><path data-name="ConocE mรกs copy" d="M8.05 21.31a7.138 7.138 0 005.136-1.8 7.294 7.294 0 002.065-4.83h-2.137c-.216 2.52-1.752 4.73-4.992 4.73-3.576 0-5.9-2.83-5.9-7.03 0-4.04 2.112-7.08 5.88-7.08 2.712 0 4.416 1.46 4.824 3.6h2.113c-.456-3.17-2.881-5.48-6.889-5.48-5.112 0-8.137 3.92-8.137 8.96-.005 5.21 3.164 8.93 8.037 8.93zm17.376.02c5.185 0 8.4-3.82 8.4-8.95s-3.216-8.96-8.4-8.96-8.4 3.82-8.4 8.96 3.215 8.95 8.399 8.95zm0-1.9c-4.032 0-6.192-3.02-6.192-7.05s2.16-7.08 6.192-7.08 6.193 3.04 6.193 7.08-2.162 7.05-6.194 7.05zm10.967 1.54h2.017V6.88h.048s.72 1.3 1.272 2.14l7.872 11.95h2.209V3.81h-2.017v14.14h-.044s-.672-1.32-1.248-2.21L38.673 3.81h-2.281v17.16zm24.385.36c5.184 0 8.4-3.82 8.4-8.95s-3.217-8.96-8.4-8.96-8.4 3.82-8.4 8.96 3.214 8.95 8.399 8.95zm0-1.9c-4.032 0-6.193-3.02-6.193-7.05s2.161-7.08 6.193-7.08 6.192 3.04 6.192 7.08-2.161 7.05-6.193 7.05zm18.36 1.88a7.138 7.138 0 005.136-1.8 7.3 7.3 0 002.064-4.83h-2.136c-.216 2.52-1.752 4.73-4.992 4.73-3.576 0-5.905-2.83-5.905-7.03 0-4.04 2.112-7.08 5.881-7.08 2.712 0 4.416 1.46 4.824 3.6h2.112c-.456-3.17-2.88-5.48-6.888-5.48-5.113 0-8.137 3.92-8.137 8.96-.001 5.21 3.167 8.93 8.04 8.93zm9.623-.34h12.409v-1.99H90.92v-6.03h9.049v-1.82H90.92V5.7h9.961V3.81H88.76v17.16zm18.744 0h1.945V6.86h.048s.432 1.29.768 2.16l4.7 11.95h1.656l4.7-11.95c.312-.82.768-2.16.768-2.16h.06v14.11h2.064V3.81h-2.808l-5.52 14.26h-.048l-5.574-14.26h-2.76v17.16zm18.551 0h2.209l1.848-5.23h6.84l1.825 5.23h2.352l-6.338-17.16h-2.424zm6.721-12.75c.336-.98.792-2.42.792-2.42h.048s.432 1.46.768 2.42l1.968 5.77h-5.616zm-.027-5.32h1.656l1.968-2.91h-2.4zm16.464 18.41c3.7 0 6.313-1.8 6.313-5.02 0-3.86-3.049-4.68-6.385-5.35-2.568-.51-4.488-1.08-4.488-3.03 0-1.77 1.536-2.76 3.864-2.76 2.52 0 4.1 1.23 4.416 3.67h2.041c-.433-3.16-2.209-5.35-6.5-5.35-3.48 0-5.833 1.71-5.833 4.54 0 3.24 2.593 4.1 5.617 4.78 3.072.67 5.136 1.22 5.136 3.57 0 2.14-1.7 3.22-4.08 3.22-3.24 0-5.016-1.51-5.3-4.42h-2.113c.185 3.46 2.49 6.15 7.314 6.15z" fill="#fff" fill-rule="evenodd"/></svg><svg width="50" height="19.66" viewBox="-1 -1 50 19.66" x="142.69" y="30.58" xmlns="http://www.w3.org/2000/svg"><g data-name="Layer 2"><g data-name="Layer 1"><path d="M12.86 15.72c-3.81 1.68-9.71 3.6-12.19-.56C-.71 12.84.16 9.24 2.2 6a47.45 47.45 0 014.63-6C5.9 1.57 3.3 6.84 6.71 9.46c1.33 1 3.67 1.12 6.57.32L48 .16z" fill="#f47735" data-name="Layer 1-2"/></g></g></svg><svg width="229.8" height="17.91" viewBox="-1 -1 457.59 33.81" xmlns="http://www.w3.org/2000/svg"><path data-name="Ya ENTRENASTE EN TU CASA." d="M15.924 31.28v-13L23.054.557h-8.6L12.946 5.12q-.448 1.3-.774 2.547t-.611 2.383q-.285-1.14-.632-2.383t-.794-2.547L8.627.557H-.006L7.613 18.28v13h8.312zm29.7 0L38.575.559h-9.856L21.63 31.28h8.556l.693-3.912h5.5l.693 3.912h8.556zM35.399 20.808h-3.544l1.263-8.271q.121-.774.224-1.833t.3-2.811q.2 1.752.326 2.811t.245 1.833zM56.993 31.28h15.4v-7.375h-7.13v-4.686h6.4v-6.967h-6.4V7.77h7.13V.559h-15.4V31.28zm17.316 0h7.9v-7.823q0-1.835-.122-4.258t-.367-5.643q.815 2.934 2.119 6.438l4.156 11.286h7.945V.559h-7.941v7.823q0 1.833.265 4.665t.509 6.05q-.2-.734-.448-1.63t-.55-1.853q-.306-.958-.612-1.936t-.631-1.833L82.213.559h-7.9V31.28zm35.161 0V7.933h4.686V.559H96.473v7.374h4.685V31.28h8.312zm27.053 0l-6.193-12.753q4.686-2.12 4.686-7.7a12.417 12.417 0 00-.672-4.176 7.933 7.933 0 00-2.139-3.239 10.134 10.134 0 00-3.81-2.1 18.693 18.693 0 00-5.684-.754h-8.026v30.721h8.271V18.694l4.6 12.59h8.963zm-13.567-16.624V7.363h.57a3.2 3.2 0 012.486.937 3.853 3.853 0 01.855 2.689 3.934 3.934 0 01-.855 2.71 3.162 3.162 0 01-2.486.957h-.57zm14.708 16.624h15.4v-7.375h-7.13v-4.686h6.4v-6.967h-6.4V7.77h7.13V.559h-15.4V31.28zm17.315 0h7.905v-7.823q0-1.835-.123-4.258t-.366-5.643q.815 2.934 2.118 6.438l4.156 11.286h7.95V.559h-7.95v7.823q0 1.833.265 4.665t.509 6.05q-.2-.734-.448-1.63t-.55-1.853q-.306-.958-.611-1.936t-.632-1.833L162.884.559h-7.905V31.28zm46.366 0L194.297.559h-9.86l-7.09 30.721h8.556l.693-3.912h5.5l.693 3.912h8.556zm-10.226-10.472h-3.545l1.263-8.271q.122-.774.224-1.833t.306-2.811q.2 1.752.325 2.811t.245 1.833zm10.307.082v9.615a16.986 16.986 0 006.234 1.3 9.909 9.909 0 003.932-.774 8.836 8.836 0 003.1-2.18 10.423 10.423 0 002.016-3.3 11.475 11.475 0 00.734-4.176 9.1 9.1 0 00-1.141-4.625 13.325 13.325 0 00-3.749-3.891l-1.344-.977a3.279 3.279 0 01-1.671-2.445 1.7 1.7 0 01.632-1.324 2.3 2.3 0 011.569-.55 4.372 4.372 0 012.546.916 9.177 9.177 0 012.3 2.465V1.573a12.693 12.693 0 00-5.948-1.589 8.594 8.594 0 00-3.667.795 9.412 9.412 0 00-2.975 2.159 9.99 9.99 0 00-1.976 3.2 10.812 10.812 0 00-.713 3.952 9.023 9.023 0 001.161 4.584 14.758 14.758 0 003.851 4.094l1.344 1.06a3.225 3.225 0 011.467 2.4 1.8 1.8 0 01-.672 1.427 2.586 2.586 0 01-1.732.57q-2.812.006-5.298-3.331zm28.48 10.39V7.933h4.685V.559h-17.683v7.374h4.686V31.28h8.312zm5.214 0h15.4v-7.375h-7.13v-4.686h6.4v-6.967h-6.4V7.77h7.13V.559h-15.401V31.28zm27.95 0h15.4v-7.375h-7.13v-4.686h6.4v-6.967h-6.4V7.77h7.13V.559h-15.4V31.28zm17.316 0h7.9v-7.823q0-1.835-.122-4.258t-.367-5.643q.822 2.938 2.122 6.438l4.155 11.286h7.945V.559h-7.946v7.823q0 1.833.265 4.665t.51 6.05q-.2-.734-.449-1.63t-.55-1.853q-.3-.958-.611-1.936t-.631-1.833L288.288.559h-7.9V31.28zm45.8 0V7.933h4.685V.559h-17.688v7.374h4.686V31.28h8.312zM352.261.559h-8.312v19.8a6.565 6.565 0 01-.448 2.873 1.683 1.683 0 01-1.629.835 1.776 1.776 0 01-1.671-.835 6.081 6.081 0 01-.489-2.873V.559H331.4v20.535a12.8 12.8 0 00.774 4.644 9.376 9.376 0 002.14 3.341 8.9 8.9 0 003.3 2.038 12.573 12.573 0 004.258.692 12.4 12.4 0 004.237-.692 8.929 8.929 0 003.28-2.038 9.133 9.133 0 002.118-3.341 13.1 13.1 0 00.754-4.644V.559zm30.109 30.15l.489-8.882a6.429 6.429 0 01-4.319 2 4.362 4.362 0 01-3.911-2.1 10.7 10.7 0 01-1.345-5.806 11.257 11.257 0 011.386-6.03 4.477 4.477 0 014.033-2.2 5.579 5.579 0 013.789 1.833V.764a16.316 16.316 0 00-2.057-.57 10.261 10.261 0 00-2.058-.2 13.153 13.153 0 00-5.6 1.162 12.289 12.289 0 00-4.278 3.259 14.814 14.814 0 00-2.73 5.032 20.8 20.8 0 00-.957 6.478 21.932 21.932 0 00.937 6.682 15.116 15.116 0 002.607 4.991 11.2 11.2 0 003.973 3.138 11.8 11.8 0 005.072 1.079 13.654 13.654 0 004.964-1.106zm24.12.571L399.441.559h-9.86l-7.089 30.721h8.556l.693-3.912h5.5l.693 3.912h8.556zm-10.227-10.472h-3.545l1.264-8.271q.122-.774.224-1.833t.3-2.811q.2 1.752.326 2.811t.245 1.833zm10.308.082v9.615a16.978 16.978 0 006.234 1.3 9.913 9.913 0 003.932-.774 8.832 8.832 0 003.1-2.18 10.408 10.408 0 002.017-3.3 11.475 11.475 0 00.733-4.176 9.094 9.094 0 00-1.14-4.625 13.325 13.325 0 00-3.749-3.891l-1.344-.977a3.279 3.279 0 01-1.671-2.445 1.7 1.7 0 01.632-1.324 2.3 2.3 0 011.568-.55 4.375 4.375 0 012.547.916 9.193 9.193 0 012.3 2.465V1.573a12.693 12.693 0 00-5.949-1.589 8.6 8.6 0 00-3.667.795 9.408 9.408 0 00-2.974 2.159 9.973 9.973 0 00-1.976 3.2 10.791 10.791 0 00-.713 3.952 9.023 9.023 0 001.161 4.584 14.752 14.752 0 003.85 4.094l1.345 1.06a3.225 3.225 0 011.467 2.4 1.794 1.794 0 01-.673 1.427 2.583 2.583 0 01-1.731.57q-2.818.006-5.304-3.331zm39.684 10.39L439.206.559h-9.86l-7.089 30.721h8.556l.692-3.912h5.5l.693 3.912h8.556zm-10.236-10.472h-3.545l1.263-8.271q.123-.774.224-1.833t.306-2.811q.2 1.752.326 2.811t.244 1.833zm10.267 6.275a4.451 4.451 0 00.367 1.813 4.746 4.746 0 002.465 2.465 4.662 4.662 0 003.626 0 4.746 4.746 0 002.465-2.465 4.662 4.662 0 000-3.626 4.746 4.746 0 00-2.465-2.465 4.662 4.662 0 00-3.626 0 4.746 4.746 0 00-2.465 2.465 4.451 4.451 0 00-.363 1.813z" fill-rule="evenodd"/></svg><svg width="142.69" height="38.28" viewBox="-1 -1 283.38 74.56" y="17.91" xmlns="http://www.w3.org/2000/svg"><path data-name="AHORA EQUIPATE EN LA NUESTRA." d="M24.012 31.28L16.963.559h-9.86L.014 31.28h8.555l.692-3.912h5.5l.693 3.912h8.556zM13.785 20.808H10.24l1.263-8.271q.123-.774.224-1.833t.306-2.811q.2 1.752.326 2.811t.244 1.833zm31.5 10.472V.559h-8.276v10.878h-3.993V.559h-8.271V31.28h8.271V18.934h3.993V31.28h8.271zm25.3-15.361a23.6 23.6 0 00-.836-6.478 15.556 15.556 0 00-2.383-5.032 11.131 11.131 0 00-3.708-3.259 10.4 10.4 0 00-9.554 0 11.2 11.2 0 00-3.687 3.259 15.557 15.557 0 00-2.384 5.032 25.546 25.546 0 000 12.956 15.557 15.557 0 002.384 5.032 10.983 10.983 0 003.687 3.239 10.57 10.57 0 009.554 0 10.916 10.916 0 003.708-3.239 15.556 15.556 0 002.383-5.032 23.6 23.6 0 00.832-6.478zm-8.6 0a17.456 17.456 0 01-.815 6.051q-.814 2.1-2.282 2.1t-2.281-2.1a17.432 17.432 0 01-.815-6.051 17.613 17.613 0 01.815-6.071q.815-2.118 2.281-2.118t2.282 2.118a17.637 17.637 0 01.814 6.071zm32.35 15.361l-6.193-12.753q4.686-2.12 4.686-7.7a12.417 12.417 0 00-.673-4.176 7.913 7.913 0 00-2.139-3.239 10.137 10.137 0 00-3.809-2.1 18.7 18.7 0 00-5.684-.754h-8.027v30.721h8.273V18.694l4.6 12.59h8.964zM80.769 14.656V7.363h.571a3.194 3.194 0 012.485.937 3.849 3.849 0 01.856 2.689 3.93 3.93 0 01-.856 2.71 3.16 3.16 0 01-2.485.957h-.571zM117.52 31.28L110.469.559h-9.86l-7.09 30.721h8.557l.692-3.912h5.5l.692 3.912h8.557zm-10.227-10.472h-3.545l1.263-8.271q.123-.774.224-1.833t.306-2.811q.2 1.752.326 2.811t.244 1.833zm21.593 10.472h15.4v-7.375h-7.131v-4.686h6.4v-6.967h-6.4V7.77h7.131V.559h-15.4V31.28zm39.929-15.361a23.605 23.605 0 00-.835-6.478 15.578 15.578 0 00-2.384-5.032 11.138 11.138 0 00-3.707-3.259 10.4 10.4 0 00-9.555 0 11.2 11.2 0 00-3.687 3.259 15.578 15.578 0 00-2.384 5.032 25.546 25.546 0 000 12.956 15.578 15.578 0 002.384 5.032 10.983 10.983 0 003.687 3.239 10.008 10.008 0 004.788 1.141 10.515 10.515 0 002.566-.326l2.771 4.034 6.641-3.626-3.748-4.115a15.207 15.207 0 002.567-5.134 23.571 23.571 0 00.893-6.723zm-8.6 0a17.456 17.456 0 01-.815 6.051q-.815 2.1-2.281 2.1t-2.282-2.1a17.456 17.456 0 01-.815-6.051 17.637 17.637 0 01.815-6.071q.815-2.118 2.282-2.118t2.281 2.118a17.637 17.637 0 01.815 6.071zM191.872.559h-8.312v19.8a6.565 6.565 0 01-.448 2.873 1.683 1.683 0 01-1.63.835 1.776 1.776 0 01-1.67-.835 6.081 6.081 0 01-.489-2.873V.559h-8.312v20.535a12.8 12.8 0 00.774 4.644 9.388 9.388 0 002.139 3.341 8.909 8.909 0 003.3 2.038 12.571 12.571 0 004.257.692 12.4 12.4 0 004.238-.692 8.938 8.938 0 003.28-2.038 9.133 9.133 0 002.118-3.341 13.1 13.1 0 00.752-4.644V.559zm10.96 30.721V.559h-8.271V31.28h8.271zm10.959 0V21.216h1.3a14.5 14.5 0 004.889-.733 8.83 8.83 0 003.362-2.078 8.088 8.088 0 001.935-3.219 13.34 13.34 0 00.611-4.156 12.577 12.577 0 00-.692-4.258 8.038 8.038 0 00-2.2-3.3 10.636 10.636 0 00-3.83-2.139 17.91 17.91 0 00-5.623-.774h-8.027V31.28h8.271zm0-16.868V7.363h.778a2.722 2.722 0 012.342 1.08 4.113 4.113 0 01.795 2.5 3.536 3.536 0 01-.876 2.547 2.989 2.989 0 01-2.261.917h-.775zm35.406 16.868L242.149.559h-9.86l-7.09 30.721h8.557l.692-3.912h5.5l.692 3.912h8.556zm-10.228-10.472h-3.545l1.263-8.271q.123-.774.224-1.833t.306-2.811q.2 1.752.326 2.811t.244 1.833zm21.8 10.472V7.933h4.686V.559h-17.686v7.374h4.686V31.28h8.314zm5.215 0h15.4v-7.375h-7.13v-4.686h6.4v-6.967h-6.4V7.77h7.13V.559h-15.4V31.28zM14.804 72.023h15.4v-7.375h-7.13v-4.685h6.395v-6.969h-6.4v-4.48h7.13v-7.212h-15.4v30.721zm17.316 0h7.9V64.2q0-1.833-.122-4.258t-.367-5.643q.815 2.934 2.119 6.438l4.155 11.286h7.946V41.302h-7.942v7.823q0 1.833.265 4.665t.51 6.051q-.2-.733-.449-1.63t-.55-1.854q-.3-.957-.611-1.935t-.631-1.834l-4.319-11.286h-7.9v30.721zm49.462 0v-7.375h-6.234V41.302h-8.271v30.721h14.5zm22.9 0l-7.048-30.721h-9.865l-7.09 30.721h8.556l.693-3.911h5.5l.693 3.911h8.556zM94.255 61.552h-3.544l1.263-8.271q.121-.774.224-1.834t.306-2.811q.2 1.752.325 2.811t.245 1.834zm21.594 10.471h7.9V64.2q0-1.833-.122-4.258t-.367-5.643q.816 2.934 2.119 6.438l4.156 11.286h7.945V41.302h-7.945v7.823q0 1.833.265 4.665t.509 6.051q-.2-.733-.448-1.63t-.55-1.854q-.306-.957-.611-1.935t-.632-1.834l-4.319-11.286h-7.9v30.721zm45.184-30.721h-8.314v19.8a6.574 6.574 0 01-.448 2.872 1.683 1.683 0 01-1.63.835 1.776 1.776 0 01-1.671-.835 6.076 6.076 0 01-.489-2.872v-19.8h-8.312v20.535a12.8 12.8 0 00.774 4.645 9.37 9.37 0 002.139 3.341 8.916 8.916 0 003.3 2.037 12.552 12.552 0 004.258.693 12.372 12.372 0 004.237-.693 8.94 8.94 0 003.28-2.037 9.157 9.157 0 002.119-3.341 13.127 13.127 0 00.753-4.645V41.302zm2.689 30.721h15.4v-7.375h-7.13v-4.685h6.4v-6.969h-6.4v-4.48h7.13v-7.212h-15.4v30.721zm16.664-10.39v9.616a17 17 0 006.234 1.3 9.913 9.913 0 003.932-.774 8.854 8.854 0 003.1-2.18 10.4 10.4 0 002.017-3.3 11.475 11.475 0 00.733-4.176 9.081 9.081 0 00-1.141-4.624 13.3 13.3 0 00-3.748-3.891l-1.344-.978a3.279 3.279 0 01-1.671-2.445 1.7 1.7 0 01.632-1.324 2.3 2.3 0 011.568-.55 4.376 4.376 0 012.547.917 9.178 9.178 0 012.3 2.465v-9.371a12.682 12.682 0 00-5.949-1.589 8.611 8.611 0 00-3.667.794 9.411 9.411 0 00-2.974 2.16 9.979 9.979 0 00-1.976 3.2 10.8 10.8 0 00-.713 3.952 9.023 9.023 0 001.161 4.584 14.768 14.768 0 003.85 4.1l1.345 1.059a3.226 3.226 0 011.467 2.4 1.8 1.8 0 01-.673 1.426 2.583 2.583 0 01-1.731.57q-2.816 0-5.302-3.341zm28.479 10.39V48.677h4.686v-7.375h-17.682v7.375h4.685v23.346h8.312zm27.053 0l-6.193-12.753q4.686-2.118 4.686-7.7a12.419 12.419 0 00-.672-4.177 7.94 7.94 0 00-2.139-3.239 10.147 10.147 0 00-3.81-2.1 18.693 18.693 0 00-5.684-.754h-8.026v30.721h8.271v-12.59l4.6 12.59h8.963zm-13.567-16.624v-7.293h.57a3.2 3.2 0 012.486.937 3.856 3.856 0 01.855 2.69 3.93 3.93 0 01-.855 2.709 3.162 3.162 0 01-2.486.957h-.57zm36.75 16.624l-7.049-30.721h-9.86l-7.089 30.721h8.556l.693-3.911h5.5l.693 3.911h8.556zm-10.232-10.471h-3.544l1.263-8.271q.122-.774.224-1.834t.3-2.811q.2 1.752.326 2.811t.245 1.834zm10.267 6.274a4.464 4.464 0 00.367 1.813 4.746 4.746 0 002.465 2.465 4.662 4.662 0 003.626 0 4.746 4.746 0 002.465-2.465 4.662 4.662 0 000-3.626 4.746 4.746 0 00-2.465-2.465 4.673 4.673 0 00-3.626 0 4.746 4.746 0 00-2.465 2.465 4.468 4.468 0 00-.365 1.813z" fill-rule="evenodd"/></svg><svg width="99" height="13.97" viewBox="-1 -1 99 13.97" y="56.19" xmlns="http://www.w3.org/2000/svg"><g data-name="Layer 2"><g data-name="Layer 1" fill="#231f20"><path d="M7.63 9.22H6.2L1.58 2.86v6.36H0V.15h1.44l4.61 6.39V.15h1.58v9.07zm3.11 0H9.2V2.76h1.54zM10.8 2H9.14V.15h1.66zm7.99 7.22h-1.9l-2.28-2.75-.84.78v1.97h-1.54V.15h1.54V5.3l2.72-2.55h2.06l-2.87 2.69 3.11 3.78z"/><path d="M23.54 5.29a1.35 1.35 0 00-.4-.92 1.78 1.78 0 00-1.31-.45 1.72 1.72 0 00-1.31.52 1.57 1.57 0 00-.43.85zm1.53.33v.92h-5a1.59 1.59 0 00.47 1 2.38 2.38 0 001.53.46 4.79 4.79 0 002.75-.89v1.53a6.85 6.85 0 01-.84.41 5.55 5.55 0 01-1.91.32 3.68 3.68 0 01-2.69-.93A3.24 3.24 0 0118.52 6a3.37 3.37 0 01.87-2.45 3.22 3.22 0 012.41-.94 3.35 3.35 0 012.46.88 2.85 2.85 0 01.81 2.13zM32.76.87h-5.25v3.4h4.75v.74h-4.75v4.21h-.78V.15h6.03v.72zm5.06 6.78V5.77h-.77c-2.33 0-3.49.55-3.49 1.64 0 .85.48 1.28 1.44 1.28a5.32 5.32 0 002.82-1.04zm.77 1.57h-.77v-.78a4.72 4.72 0 01-2.82.93c-1.45 0-2.17-.65-2.17-2a1.91 1.91 0 01.81-1.63 4 4 0 012-.66h2.15v-.36a1.2 1.2 0 00-.67-1.11 2.74 2.74 0 00-1.34-.3 4.21 4.21 0 00-2.46.92v-.81a4 4 0 012.52-.83 3.25 3.25 0 011.9.5 1.93 1.93 0 01.82 1.68zM45 8.74a3.68 3.68 0 01-2.12.63 3.05 3.05 0 01-2.38-.94A3.49 3.49 0 0139.69 6a3.57 3.57 0 01.84-2.45 3 3 0 012.36-.94 4 4 0 012.11.56V4a3.57 3.57 0 00-2.1-.67 2.76 2.76 0 00-1.07.19 2.13 2.13 0 00-.77.55 2.35 2.35 0 00-.48.85A3.72 3.72 0 0040.43 6 2.91 2.91 0 0041 7.91a2.3 2.3 0 001.85.76A3.55 3.55 0 0045 8zm4.76.54a2.63 2.63 0 01-.72.09h-.38a1.8 1.8 0 01-1.24-.71 2.35 2.35 0 01-.42-1.5V3.38h-1.31v-.62H47V.85h.75v1.91h2v.62h-2v3.74q0 1.32 1 1.5H49a2.66 2.66 0 00.72-.1zM56.1 6a2.79 2.79 0 00-.62-1.92 2.67 2.67 0 00-3.73 0A2.86 2.86 0 0051.13 6a2.86 2.86 0 00.62 1.92 2.67 2.67 0 003.73 0A2.75 2.75 0 0056.1 6zm.74 0A3.45 3.45 0 0156 8.43a3.13 3.13 0 01-2.4.94 3.08 3.08 0 01-2.4-.94A3.49 3.49 0 0150.39 6a3.5 3.5 0 01.85-2.45 3.06 3.06 0 012.37-.94 3.16 3.16 0 012.4 1A3.46 3.46 0 0156.84 6zm3.99-2.55h-.28a1.61 1.61 0 00-1.25.41 2.11 2.11 0 00-.56 1.62v3.74H58V2.76h.75v.9a2.36 2.36 0 01.8-.77 2 2 0 011-.28h.27zm7.09-.69l-3.38 7.61a3.42 3.42 0 01-.73 1.17 2 2 0 01-1.48.43v-.72a1.32 1.32 0 001-.3 2 2 0 00.42-.66l.49-1.13-2.76-6.4h.89l2.33 5.5 2.38-5.5zm6.97 3.95a2.41 2.41 0 01-.91 2 3.28 3.28 0 01-2.14.67A4.93 4.93 0 0169 8.54v-1a4 4 0 002.8 1.09 2.51 2.51 0 001.56-.46 1.61 1.61 0 00.72-1.38 1.49 1.49 0 00-.67-1.24 5.06 5.06 0 00-1.34-.64 10.45 10.45 0 01-2-.82 2 2 0 01-1-1.74A2.05 2.05 0 0170 .59 3.17 3.17 0 0172 0a4.41 4.41 0 012.51.71v.91a3.91 3.91 0 00-2.59-.9 2.26 2.26 0 00-1.31.41 1.34 1.34 0 00-.66 1.15 1.38 1.38 0 00.76 1.21 7 7 0 001.41.6A8.22 8.22 0 0174 5a2 2 0 01.89 1.71zm4.71 2.57a2.63 2.63 0 01-.72.09h-.38a1.85 1.85 0 01-1.25-.71 2.41 2.41 0 01-.44-1.48v-3.8h-1.28v-.62h1.28V.85h.75v1.91h2v.62h-2v3.74c0 .88.34 1.38 1 1.5h.29a2.66 2.66 0 00.72-.1zM85.94 6a2.79 2.79 0 00-.62-1.92 2.67 2.67 0 00-3.73 0A2.86 2.86 0 0081 6a2.86 2.86 0 00.62 1.92 2.67 2.67 0 003.73 0A2.75 2.75 0 0085.94 6zm.74 0a3.49 3.49 0 01-.83 2.43 3.13 3.13 0 01-2.4.94 3.07 3.07 0 01-2.4-.94A3.49 3.49 0 0180.23 6a3.5 3.5 0 01.85-2.45 3.06 3.06 0 012.37-.94 3.15 3.15 0 012.4 1A3.5 3.5 0 0186.68 6zm3.99-2.55h-.28a1.63 1.63 0 00-1.25.41 2.15 2.15 0 00-.56 1.62v3.74h-.75V2.76h.75v.9a2.36 2.36 0 01.8-.77 2 2 0 011-.28h.27zm5.62 2.11a2.26 2.26 0 00-.59-1.65 2.17 2.17 0 00-1.63-.62 2.14 2.14 0 00-1.61.71 2.61 2.61 0 00-.69 1.6zm.71 0v.67h-5.25A2.65 2.65 0 0092.46 8a2.38 2.38 0 001.77.65 3.81 3.81 0 002.45-.86v.81a4.16 4.16 0 01-2.45.75 3.08 3.08 0 01-2.4-.94A3.49 3.49 0 0191 6a3.42 3.42 0 011-2.55 2.92 2.92 0 012-.84 2.86 2.86 0 012.16.82A2.9 2.9 0 0197 5.58z"/></g></g></svg></svg>