<svg width="113" height="105" xmlns="http://www.w3.org/2000/svg" xmlns:xlink="http://www.w3.org/1999/xlink"><svg width="71.52" height="11.91" viewBox="-1 -1 141.03 21.81" y="74.11" xmlns="http://www.w3.org/2000/svg"><path data-name="ConocE mรกs" d="M7.453 19.78a6.617 6.617 0 004.771-1.67 6.8 6.8 0 001.917-4.48h-1.984a4.418 4.418 0 01-4.637 4.39c-3.321 0-5.483-2.63-5.483-6.53 0-3.75 1.961-6.58 5.461-6.58 2.519 0 4.1 1.36 4.48 3.35h1.962c-.424-2.95-2.675-5.09-6.4-5.09-4.748 0-7.557 3.64-7.557 8.32.003 4.84 2.945 8.29 7.47 8.29zm15.245.02c4.815 0 7.8-3.54 7.8-8.31s-2.987-8.32-7.8-8.32-7.8 3.55-7.8 8.32 2.986 8.31 7.8 8.31zm0-1.76c-3.745 0-5.751-2.81-5.751-6.55s2.006-6.58 5.751-6.58 5.751 2.83 5.751 6.58-2.006 6.55-5.751 6.55zm9.293 1.43h1.878V6.38h.044s.669 1.21 1.182 1.99l7.311 11.1h2.051V3.53h-1.878v13.13h-.044s-.624-1.23-1.159-2.05L34.109 3.53h-2.118v15.94zm21.754.33c4.815 0 7.8-3.54 7.8-8.31s-2.987-8.32-7.8-8.32-7.8 3.55-7.8 8.32 2.985 8.31 7.8 8.31zm0-1.76c-3.745 0-5.751-2.81-5.751-6.55S50 4.91 53.745 4.91s5.751 2.83 5.751 6.58-2.006 6.55-5.751 6.55zm16.159 1.74a6.616 6.616 0 004.77-1.67 6.789 6.789 0 001.917-4.48h-1.984a4.417 4.417 0 01-4.636 4.39c-3.322 0-5.484-2.63-5.484-6.53 0-3.75 1.962-6.58 5.461-6.58 2.519 0 4.1 1.36 4.481 3.35h1.961c-.423-2.95-2.675-5.09-6.4-5.09-4.748 0-7.557 3.64-7.557 8.32.003 4.84 2.946 8.29 7.471 8.29zm8.045-.31h11.52v-1.85h-9.518v-5.6h8.4v-1.69h-8.4V5.29h9.251V3.53H77.949v15.94zm18.276 0h1.805V6.36h.045s.4 1.21.713 2.01l4.369 11.1h1.538l4.369-11.1c.29-.76.713-2.01.713-2.01h.045v13.11h1.917V3.53h-2.608l-5.127 13.24h-.045L98.788 3.53h-2.563v15.94zm16.336 0h2.051l1.716-4.86h6.353l1.694 4.86h2.185l-5.885-15.94h-2.251zm6.241-11.84c.313-.91.736-2.25.736-2.25h.045s.4 1.36.713 2.25l1.828 5.35h-5.216zm-.022-4.95h1.538l1.828-2.69h-2.229zm14.4 17.1c3.433 0 5.863-1.67 5.863-4.66 0-3.59-2.831-4.35-5.93-4.97-2.385-.47-4.168-1-4.168-2.81 0-1.65 1.427-2.56 3.589-2.56 2.34 0 3.811 1.14 4.1 3.41h1.895c-.4-2.94-2.051-4.97-6.041-4.97-3.232 0-5.416 1.58-5.416 4.21 0 3.01 2.407 3.81 5.216 4.44 2.853.62 4.77 1.13 4.77 3.32 0 1.98-1.583 2.99-3.79 2.99-3.009 0-4.658-1.41-4.926-4.11h-1.961c.177 3.21 2.317 5.71 6.797 5.71z" fill="#fff" fill-rule="evenodd"/></svg><svg width="46.28" height="18.29" viewBox="-1 -1 46.28 18.29" y="86.02" xmlns="http://www.w3.org/2000/svg"><g data-name="Layer 2"><path d="M11.87 14.5C8.38 16.05 2.9 17.82.62 14-.66 11.84.15 8.52 2 5.49A44 44 0 016.3 0C5.44 1.45 3 6.3 6.19 8.73c1.23.93 3.38 1 6.07.3l32-8.88z" fill="#f47735" data-name="Layer 1"/></g></svg><svg width="100.39" height="30.5" viewBox="-1 -1 198.78 59" y="30.5" xmlns="http://www.w3.org/2000/svg"><path data-name="Ya ENTRENASTE EN TU CASA." d="M12.525 24.594V14.382l5.6-13.921h-6.753l-1.184 3.584q-.351 1.024-.608 2T9.1 7.917q-.224-.9-.5-1.872t-.624-2L6.792.461H.008l5.984 13.921v10.212h6.528zm23.328 0L30.317.465h-7.744l-5.568 24.129h6.72l.544-3.072h4.32l.544 3.072h6.72zm-8.032-8.224h-2.784l.992-6.5q.1-.607.176-1.44t.24-2.208q.161 1.377.256 2.208t.192 1.44zm16.96 8.224h12.1v-5.8h-5.6v-3.68h5.024V9.641h-5.024v-3.52h5.6V.457h-12.1v24.137zm13.6 0h6.209V18.45q0-1.44-.1-3.344t-.288-4.433q.639 2.305 1.664 5.057l3.264 8.864h6.24V.461h-6.24v6.144q0 1.44.208 3.664t.4 4.753q-.16-.576-.352-1.28t-.432-1.456q-.24-.753-.48-1.521t-.5-1.44L64.582.461h-6.201v24.133zm27.617 0V6.253h3.68V.461h-13.89v5.792h3.68v18.341h6.529zm21.248 0l-4.865-10.02a6.066 6.066 0 003.681-6.049 9.752 9.752 0 00-.528-3.28 6.212 6.212 0 00-1.681-2.544 7.972 7.972 0 00-2.992-1.648 14.678 14.678 0 00-4.464-.592h-6.3v24.133h6.5v-9.888l3.616 9.888h7.041zM96.589 11.537V5.809h.448a2.511 2.511 0 011.952.736 3.026 3.026 0 01.672 2.112 3.085 3.085 0 01-.672 2.128 2.478 2.478 0 01-1.952.752h-.448zm11.551 13.057h12.1v-5.8h-5.6v-3.68h5.024V9.641h-5.024v-3.52h5.6V.457h-12.1v24.137zm13.6 0h6.209V18.45q0-1.44-.1-3.344t-.288-4.433q.639 2.305 1.664 5.057l3.264 8.864h6.24V.461h-6.24v6.144q0 1.44.208 3.664t.4 4.753q-.16-.576-.352-1.28t-.432-1.456q-.24-.753-.48-1.521t-.5-1.44L127.941.461h-6.209v24.133zm36.417 0L152.621.465h-7.745l-5.569 24.129h6.72l.544-3.072h4.321l.544 3.072h6.72zm-8.032-8.224h-2.784l.992-6.5q.1-.607.176-1.44t.24-2.208l.256 2.208q.097.831.192 1.44zm8.1.064v7.552a13.341 13.341 0 004.9 1.024 7.792 7.792 0 003.089-.608 6.935 6.935 0 002.432-1.712 8.179 8.179 0 001.574-2.596 9.017 9.017 0 00.576-3.28 7.137 7.137 0 00-.9-3.632 10.473 10.473 0 00-2.944-3.057l-1.057-.768a2.577 2.577 0 01-1.312-1.92 1.335 1.335 0 01.5-1.04 1.811 1.811 0 011.233-.432 3.435 3.435 0 012 .72 7.222 7.222 0 011.808 1.936v-7.36a9.968 9.968 0 00-4.673-1.248 6.755 6.755 0 00-2.88.624 7.392 7.392 0 00-2.336 1.7 7.861 7.861 0 00-1.552 2.512 8.5 8.5 0 00-.56 3.1 7.084 7.084 0 00.912 3.6 11.568 11.568 0 003.024 3.217l1.056.832a2.533 2.533 0 011.152 1.888 1.41 1.41 0 01-.528 1.12 2.032 2.032 0 01-1.36.448q-2.208 0-4.16-2.624zm22.368 8.16V6.253h3.68V.461h-13.892v5.792h3.68v18.341h6.528zm4.095 0h12.093v-5.8h-5.6v-3.68h5.024V9.641h-5.024v-3.52h5.6V.457h-12.1v24.137zm-161.085 32h12.1v-5.8h-5.6v-3.68h5.024v-5.473h-5.024v-3.52h5.6v-5.664h-12.1v24.137zm13.6 0h6.208V50.45q0-1.44-.1-3.344t-.288-4.433q.64 2.3 1.664 5.057l3.264 8.864h6.24V32.461h-6.24v6.144q0 1.44.208 3.664t.4 4.753q-.161-.576-.352-1.28t-.432-1.457q-.24-.751-.48-1.52t-.5-1.44l-3.392-8.864h-6.208v24.133zm35.968 0V38.253h3.68v-5.792H62.956v5.792h3.68v18.341h6.529zm20.48-24.129h-6.529v15.549a5.154 5.154 0 01-.352 2.256 1.322 1.322 0 01-1.28.656 1.4 1.4 0 01-1.312-.656 4.778 4.778 0 01-.384-2.256V32.461h-6.528v16.133a10.068 10.068 0 00.608 3.648 7.35 7.35 0 001.68 2.624 7.005 7.005 0 002.592 1.6 9.856 9.856 0 003.344.544 9.713 9.713 0 003.328-.544 7.026 7.026 0 002.577-1.6 7.2 7.2 0 001.664-2.624 10.321 10.321 0 00.592-3.648V32.461zm23.647 23.681l.384-6.976a5.048 5.048 0 01-3.392 1.568 3.427 3.427 0 01-3.072-1.648 8.413 8.413 0 01-1.056-4.56 8.849 8.849 0 011.088-4.737 3.517 3.517 0 013.168-1.728 4.381 4.381 0 012.976 1.44v-6.88a12.738 12.738 0 00-1.616-.448 8.03 8.03 0 00-1.616-.16 10.342 10.342 0 00-4.4.912 9.66 9.66 0 00-3.36 2.56 11.643 11.643 0 00-2.144 3.952 16.311 16.311 0 00-.752 5.089 17.223 17.223 0 00.736 5.248 11.87 11.87 0 002.048 3.92 8.8 8.8 0 003.12 2.464 9.268 9.268 0 003.984.848 10.731 10.731 0 003.898-.868zm18.944.448l-5.536-24.129h-7.744l-5.575 24.129h6.721l.544-3.072h4.32l.544 3.072h6.72zm-8.032-8.224h-2.784l.992-6.5q.1-.607.176-1.44t.24-2.208l.256 2.208q.097.831.192 1.44zm8.1.064v7.552a13.345 13.345 0 004.9 1.024 7.791 7.791 0 003.088-.608 6.935 6.935 0 002.432-1.712 8.179 8.179 0 001.57-2.596 9.017 9.017 0 00.576-3.28 7.137 7.137 0 00-.9-3.632 10.473 10.473 0 00-2.944-3.057l-1.056-.768a2.574 2.574 0 01-1.312-1.92 1.332 1.332 0 01.5-1.04 1.807 1.807 0 011.232-.432 3.435 3.435 0 012 .72 7.222 7.222 0 011.808 1.936v-7.36a9.967 9.967 0 00-4.672-1.248 6.755 6.755 0 00-2.88.624 7.4 7.4 0 00-2.337 1.7 7.861 7.861 0 00-1.552 2.512 8.5 8.5 0 00-.56 3.1 7.084 7.084 0 00.912 3.6 11.558 11.558 0 003.025 3.217l1.056.832a2.533 2.533 0 011.152 1.888 1.41 1.41 0 01-.528 1.12 2.034 2.034 0 01-1.36.448q-2.209 0-4.161-2.624zm31.169 8.16l-5.537-24.129h-7.744l-5.579 24.129h6.72l.544-3.072h4.32l.544 3.072h6.721zm-8.033-8.224h-2.795l.992-6.5q.1-.607.176-1.44t.24-2.208l.256 2.208q.096.831.192 1.44zm8.064 4.928a3.5 3.5 0 00.288 1.424 3.731 3.731 0 001.936 1.936 3.664 3.664 0 002.848 0 3.731 3.731 0 001.936-1.936 3.664 3.664 0 000-2.848 3.731 3.731 0 00-1.936-1.936 3.664 3.664 0 00-2.848 0 3.731 3.731 0 00-1.936 1.936 3.5 3.5 0 00-.299 1.42z" fill-rule="evenodd"/></svg><svg width="112.5" height="30.5" viewBox="-1 -1 223 59" xmlns="http://www.w3.org/2000/svg"><path data-name="AHORA EQUIPATE EN LA NUESTRA." d="M18.861 24.59L13.324.46H5.58L.012 24.59h6.72l.544-3.08h4.32l.544 3.08h6.721zm-8.033-8.23H8.044l.992-6.49q.1-.615.176-1.44c.054-.56.134-1.3.24-2.21.107.91.192 1.65.256 2.21s.128 1.03.192 1.44zm24.737 8.23V.46h-6.5V9h-3.133V.46h-6.5v24.13h6.5v-9.7h3.136v9.7h6.5zm19.871-12.07a18.585 18.585 0 00-.656-5.09 12.278 12.278 0 00-1.872-3.95A8.757 8.757 0 0049.996.92a8.19 8.19 0 00-7.5 0 8.8 8.8 0 00-2.9 2.56 12.278 12.278 0 00-1.872 3.95 20.045 20.045 0 000 10.18 12.178 12.178 0 001.872 3.95 8.661 8.661 0 002.9 2.55 8.354 8.354 0 007.5 0 8.616 8.616 0 002.912-2.55 12.178 12.178 0 001.872-3.95 18.533 18.533 0 00.656-5.09zm-6.752 0a13.685 13.685 0 01-.64 4.75q-.641 1.65-1.792 1.65t-1.792-1.65a13.685 13.685 0 01-.64-4.75 13.851 13.851 0 01.64-4.77c.426-1.11 1.024-1.66 1.792-1.66s1.365.55 1.792 1.66a13.851 13.851 0 01.64 4.77zm25.408 12.07l-4.864-10.02a6.071 6.071 0 003.68-6.05 9.761 9.761 0 00-.528-3.28A6.193 6.193 0 0070.7 2.7a7.826 7.826 0 00-2.992-1.65 14.537 14.537 0 00-4.464-.59h-6.305v24.13h6.5V14.7l3.616 9.89h7.04zM63.436 11.53V5.8h.448a2.515 2.515 0 011.952.74 3.014 3.014 0 01.672 2.11 3.085 3.085 0 01-.672 2.13 2.486 2.486 0 01-1.952.75h-.448zM92.3 24.59L86.764.46h-7.745l-5.568 24.13h6.72l.544-3.08h4.32l.544 3.08H92.3zm-8.033-8.23h-2.784l.992-6.49q.1-.615.176-1.44c.054-.56.134-1.3.24-2.21.107.91.192 1.65.256 2.21s.128 1.03.192 1.44zm16.96 8.23h12.1v-5.8h-5.6v-3.68h5.024V9.64h-5.024V6.12h5.6V.46h-12.1v24.13zm31.36-12.07a18.585 18.585 0 00-.656-5.09 12.278 12.278 0 00-1.872-3.95 8.747 8.747 0 00-2.912-2.56 8.19 8.19 0 00-7.5 0 8.814 8.814 0 00-2.9 2.56 12.278 12.278 0 00-1.872 3.95 20.075 20.075 0 000 10.18 12.178 12.178 0 001.872 3.95 8.671 8.671 0 002.9 2.55 7.944 7.944 0 003.76.89 8.316 8.316 0 002.016-.25l2.176 3.16 5.216-2.84-2.944-3.24a11.894 11.894 0 002.016-4.03 18.485 18.485 0 00.7-5.28zm-6.752 0a13.685 13.685 0 01-.64 4.75q-.64 1.65-1.792 1.65t-1.792-1.65a13.685 13.685 0 01-.64-4.75 13.851 13.851 0 01.64-4.77c.427-1.11 1.024-1.66 1.792-1.66s1.365.55 1.792 1.66a13.851 13.851 0 01.64 4.77zM150.699.46h-6.528v15.55a5.184 5.184 0 01-.352 2.26 1.332 1.332 0 01-1.28.65 1.4 1.4 0 01-1.312-.65 4.791 4.791 0 01-.384-2.26V.46h-6.531v16.13a10.023 10.023 0 00.608 3.64 7.412 7.412 0 001.68 2.63 7.014 7.014 0 002.593 1.6 9.926 9.926 0 003.344.54 9.791 9.791 0 003.328-.54 7.043 7.043 0 002.576-1.6 7.232 7.232 0 001.664-2.63 10.252 10.252 0 00.592-3.64V.46zm8.607 24.13V.46h-6.494v24.13h6.5zm8.608 0v-7.91h1.024a11.476 11.476 0 003.84-.57 6.942 6.942 0 002.64-1.64 6.3 6.3 0 001.52-2.52 10.541 10.541 0 00.48-3.27 9.841 9.841 0 00-.544-3.34 6.218 6.218 0 00-1.728-2.59 8.189 8.189 0 00-3.008-1.68 13.921 13.921 0 00-4.416-.61h-6.3v24.13h6.5zm0-13.25V5.8h.608a2.129 2.129 0 011.84.85 3.22 3.22 0 01.624 1.97 2.781 2.781 0 01-.688 2 2.345 2.345 0 01-1.776.72h-.61zm27.809 13.25L190.186.46h-7.744l-5.568 24.13h6.72l.544-3.08h4.32l.544 3.08h6.721zm-8.033-8.23h-2.784l.992-6.49q.1-.615.176-1.44c.054-.56.134-1.3.24-2.21.107.91.192 1.65.256 2.21s.128 1.03.192 1.44zm17.122 8.23V6.25h3.68V.46h-13.89v5.79h3.68v18.34h6.53zm4.1 0h12.1v-5.8h-5.6v-3.68h5.024V9.64h-5.034V6.12h5.6V.46h-12.1v24.13zm-197.278 32h12.1v-5.8h-5.6v-3.68h5.025v-5.47h-5.025v-3.52h5.6v-5.66h-12.1v24.13zm13.6 0h6.208v-6.15c0-.96-.032-2.07-.1-3.34s-.16-2.75-.288-4.43c.427 1.53.982 3.22 1.664 5.05l3.264 8.87h6.241V32.46h-6.241v6.14c0 .96.07 2.18.208 3.67s.272 3.06.4 4.75c-.106-.39-.224-.81-.352-1.28s-.272-.96-.432-1.46-.32-1.01-.48-1.52-.325-.99-.5-1.44l-3.392-8.86h-6.208v24.13zm38.848 0v-5.8h-4.9V32.46h-6.5v24.13h11.392zm17.984 0L76.53 32.46h-7.745l-5.573 24.13h6.721l.544-3.08h4.32l.544 3.08h6.72zm-8.032-8.23H71.25l.992-6.49q.1-.615.176-1.44c.053-.56.133-1.3.24-2.21l.256 2.21c.064.56.128 1.03.192 1.44zm16.959 8.23h6.208v-6.15c0-.96-.032-2.07-.1-3.34s-.16-2.75-.288-4.43c.427 1.53.982 3.22 1.664 5.05l3.265 8.87h6.24V32.46h-6.24v6.14c0 .96.069 2.18.208 3.67s.272 3.06.4 4.75c-.107-.39-.224-.81-.352-1.28s-.272-.96-.432-1.46-.32-1.01-.481-1.52-.325-.99-.5-1.44l-3.392-8.86h-6.208v24.13zm35.489-24.13h-6.529v15.55a5.168 5.168 0 01-.352 2.26 1.33 1.33 0 01-1.28.65 1.406 1.406 0 01-1.312-.65 4.791 4.791 0 01-.384-2.26V32.46h-6.528v16.13a10.023 10.023 0 00.608 3.64 7.385 7.385 0 001.68 2.63 7.018 7.018 0 002.592 1.6 9.926 9.926 0 003.344.54 9.787 9.787 0 003.328-.54 7.027 7.027 0 002.576-1.6 7.221 7.221 0 001.665-2.63 10.275 10.275 0 00.592-3.64V32.46zm2.111 24.13h12.1v-5.8h-5.6v-3.68h5.019v-5.47h-5.024v-3.52h5.6v-5.66h-12.1v24.13zm13.088-8.16v7.55a13.392 13.392 0 004.9 1.02 7.7 7.7 0 003.088-.61 6.817 6.817 0 002.432-1.71 8.126 8.126 0 001.584-2.59 9.025 9.025 0 00.576-3.28 7.111 7.111 0 00-.9-3.63 10.37 10.37 0 00-2.944-3.06l-1.056-.77a2.574 2.574 0 01-1.312-1.92 1.343 1.343 0 01.5-1.04 1.848 1.848 0 011.232-.43 3.435 3.435 0 012 .72 7.225 7.225 0 011.808 1.94v-7.36a9.994 9.994 0 00-4.672-1.25 6.843 6.843 0 00-2.88.62 7.377 7.377 0 00-2.336 1.7 7.763 7.763 0 00-1.552 2.51 8.5 8.5 0 00-.56 3.11 7.1 7.1 0 00.912 3.6 11.677 11.677 0 003.024 3.21l1.056.83a2.539 2.539 0 011.152 1.89 1.408 1.408 0 01-.528 1.12 2.025 2.025 0 01-1.36.45q-2.218 0-4.17-2.62zm22.368 8.16V38.25h3.68v-5.79h-13.895v5.79h3.68v18.34h6.529zm21.248 0l-4.865-10.02a6.069 6.069 0 003.68-6.05 9.761 9.761 0 00-.528-3.28 6.193 6.193 0 00-1.68-2.54 7.826 7.826 0 00-2.992-1.65 14.528 14.528 0 00-4.464-.59h-6.3v24.13h6.5V46.7l3.616 9.89h7.041zM174.64 43.53V37.8h.448a2.513 2.513 0 011.952.74 3.014 3.014 0 01.672 2.11 3.085 3.085 0 01-.672 2.13 2.484 2.484 0 01-1.952.75h-.448zm28.864 13.06l-5.536-24.13h-7.744l-5.569 24.13h6.721l.544-3.08h4.32l.544 3.08h6.72zm-8.032-8.23h-2.79l.992-6.49q.1-.615.176-1.44c.053-.56.133-1.3.24-2.21l.256 2.21c.064.56.128 1.03.192 1.44zm8.063 4.93a3.466 3.466 0 00.288 1.42 3.747 3.747 0 00.784 1.16 3.7 3.7 0 001.153.78 3.641 3.641 0 002.848 0 3.683 3.683 0 001.936-1.94 3.645 3.645 0 000-2.84 3.683 3.683 0 00-1.936-1.94 3.641 3.641 0 00-2.848 0 3.7 3.7 0 00-1.153.78 3.747 3.747 0 00-.784 1.16 3.466 3.466 0 00-.294 1.42z" fill-rule="evenodd"/></svg><svg width="92" height="13.11" viewBox="-1 -1 92 13.11" y="61" xmlns="http://www.w3.org/2000/svg"><g data-name="Layer 2"><g data-name="Layer 1" fill="#231f20"><path d="M7.08 8.55H5.75l-4.28-5.9v5.9H0V.14h1.33l4.28 5.93V.14h1.47v8.41zm2.92.01H8.53v-6H10zm0-6.71H8.48V.14H10zm7.44 6.7h-1.77L13.55 6l-.77.73v1.82h-1.43V.14h1.43v4.78l2.52-2.36h1.91l-2.66 2.49 2.89 3.5z"/><path d="M21.84 4.9a1.24 1.24 0 00-.37-.85 1.64 1.64 0 00-1.22-.42 1.61 1.61 0 00-1.25.49 1.54 1.54 0 00-.4.78zm1.42.32v.85h-4.65A1.47 1.47 0 0019 7a2.27 2.27 0 001.43.48A4.47 4.47 0 0023 6.63V8a5.33 5.33 0 01-.78.38 5 5 0 01-1.78.3A3.44 3.44 0 0118 7.83a3 3 0 01-.8-2.27 3.12 3.12 0 01.8-2.27 3 3 0 012.24-.87 3.07 3.07 0 012.27.82 2.61 2.61 0 01.75 1.98zM30.4.81h-4.88v3.15h4.41v.69h-4.41v3.9h-.72V.14h5.6v.67zm4.69 6.28V5.35h-.71q-3.24 0-3.24 1.53c0 .78.45 1.18 1.34 1.18a4.89 4.89 0 002.61-.97zm.71 1.46h-.71v-.72a4.41 4.41 0 01-2.58.86c-1.35 0-2-.6-2-1.81a1.78 1.78 0 01.75-1.52 3.78 3.78 0 011.86-.61h1.99v-.38a1.09 1.09 0 00-.62-1 2.47 2.47 0 00-1.24-.28 3.88 3.88 0 00-2.29.85v-.77a3.72 3.72 0 012.34-.77 3 3 0 011.7.46 1.78 1.78 0 01.76 1.57zm5.96-.44a3.4 3.4 0 01-2 .58 2.88 2.88 0 01-2.22-.87 3.3 3.3 0 01-.76-2.26 3.27 3.27 0 01.79-2.27 2.82 2.82 0 012.19-.87 3.66 3.66 0 012 .52v.75a3.35 3.35 0 00-1.95-.62 2.57 2.57 0 00-1 .18 2 2 0 00-.71.5 2.36 2.36 0 00-.45.79 3.31 3.31 0 00-.15 1 2.66 2.66 0 00.57 1.78A2.14 2.14 0 0039.8 8a3.25 3.25 0 002-.67zm4.41.5a2.73 2.73 0 01-.67.08h-.36A1.75 1.75 0 0144 8a2.24 2.24 0 01-.41-1.38V3.14h-1.2v-.58h1.19V.79h.69v1.77h1.9v.58h-1.9v3.47c0 .81.32 1.28 1 1.39h.27a2.75 2.75 0 00.67-.09zm5.88-3.05a2.62 2.62 0 00-.57-1.79 2.5 2.5 0 00-3.47 0 2.67 2.67 0 00-.57 1.79A2.66 2.66 0 0048 7.34a2.5 2.5 0 003.47 0 2.57 2.57 0 00.58-1.78zm.69 0A3.2 3.2 0 0152 7.82a3.28 3.28 0 01-4.45 0 3.3 3.3 0 01-.76-2.26 3.3 3.3 0 01.79-2.27 2.85 2.85 0 012.2-.87A2.89 2.89 0 0152 3.3a3.22 3.22 0 01.74 2.26zm3.7-2.36h-.26a1.53 1.53 0 00-1.18.36 2 2 0 00-.52 1.5v3.5h-.69v-6h.69v.84a2.16 2.16 0 01.75-.72 1.91 1.91 0 01.94-.26h.25zM63 2.56l-3.11 7.06a3.24 3.24 0 01-.69 1.08 1.83 1.83 0 01-1.37.4v-.67a1.21 1.21 0 001-.27 1.88 1.88 0 00.39-.61l.45-1.05-2.6-5.94h.82l2.17 5.1 2.2-5.1zm6.49 3.67a2.22 2.22 0 01-.85 1.84 3.09 3.09 0 01-2 .62 4.61 4.61 0 01-2.6-.76V7a3.72 3.72 0 002.57 1 2.42 2.42 0 001.45-.43 1.5 1.5 0 00.66-1.28 1.36 1.36 0 00-.61-1.15 4.73 4.73 0 00-1.25-.59A10.91 10.91 0 0165 3.8a1.84 1.84 0 01-.92-1.62 1.92 1.92 0 01.85-1.64A2.94 2.94 0 0166.75 0a4.06 4.06 0 012.33.66v.84a3.67 3.67 0 00-2.41-.83 2.09 2.09 0 00-1.21.38 1.24 1.24 0 00-.61 1.06 1.27 1.27 0 00.7 1.13 6.55 6.55 0 001.31.55 7.9 7.9 0 011.79.8 1.9 1.9 0 01.84 1.64zm4.36 2.38a2.59 2.59 0 01-.66.08h-.36A1.73 1.73 0 0171.68 8a2.24 2.24 0 01-.41-1.38V3.14h-1.19v-.58h1.19V.79H72v1.77h1.89v.58H72v3.47c0 .81.32 1.28 1 1.39h.15a2.61 2.61 0 00.66-.09zm5.89-3.05a2.62 2.62 0 00-.57-1.79 2.5 2.5 0 00-3.47 0 2.67 2.67 0 00-.57 1.79 2.66 2.66 0 00.57 1.78 2.5 2.5 0 003.47 0 2.57 2.57 0 00.57-1.78zm.69 0a3.2 3.2 0 01-.78 2.26 3.28 3.28 0 01-4.45 0 3.25 3.25 0 01-.76-2.26 3.25 3.25 0 01.79-2.27 2.84 2.84 0 012.2-.87 2.89 2.89 0 012.22.88 3.22 3.22 0 01.78 2.26zm3.69-2.36h-.25a1.53 1.53 0 00-1.16.38 2 2 0 00-.52 1.5v3.5h-.7v-6h.7v.82a2.21 2.21 0 01.74-.72 1.94 1.94 0 01.95-.26h.24zm5.22 1.96a2.12 2.12 0 00-.55-1.54 2.19 2.19 0 00-3 0 2.42 2.42 0 00-.64 1.49zm.66 0v.63h-4.87a2.43 2.43 0 00.66 1.64 2.19 2.19 0 001.64.6 3.53 3.53 0 002.27-.79V8a3.82 3.82 0 01-2.27.7 2.89 2.89 0 01-2.23-.87 3.3 3.3 0 01-.76-2.26 3.15 3.15 0 01.89-2.36 2.89 2.89 0 013.93 0A2.7 2.7 0 0190 5.17z"/></g></g></svg></svg>